<svg width="20" height="21" viewBox="0 0 20 21" fill="none" xmlns="http://www.w3.org/2000/svg">
<path fill-rule="evenodd" clip-rule="evenodd" d="M8.73975 3.65641C9.56022 2.83594 10.673 2.375 11.8333 2.375H14.0833C14.4285 2.375 14.7083 2.65482 14.7083 3V6C14.7083 6.34518 14.4285 6.625 14.0833 6.625H11.8333C11.8002 6.625 11.7684 6.63817 11.745 6.66161C11.7215 6.68505 11.7083 6.71685 11.7083 6.75V8.375H14.0833C14.2758 8.375 14.4575 8.46367 14.576 8.61537C14.6944 8.76706 14.7364 8.96487 14.6897 9.15158L13.9397 12.1516C13.8701 12.4298 13.6201 12.625 13.3333 12.625H11.7083V18C11.7083 18.3452 11.4285 18.625 11.0833 18.625H8.08334C7.73817 18.625 7.45834 18.3452 7.45834 18V12.625H5.83334C5.48817 12.625 5.20834 12.3452 5.20834 12V9C5.20834 8.65482 5.48817 8.375 5.83334 8.375H7.45834V6.75C7.45834 5.58968 7.91928 4.47688 8.73975 3.65641ZM11.8333 3.625C11.0045 3.625 10.2097 3.95424 9.62363 4.54029C9.03758 5.12634 8.70834 5.9212 8.70834 6.75V9C8.70834 9.34518 8.42852 9.625 8.08334 9.625H6.45834V11.375H8.08334C8.42852 11.375 8.70834 11.6548 8.70834 12V17.375H10.4583V12C10.4583 11.6548 10.7382 11.375 11.0833 11.375H12.8454L13.2829 9.625H11.0833C10.7382 9.625 10.4583 9.34518 10.4583 9V6.75C10.4583 6.38533 10.6032 6.03559 10.8611 5.77773C11.1189 5.51987 11.4687 5.375 11.8333 5.375H13.4583V3.625H11.8333Z" fill="#287CB9"/>
</svg>
