<svg width="16" height="17" viewBox="0 0 16 17" fill="none" xmlns="http://www.w3.org/2000/svg">
<path d="M14.537 7.19433H14V7.16667H8.00004V9.83333H11.7677C11.218 11.3857 9.74104 12.5 8.00004 12.5C5.79104 12.5 4.00004 10.709 4.00004 8.5C4.00004 6.291 5.79104 4.5 8.00004 4.5C9.01971 4.5 9.94737 4.88467 10.6537 5.513L12.5394 3.62733C11.3487 2.51767 9.75604 1.83333 8.00004 1.83333C4.31837 1.83333 1.33337 4.81833 1.33337 8.5C1.33337 12.1817 4.31837 15.1667 8.00004 15.1667C11.6817 15.1667 14.6667 12.1817 14.6667 8.5C14.6667 8.053 14.6207 7.61667 14.537 7.19433Z" fill="#FFC107"/>
<path d="M2.10205 5.397L4.29238 7.00333C4.88505 5.536 6.32038 4.5 8.00005 4.5C9.01972 4.5 9.94738 4.88467 10.6537 5.513L12.5394 3.62733C11.3487 2.51767 9.75605 1.83333 8.00005 1.83333C5.43938 1.83333 3.21872 3.279 2.10205 5.397Z" fill="#FF3D00"/>
<path d="M7.99994 15.1667C9.72194 15.1667 11.2866 14.5077 12.4696 13.436L10.4063 11.69C9.71445 12.2161 8.86909 12.5007 7.99994 12.5C6.26594 12.5 4.79361 11.3943 4.23894 9.85133L2.06494 11.5263C3.16827 13.6853 5.40894 15.1667 7.99994 15.1667Z" fill="#4CAF50"/>
<path d="M14.537 7.19433H14V7.16667H8V9.83333H11.7677C11.5047 10.5721 11.0311 11.2177 10.4053 11.6903L10.4063 11.6897L12.4697 13.4357C12.3237 13.5683 14.6667 11.8333 14.6667 8.5C14.6667 8.053 14.6207 7.61667 14.537 7.19433Z" fill="#1976D2"/>
</svg>
