<svg width="51" height="51" viewBox="0 0 51 51" fill="none" xmlns="http://www.w3.org/2000/svg">
<path d="M29.6854 34.3653H22.7426L22.7055 30.5412H28.5345C29.5617 30.5412 30.4032 30.4113 31.0591 30.1514C31.715 29.8791 32.2039 29.4893 32.5256 28.9819C32.8598 28.4621 33.0269 27.8309 33.0269 27.0884C33.0269 26.2468 32.866 25.5662 32.5442 25.0464C32.2348 24.5266 31.746 24.1492 31.0777 23.914C30.4218 23.6789 29.574 23.5613 28.5345 23.5613H24.6733V46.2274H19.1042V19.1989H28.5345C30.1062 19.1989 31.5108 19.3474 32.7484 19.6444C33.9983 19.9414 35.0565 20.3931 35.9228 20.9995C36.7891 21.6059 37.4512 22.3732 37.9091 23.3014C38.367 24.2172 38.5959 25.3063 38.5959 26.5686C38.5959 27.6824 38.3422 28.7096 37.8348 29.6502C37.3398 30.5907 36.5539 31.358 35.4772 31.952C34.4129 32.5461 33.0207 32.874 31.3004 32.9359L29.6854 34.3653ZM29.4441 46.2274H21.2204L23.3924 41.8835H29.4441C30.4218 41.8835 31.22 41.7288 31.8388 41.4195C32.4576 41.0977 32.9155 40.6645 33.2125 40.12C33.5095 39.5755 33.658 38.9505 33.658 38.2451C33.658 37.453 33.5219 36.7662 33.2496 36.1845C32.9897 35.6029 32.569 35.1573 31.9873 34.848C31.4056 34.5262 30.6383 34.3653 29.6854 34.3653H24.3205L24.3577 30.5412H31.0406L32.3214 32.0449C33.9674 32.0201 35.2916 32.3109 36.294 32.9173C37.3089 33.5114 38.0452 34.2849 38.5031 35.2378C38.9734 36.1907 39.2085 37.2117 39.2085 38.3008C39.2085 40.0334 38.8311 41.4937 38.0761 42.6818C37.3212 43.8575 36.2136 44.7423 34.7533 45.3364C33.3053 45.9304 31.5356 46.2274 29.4441 46.2274Z" fill="black"/>
<path d="M29.6854 34.3653V36.2198H30.3882L30.9145 35.754L29.6854 34.3653ZM22.7426 34.3653L20.8882 34.3833L20.906 36.2198H22.7426V34.3653ZM22.7055 30.5412V28.6867H20.8329L20.8511 30.5592L22.7055 30.5412ZM31.0591 30.1514L31.7423 31.8755L31.7562 31.87L31.7701 31.8642L31.0591 30.1514ZM32.5256 28.9819L30.9656 27.979L30.9595 27.9887L32.5256 28.9819ZM32.5442 25.0464L30.9506 25.995L30.9589 26.0088L30.9673 26.0225L32.5442 25.0464ZM31.0777 23.914L30.4518 25.6598L30.4621 25.6634L31.0777 23.914ZM24.6733 23.5613V21.7068H22.8187V23.5613H24.6733ZM24.6733 46.2274V48.082H26.5278V46.2274H24.6733ZM19.1042 46.2274H17.2496V48.082H19.1042V46.2274ZM19.1042 19.1989V17.3443H17.2496V19.1989H19.1042ZM32.7484 19.6444L32.3156 21.4477L32.3197 21.4487L32.7484 19.6444ZM35.9228 20.9995L34.8593 22.5188L35.9228 20.9995ZM37.9091 23.3014L36.2459 24.1219L36.2503 24.1308L37.9091 23.3014ZM37.8348 29.6502L36.2026 28.7696L36.1981 28.778L36.1937 28.7864L37.8348 29.6502ZM35.4772 31.952L34.5813 30.3282L34.5734 30.3327L35.4772 31.952ZM31.3004 32.9359L31.2338 31.0826L30.5693 31.1065L30.0713 31.5472L31.3004 32.9359ZM21.2204 46.2274L19.5617 45.398L18.2197 48.082H21.2204V46.2274ZM23.3924 41.8835V40.029H22.2462L21.7336 41.0542L23.3924 41.8835ZM31.8388 41.4195L32.6682 43.0782L32.6813 43.0716L32.6944 43.0648L31.8388 41.4195ZM33.2496 36.1845L31.5564 36.9411L31.5631 36.956L31.57 36.9707L33.2496 36.1845ZM31.9873 34.848L31.0896 36.4707L31.1029 36.4781L31.1164 36.4853L31.9873 34.848ZM24.3205 34.3653L22.4661 34.3473L22.4479 36.2198H24.3205V34.3653ZM24.3577 30.5412V28.6867H22.521L22.5032 30.5232L24.3577 30.5412ZM31.0406 30.5412L32.4523 29.3386L31.897 28.6867H31.0406V30.5412ZM32.3214 32.0449L30.9097 33.2475L31.476 33.9123L32.3493 33.8992L32.3214 32.0449ZM36.294 32.9173L35.3341 34.5041L35.3456 34.5111L35.3572 34.5178L36.294 32.9173ZM38.5031 35.2378L36.8315 36.041L36.8357 36.0498L36.8401 36.0585L38.5031 35.2378ZM38.0761 42.6818L39.6367 43.6838L39.6414 43.6764L38.0761 42.6818ZM34.7533 45.3364L34.0545 43.6185L34.0494 43.6206L34.7533 45.3364ZM29.6854 32.5108H22.7426V36.2198H29.6854V32.5108ZM24.5971 34.3473L24.56 30.5232L20.8511 30.5592L20.8882 34.3833L24.5971 34.3473ZM22.7055 32.3958H28.5345V28.6867H22.7055V32.3958ZM28.5345 32.3958C29.6981 32.3958 30.7937 32.2514 31.7423 31.8755L30.376 28.4272C30.0127 28.5712 29.4252 28.6867 28.5345 28.6867V32.3958ZM31.7701 31.8642C32.7126 31.473 33.5307 30.8599 34.0918 29.9751L30.9595 27.9887C30.877 28.1187 30.7175 28.2852 30.3481 28.4385L31.7701 31.8642ZM34.0856 29.9847C34.6479 29.1102 34.8814 28.114 34.8814 27.0884H31.1723C31.1723 27.5478 31.0717 27.814 30.9656 27.979L34.0856 29.9847ZM34.8814 27.0884C34.8814 26.0269 34.6805 24.9739 34.1211 24.0702L30.9673 26.0225C31.0515 26.1584 31.1723 26.4668 31.1723 27.0884H34.8814ZM34.1378 24.0978C33.5693 23.1428 32.6976 22.518 31.6932 22.1646L30.4621 25.6634C30.7944 25.7803 30.9003 25.9105 30.9506 25.995L34.1378 24.0978ZM31.7035 22.1683C30.7738 21.8349 29.6928 21.7068 28.5345 21.7068V25.4158C29.4553 25.4158 30.0698 25.5228 30.4518 25.6598L31.7035 22.1683ZM28.5345 21.7068H24.6733V25.4158H28.5345V21.7068ZM22.8187 23.5613V46.2274H26.5278V23.5613H22.8187ZM24.6733 44.3729H19.1042V48.082H24.6733V44.3729ZM20.9587 46.2274V19.1989H17.2496V46.2274H20.9587ZM19.1042 21.0534H28.5345V17.3443H19.1042V21.0534ZM28.5345 21.0534C29.993 21.0534 31.2483 21.1916 32.3156 21.4477L33.1812 17.8411C31.7733 17.5032 30.2194 17.3443 28.5345 17.3443V21.0534ZM32.3197 21.4487C33.3895 21.7029 34.221 22.0721 34.8593 22.5188L36.9863 19.4802C35.8919 18.7142 34.6072 18.1799 33.1771 17.8401L32.3197 21.4487ZM34.8593 22.5188C35.4759 22.9505 35.9291 23.4796 36.2459 24.1219L39.5722 22.4809C38.9733 21.2668 38.1023 20.2614 36.9863 19.4802L34.8593 22.5188ZM36.2503 24.1308C36.553 24.7361 36.7414 25.5284 36.7414 26.5686H40.4505C40.4505 25.0842 40.181 23.6984 39.5678 22.472L36.2503 24.1308ZM36.7414 26.5686C36.7414 27.3885 36.5578 28.1112 36.2026 28.7696L39.467 30.5307C40.1266 29.308 40.4505 27.9764 40.4505 26.5686H36.7414ZM36.1937 28.7864C35.8927 29.3583 35.3917 29.8811 34.5814 30.3282L36.3731 33.5758C37.7161 32.8349 38.7869 31.8232 39.4759 30.5139L36.1937 28.7864ZM34.5734 30.3327C33.8493 30.7368 32.7739 31.0272 31.2338 31.0826L31.3671 34.7893C33.2674 34.7209 34.9766 34.3553 36.3811 33.5714L34.5734 30.3327ZM30.0713 31.5472L28.4563 32.9766L30.9145 35.754L32.5296 34.3246L30.0713 31.5472ZM29.4441 44.3729H21.2204V48.082H29.4441V44.3729ZM22.8792 47.0568L25.0511 42.7129L21.7336 41.0542L19.5617 45.398L22.8792 47.0568ZM23.3924 43.7381H29.4441V40.029H23.3924V43.7381ZM29.4441 43.7381C30.5983 43.7381 31.7079 43.5583 32.6682 43.0782L31.0094 39.7607C30.7321 39.8994 30.2453 40.029 29.4441 40.029V43.7381ZM32.6944 43.0648C33.5981 42.5949 34.3456 41.9155 34.8406 41.0081L31.5844 39.232C31.4853 39.4135 31.3171 39.6004 30.9832 39.7741L32.6944 43.0648ZM34.8406 41.0081C35.3056 40.1556 35.5126 39.2177 35.5126 38.2451H31.8035C31.8035 38.6833 31.7135 38.9953 31.5844 39.232L34.8406 41.0081ZM35.5126 38.2451C35.5126 37.2432 35.3404 36.2766 34.9293 35.3983L31.57 36.9707C31.7034 37.2558 31.8035 37.6628 31.8035 38.2451H35.5126ZM34.9428 35.428C34.5084 34.4557 33.791 33.7068 32.8582 33.2106L31.1164 36.4853C31.347 36.6079 31.471 36.75 31.5564 36.9411L34.9428 35.428ZM32.885 33.2252C31.935 32.6996 30.8246 32.5108 29.6854 32.5108V36.2198C30.4521 36.2198 30.8762 36.3527 31.0896 36.4707L32.885 33.2252ZM29.6854 32.5108H24.3205V36.2198H29.6854V32.5108ZM26.175 34.3833L26.2121 30.5592L22.5032 30.5232L22.4661 34.3473L26.175 34.3833ZM24.3577 32.3958H31.0406V28.6867H24.3577V32.3958ZM29.6288 31.7438L30.9097 33.2475L33.7332 30.8422L32.4523 29.3386L29.6288 31.7438ZM32.3493 33.8992C33.7821 33.8776 34.7267 34.1367 35.3341 34.5041L37.254 31.3305C35.8565 30.4852 34.1527 30.1626 32.2936 30.1905L32.3493 33.8992ZM35.3572 34.5178C36.0903 34.947 36.5513 35.4579 36.8315 36.041L40.1747 34.4346C39.5391 33.1118 38.5274 32.0757 37.2309 31.3168L35.3572 34.5178ZM36.8401 36.0585C37.1812 36.7497 37.354 37.489 37.354 38.3008H41.0631C41.0631 36.9344 40.7656 35.6317 40.1662 34.4171L36.8401 36.0585ZM37.354 38.3008C37.354 39.7626 37.0375 40.8584 36.5109 41.6872L39.6414 43.6764C40.6247 42.129 41.0631 40.3042 41.0631 38.3008H37.354ZM36.5156 41.6797C35.9932 42.4933 35.2079 43.1493 34.0545 43.6185L35.4521 47.0542C37.2193 46.3354 38.6492 45.2217 39.6367 43.6838L36.5156 41.6797ZM34.0494 43.6206C32.8862 44.0978 31.3708 44.3729 29.4441 44.3729V48.082C31.7004 48.082 33.7245 47.763 35.4572 47.0521L34.0494 43.6206Z" fill="white"/>
<path d="M14.9749 30.9992V9.98437H21.2023V30.9992C21.2023 33.0264 20.758 34.769 19.8694 36.2269C18.9807 37.6709 17.7658 38.7817 16.2246 39.5593C14.6972 40.3369 12.9755 40.7256 11.0594 40.7256C9.07381 40.7256 7.31736 40.3924 5.79002 39.7259C4.26268 39.0594 3.06163 38.0389 2.18688 36.6643C1.31213 35.2758 0.874751 33.5193 0.874751 31.3949H7.1438C7.1438 32.5057 7.29654 33.3874 7.60201 34.04C7.92136 34.6926 8.37262 35.1578 8.95579 35.4355C9.53896 35.7132 10.2401 35.852 11.0594 35.852C11.8508 35.852 12.5381 35.6646 13.1213 35.2897C13.7044 34.9148 14.1557 34.3663 14.4751 33.6443C14.8083 32.9223 14.9749 32.0406 14.9749 30.9992Z" fill="black"/>
<path d="M14.9749 9.98437V8.12982H13.1204V9.98437H14.9749ZM21.2023 9.98437H23.0569V8.12982H21.2023V9.98437ZM19.8694 36.2269L21.4488 37.1989L21.4529 37.1921L19.8694 36.2269ZM16.2246 39.5593L15.3892 37.9035L15.3832 37.9066L16.2246 39.5593ZM2.18688 36.6643L0.617747 37.6528L0.62227 37.6599L2.18688 36.6643ZM0.874751 31.3949V29.5404H-0.979794V31.3949H0.874751ZM7.1438 31.3949H8.99835V29.5404H7.1438V31.3949ZM7.60201 34.04L5.92236 34.8262L5.92917 34.8408L5.93622 34.8552L7.60201 34.04ZM14.4751 33.6443L12.7912 32.8671L12.785 32.8806L12.779 32.8941L14.4751 33.6443ZM16.8295 30.9992V9.98437H13.1204V30.9992H16.8295ZM14.9749 11.8389H21.2023V8.12982H14.9749V11.8389ZM19.3478 9.98437V30.9992H23.0569V9.98437H19.3478ZM19.3478 30.9992C19.3478 32.7503 18.9664 34.145 18.2858 35.2617L21.4529 37.1921C22.5495 35.393 23.0569 33.3026 23.0569 30.9992H19.3478ZM18.2899 35.2549C17.5846 36.401 16.6298 37.2777 15.3892 37.9035L17.0599 41.2151C18.9018 40.2858 20.3768 38.9409 21.4488 37.1989L18.2899 35.2549ZM15.3832 37.9066C14.1459 38.5365 12.718 38.8711 11.0594 38.8711V42.5802C13.233 42.5802 15.2485 42.1372 17.0659 41.212L15.3832 37.9066ZM11.0594 38.8711C9.281 38.8711 7.78476 38.5729 6.53174 38.0261L5.04831 41.4257C6.84997 42.2119 8.86662 42.5802 11.0594 42.5802V38.8711ZM6.53174 38.0261C5.33445 37.5037 4.42337 36.7244 3.75149 35.6686L0.62227 37.6599C1.69989 39.3534 3.1909 40.6152 5.04831 41.4257L6.53174 38.0261ZM3.75599 35.6757C3.11527 34.6587 2.7293 33.2709 2.7293 31.3949H-0.979794C-0.979794 33.7677 -0.491017 35.8929 0.617763 37.6528L3.75599 35.6757ZM0.874751 33.2495H7.1438V29.5404H0.874751V33.2495ZM5.28926 31.3949C5.28926 32.6447 5.45626 33.8305 5.92236 34.8262L9.28165 33.2538C9.13681 32.9444 8.99835 32.3667 8.99835 31.3949H5.28926ZM5.93622 34.8552C6.41543 35.8345 7.15005 36.6297 8.15846 37.1099L9.75312 33.7611C9.59519 33.6859 9.42729 33.5508 9.26779 33.2249L5.93622 34.8552ZM8.15846 37.1099C9.04823 37.5336 10.036 37.7066 11.0594 37.7066V33.9975C10.4443 33.9975 10.0297 33.8928 9.75312 33.7611L8.15846 37.1099ZM11.0594 37.7066C12.1547 37.7066 13.2011 37.443 14.1241 36.8497L12.1184 33.7297C11.8751 33.8861 11.5469 33.9975 11.0594 33.9975V37.7066ZM14.1241 36.8497C15.0535 36.2522 15.7259 35.401 16.1711 34.3945L12.779 32.8941C12.5855 33.3316 12.3553 33.5774 12.1184 33.7297L14.1241 36.8497ZM16.1589 34.4215C16.6337 33.3927 16.8295 32.2295 16.8295 30.9992H13.1204C13.1204 31.8517 12.9829 32.4519 12.7912 32.8671L16.1589 34.4215Z" fill="white"/>
</svg>
