<svg width="315" height="266" viewBox="0 0 315 266" fill="none" xmlns="http://www.w3.org/2000/svg">
<path d="M268.224 239.562C206.862 274.813 107.38 274.813 46.0184 239.562C-15.343 204.312 -15.336 147.169 46.0184 111.926C107.373 76.683 206.869 76.683 268.224 111.926C329.578 147.169 329.585 204.319 268.224 239.562Z" fill="#FAFAFA"/>
<path d="M175.044 175.744C162.15 168.304 141.247 168.304 128.353 175.744C117.424 182.062 115.768 191.685 123.362 199.013C122.933 199.125 122.52 199.293 122.134 199.511L81.423 223.025C79.6963 224.022 79.6963 225.643 81.423 226.64L83.9779 228.114C84.9369 228.602 86.0028 228.841 87.0782 228.81C88.1535 228.78 89.2041 228.48 90.1337 227.939L128.037 203.112C128.192 203.01 128.338 202.895 128.472 202.768C141.374 210.145 162.164 210.124 175.037 202.705C187.91 195.286 187.974 183.192 175.044 175.744Z" fill="#E6E6E6"/>
<path d="M265.676 148.671L213.79 178.692C213.143 179.021 212.428 179.192 211.702 179.192C210.976 179.192 210.261 179.021 209.614 178.692L119.355 126.575C118.203 125.915 118.203 124.834 119.355 124.168L171.24 94.1467C171.887 93.8181 172.603 93.6468 173.328 93.6468C174.054 93.6468 174.769 93.8181 175.416 94.1467L265.676 146.264C266.827 146.924 266.827 148.005 265.676 148.671Z" fill="#E6E6E6"/>
<path d="M34.6263 205.449L20.7494 197.433C19.0718 196.465 19.0718 194.892 20.7494 193.924L117.312 138.171C118.254 137.693 119.295 137.444 120.351 137.444C121.407 137.444 122.449 137.693 123.39 138.171L137.274 146.187C138.952 147.155 138.952 148.728 137.274 149.696L40.7048 205.449C39.763 205.927 38.7217 206.176 37.6655 206.176C36.6094 206.176 35.5681 205.927 34.6263 205.449Z" fill="#E6E6E6"/>
<path d="M265.816 221.383C279.977 221.383 291.457 215.11 291.457 207.373C291.457 199.635 279.977 193.362 265.816 193.362C251.655 193.362 240.175 199.635 240.175 207.373C240.175 215.11 251.655 221.383 265.816 221.383Z" fill="#E6E6E6"/>
<path d="M277.04 193.461C277.285 190.351 280.051 184.097 283.603 180.321C287.154 176.544 292.454 174.003 295.956 175.527C299.22 176.93 298.504 181.317 294.195 183.901C289.885 186.484 283.483 189.663 281.286 194.556L277.04 200.438V193.461Z" fill="#367C3C"/>
<path opacity="0.1" d="M277.04 193.461C277.285 190.351 280.051 184.097 283.603 180.321C287.154 176.544 292.454 174.003 295.956 175.527C299.22 176.93 298.504 181.317 294.195 183.901C289.885 186.484 283.483 189.663 281.286 194.556L277.04 200.438V193.461Z" fill="black"/>
<path d="M276.464 197.693C276.515 197.694 276.564 197.677 276.605 197.647C276.645 197.616 276.675 197.574 276.689 197.525C279.623 187.087 288.895 179.156 294.18 177.668C294.233 177.646 294.275 177.605 294.299 177.554C294.324 177.503 294.329 177.445 294.313 177.39C294.298 177.336 294.263 177.289 294.215 177.259C294.167 177.228 294.11 177.216 294.054 177.225C288.67 178.748 279.223 186.806 276.247 197.405C276.238 197.434 276.236 197.465 276.239 197.495C276.243 197.525 276.252 197.554 276.267 197.58C276.283 197.606 276.303 197.629 276.327 197.647C276.351 197.666 276.379 197.679 276.408 197.686L276.464 197.693Z" fill="white"/>
<path d="M277.503 204.579C278.142 202.873 280.507 200.164 284.15 198.058C288.179 195.735 293.107 194.914 294.384 192.948C295.921 190.597 294.033 188.105 290.067 188.273C286.102 188.442 278.788 193.236 277.04 201.203L277.503 204.579Z" fill="#367C3C"/>
<path d="M276.892 202.712C276.936 202.712 276.978 202.7 277.015 202.676C277.051 202.653 277.079 202.618 277.096 202.578C281.083 193.755 288.27 191.123 291.513 190.962C291.573 190.962 291.63 190.938 291.672 190.896C291.714 190.854 291.738 190.797 291.738 190.737C291.738 190.678 291.714 190.62 291.672 190.578C291.63 190.536 291.573 190.513 291.513 190.513C287.927 190.688 280.774 193.383 276.703 202.389C276.69 202.417 276.683 202.446 276.682 202.477C276.682 202.507 276.687 202.537 276.698 202.565C276.709 202.594 276.726 202.619 276.747 202.641C276.769 202.662 276.794 202.679 276.822 202.691C276.844 202.702 276.868 202.709 276.892 202.712Z" fill="white"/>
<path d="M21.8937 176.13C21.8937 176.13 21.1918 169.68 17.949 164.668C14.7061 159.656 10.3262 156.54 6.21293 156.21C2.09971 155.88 -1.22034 159.67 3.18066 162.275C7.58167 164.879 15.401 167.525 19.0018 177.246L21.8937 176.13Z" fill="#367C3C"/>
<path opacity="0.1" d="M21.8937 176.13C21.8937 176.13 21.1918 169.68 17.949 164.668C14.7061 159.656 10.3262 156.54 6.21293 156.21C2.09971 155.88 -1.22034 159.67 3.18066 162.275C7.58167 164.879 15.401 167.525 19.0018 177.246L21.8937 176.13Z" fill="black"/>
<path d="M20.6863 174.453H20.7284C20.7554 174.442 20.7799 174.426 20.8006 174.406C20.8212 174.385 20.8376 174.361 20.8487 174.334C20.8599 174.307 20.8655 174.278 20.8653 174.249C20.8652 174.22 20.8592 174.192 20.8477 174.165C16.5099 163.468 8.21327 159.004 4.47909 158.133C4.42437 158.127 4.36943 158.142 4.32471 158.174C4.27999 158.206 4.24859 158.253 4.23647 158.307C4.22435 158.361 4.23236 158.417 4.25896 158.465C4.28557 158.513 4.32893 158.55 4.38082 158.568C8.06587 159.411 16.166 163.805 20.4406 174.326C20.4617 174.372 20.4972 174.409 20.5417 174.432C20.5863 174.455 20.6371 174.462 20.6863 174.453Z" fill="white"/>
<path d="M0.948574 174.397C1.34867 175.295 2.3524 175.758 3.2298 176.123C4.17782 176.38 5.01444 176.942 5.60929 177.724C6.59899 179.429 4.97757 181.83 6.03746 183.486C6.28607 183.822 6.60152 184.103 6.96394 184.31C7.32635 184.518 7.72787 184.649 8.1432 184.694C8.82266 184.792 9.50678 184.855 10.1928 184.883C10.5192 184.875 10.8449 184.849 11.1685 184.806C12.112 184.594 13.0992 184.7 13.9761 185.108C15.3308 185.866 15.7449 187.579 16.5662 188.898C17.0768 189.676 17.7494 190.335 18.538 190.829C19.3267 191.324 20.2127 191.642 21.1356 191.762C21.9216 191.921 22.7356 191.868 23.4941 191.608L23.6274 191.523C23.7129 191.432 23.7926 191.336 23.8661 191.236V191.193C24.1047 190.309 23.7117 189.389 23.6976 188.477V188.309C23.6976 187.249 23.7678 186.203 23.7889 185.136C23.8357 183.185 23.8544 181.233 23.845 179.282C23.845 178.018 23.9854 176.629 23.452 175.435C22.8553 174.123 21.3813 174.095 20.8268 172.803C20.6022 172.291 20.4829 171.743 20.2653 171.224C19.9309 170.464 19.3938 169.81 18.713 169.335C18.0321 168.86 17.2335 168.581 16.4047 168.529C13.8217 168.395 11.4913 170.48 8.93637 170.29C8.27285 170.201 7.61448 170.077 6.96398 169.918C4.85824 169.525 2.46471 170.122 1.29251 171.884C1.03396 172.242 0.8674 172.659 0.807434 173.097C0.747468 173.535 0.795931 173.982 0.948574 174.397Z" fill="#367C3C"/>
<path d="M24.1046 187.143C24.1327 187.137 24.1593 187.125 24.1826 187.108C24.2058 187.09 24.2253 187.069 24.2398 187.044C24.2543 187.019 24.2635 186.991 24.2668 186.962C24.2701 186.933 24.2674 186.904 24.259 186.877C20.7143 173.512 6.64092 171.589 3.37 171.821C3.3414 171.822 3.31344 171.83 3.28772 171.842C3.26199 171.855 3.23902 171.873 3.2201 171.894C3.20119 171.916 3.18671 171.941 3.17751 171.968C3.1683 171.995 3.16453 172.024 3.16644 172.052C3.16248 172.082 3.16476 172.111 3.17311 172.14C3.18146 172.168 3.19571 172.194 3.21491 172.217C3.23412 172.239 3.25786 172.258 3.28458 172.27C3.3113 172.283 3.34041 172.29 3.37 172.291C6.59178 172.059 20.3634 173.947 23.8449 187.031C23.8676 187.078 23.9063 187.115 23.954 187.135C24.0016 187.156 24.055 187.159 24.1046 187.143Z" fill="white"/>
<path d="M8.46603 180.377C8.51134 180.369 8.553 180.347 8.58536 180.314C9.88471 179.188 11.4165 178.363 13.0714 177.897C14.7263 177.431 16.4636 177.336 18.1595 177.618C18.2178 177.625 18.2762 177.609 18.3231 177.573C18.37 177.538 18.4018 177.487 18.4122 177.429C18.4161 177.4 18.4143 177.371 18.4069 177.343C18.3994 177.315 18.3865 177.289 18.3689 177.266C18.3512 177.243 18.3292 177.224 18.3041 177.21C18.279 177.196 18.2513 177.187 18.2226 177.183C16.4599 176.894 14.655 176.998 12.937 177.487C11.2189 177.976 9.62994 178.838 8.28353 180.012C8.26316 180.032 8.24699 180.056 8.23595 180.083C8.22492 180.109 8.21924 180.138 8.21924 180.166C8.21924 180.195 8.22492 180.223 8.23595 180.25C8.24699 180.276 8.26316 180.301 8.28353 180.321C8.30821 180.343 8.33726 180.359 8.36873 180.369C8.40019 180.378 8.43337 180.381 8.46603 180.377Z" fill="white"/>
<path d="M263.78 138.95L213.65 167.96C213.024 168.275 212.332 168.439 211.632 168.439C210.931 168.439 210.24 168.275 209.614 167.96L122.366 117.598C121.25 116.959 121.25 115.913 122.366 115.274L172.531 86.2571C173.156 85.9424 173.846 85.7784 174.546 85.7784C175.246 85.7784 175.936 85.9424 176.56 86.2571L263.78 136.62C264.861 137.265 264.861 138.304 263.78 138.95Z" fill="#37474F"/>
<path d="M236.96 152.251C236.09 152.693 235.128 152.924 234.153 152.924C233.177 152.924 232.215 152.693 231.345 152.251C229.801 151.36 229.801 149.914 231.345 149.022C232.214 148.577 233.176 148.345 234.153 148.345C235.129 148.345 236.091 148.577 236.96 149.022C238.511 149.914 238.511 151.36 236.96 152.251Z" fill="#263238"/>
<path d="M213.615 167.96L263.781 138.95C264.777 138.374 264.883 137.476 264.096 136.844C264.595 137.238 265.005 137.734 265.299 138.297C265.593 138.861 265.764 139.48 265.802 140.115V142.01C265.766 142.713 265.564 143.398 265.213 144.008C264.862 144.618 264.371 145.136 263.781 145.52L213.65 174.53C213.03 174.86 212.337 175.026 211.635 175.014V168.465C212.327 168.465 213.008 168.291 213.615 167.96Z" fill="#455A64"/>
<path d="M122.366 124.154C121.777 123.769 121.287 123.251 120.937 122.641C120.587 122.031 120.386 121.346 120.351 120.644V118.749C120.388 118.113 120.559 117.492 120.853 116.927C121.147 116.362 121.557 115.866 122.057 115.471C121.271 116.117 121.355 117.008 122.366 117.577L209.578 167.939C210.2 168.27 210.896 168.436 211.6 168.423V174.972C210.896 174.985 210.2 174.819 209.578 174.488L122.366 124.154Z" fill="#263238"/>
<path d="M205.241 161.881L252.529 134.507C252.678 134.459 252.807 134.365 252.899 134.239C252.992 134.113 253.041 133.961 253.041 133.805C253.041 133.649 252.992 133.497 252.899 133.37C252.807 133.244 252.678 133.151 252.529 133.103L182.632 92.6726C182.258 92.4822 181.845 92.3829 181.425 92.3829C181.005 92.3829 180.592 92.4822 180.218 92.6726L132.909 120.047C132.76 120.095 132.63 120.189 132.538 120.315C132.446 120.441 132.396 120.593 132.396 120.749C132.396 120.905 132.446 121.058 132.538 121.184C132.63 121.31 132.76 121.404 132.909 121.451L202.819 161.881C203.194 162.072 203.609 162.171 204.03 162.171C204.451 162.171 204.866 162.072 205.241 161.881Z" fill="#FAFAFA"/>
<path d="M140.243 121.29L162.831 134.387C163.302 134.626 163.823 134.75 164.351 134.75C164.879 134.75 165.399 134.626 165.87 134.387L205.599 111.456C205.782 111.394 205.941 111.276 206.054 111.118C206.167 110.961 206.227 110.772 206.227 110.578C206.227 110.385 206.167 110.196 206.054 110.039C205.941 109.881 205.782 109.763 205.599 109.701L182.983 96.6314C182.512 96.3928 181.991 96.2684 181.463 96.2684C180.935 96.2684 180.415 96.3928 179.944 96.6314L140.243 119.535C140.06 119.597 139.901 119.715 139.788 119.873C139.675 120.03 139.615 120.219 139.615 120.412C139.615 120.606 139.675 120.795 139.788 120.952C139.901 121.109 140.06 121.227 140.243 121.29Z" fill="#EBEBEB"/>
<path d="M156.83 115.05L162.628 116.18C162.99 116.255 163.366 116.221 163.708 116.082L168.622 113.976C169.401 113.639 170.51 113.976 170.496 114.53L170.419 118.04C170.419 118.264 170.601 118.475 170.917 118.608L175.915 120.651C176.708 120.974 176.518 121.683 175.585 121.851L169.724 122.911C169.57 122.926 169.422 122.973 169.289 123.051C169.155 123.129 169.04 123.234 168.952 123.36L167.134 126.737C166.839 127.27 165.611 127.382 165.028 126.926L161.518 124.041C161.237 123.838 160.896 123.737 160.55 123.753L154.422 123.796C153.446 123.796 152.885 123.164 153.468 122.715L157.132 119.907C157.184 119.877 157.23 119.837 157.266 119.79C157.303 119.742 157.33 119.688 157.346 119.63C157.361 119.572 157.365 119.511 157.357 119.451C157.35 119.392 157.33 119.334 157.3 119.282L155.335 115.934C155.026 115.373 155.903 114.867 156.83 115.05Z" fill="#FAFAFA"/>
<path d="M169.724 107.652L182.162 100.471C182.406 100.327 182.68 100.242 182.963 100.223C183.245 100.203 183.529 100.25 183.79 100.359C184.183 100.59 184.092 101.011 183.594 101.299L171.163 108.48C170.918 108.622 170.644 108.705 170.362 108.725C170.079 108.744 169.796 108.699 169.534 108.592C169.141 108.36 169.232 107.939 169.724 107.652Z" fill="#FAFAFA"/>
<path d="M172.868 109.462L185.299 102.282C185.543 102.138 185.818 102.053 186.1 102.033C186.383 102.014 186.666 102.061 186.928 102.17C187.321 102.401 187.237 102.822 186.731 103.11L174.3 110.291C174.056 110.433 173.781 110.516 173.499 110.536C173.217 110.555 172.934 110.51 172.672 110.403C172.272 110.171 172.363 109.75 172.868 109.462Z" fill="#FAFAFA"/>
<path d="M175.999 111.273L188.43 104.093C188.673 103.947 188.948 103.861 189.231 103.842C189.514 103.822 189.797 103.87 190.058 103.98C190.459 104.212 190.367 104.633 189.862 104.921L177.445 112.102C177.2 112.243 176.926 112.327 176.644 112.347C176.362 112.366 176.079 112.321 175.817 112.214C175.409 111.982 175.494 111.561 175.999 111.273Z" fill="#FAFAFA"/>
<path d="M179.129 113.077L191.567 105.904C191.81 105.758 192.083 105.672 192.365 105.653C192.646 105.633 192.929 105.681 193.189 105.791C193.589 106.016 193.498 106.437 192.999 106.732L180.561 113.906C180.318 114.051 180.044 114.137 179.761 114.156C179.478 114.176 179.194 114.129 178.933 114.018C178.54 113.793 178.631 113.372 179.129 113.077Z" fill="#FAFAFA"/>
<path d="M182.267 114.888L194.698 107.715C194.942 107.569 195.216 107.483 195.499 107.464C195.782 107.444 196.065 107.492 196.327 107.602C196.72 107.827 196.635 108.248 196.13 108.543L183.699 115.717C183.456 115.862 183.181 115.948 182.898 115.967C182.615 115.987 182.332 115.939 182.071 115.829C181.657 115.604 181.762 115.183 182.267 114.888Z" fill="#FAFAFA"/>
<path d="M185.398 116.699L197.801 109.526C198.044 109.38 198.318 109.294 198.601 109.275C198.884 109.255 199.168 109.303 199.429 109.413C199.822 109.638 199.738 110.059 199.232 110.354L186.83 117.541C186.586 117.687 186.312 117.773 186.029 117.792C185.746 117.812 185.462 117.764 185.201 117.654C184.808 117.415 184.892 116.994 185.398 116.699Z" fill="#FAFAFA"/>
<path d="M168.117 137.406L169.141 138.002C169.425 138.144 169.737 138.218 170.054 138.218C170.371 138.218 170.683 138.144 170.966 138.002L194.831 124.238C195.337 123.943 195.337 123.473 194.831 123.185L193.8 122.588C193.516 122.446 193.204 122.372 192.887 122.372C192.57 122.372 192.258 122.446 191.975 122.588L168.11 136.353C167.999 136.39 167.903 136.461 167.836 136.556C167.768 136.651 167.732 136.765 167.733 136.882C167.733 136.998 167.771 137.112 167.84 137.206C167.909 137.3 168.006 137.37 168.117 137.406Z" fill="#E0E0E0"/>
<path d="M210.884 112.712L211.909 113.309C212.414 113.597 212.414 114.067 211.909 114.362L202.328 119.893C202.045 120.035 201.732 120.109 201.415 120.109C201.099 120.109 200.786 120.035 200.503 119.893L199.478 119.296C198.973 119.008 198.973 118.538 199.478 118.243L209.031 112.712C209.318 112.566 209.636 112.489 209.958 112.489C210.28 112.489 210.597 112.566 210.884 112.712Z" fill="#E0E0E0"/>
<path d="M174.455 141.049L197.099 154.111C197.57 154.35 198.09 154.474 198.618 154.474C199.146 154.474 199.667 154.35 200.138 154.111L239.866 131.18C240.05 131.117 240.209 130.999 240.322 130.842C240.434 130.685 240.495 130.496 240.495 130.302C240.495 130.109 240.434 129.92 240.322 129.763C240.209 129.605 240.05 129.487 239.866 129.425L217.251 116.355C216.78 116.117 216.259 115.992 215.731 115.992C215.203 115.992 214.682 116.117 214.211 116.355L174.455 139.301C174.274 139.365 174.117 139.483 174.006 139.639C173.896 139.796 173.836 139.983 173.836 140.175C173.836 140.367 173.896 140.554 174.006 140.71C174.117 140.867 174.274 140.985 174.455 141.049Z" fill="#EBEBEB"/>
<path d="M191.062 134.802L196.867 135.939C197.229 136.014 197.605 135.979 197.948 135.84L202.861 133.735C203.647 133.398 204.756 133.735 204.742 134.282L204.665 137.792C204.665 138.016 204.841 138.227 205.156 138.353L210.161 140.396C210.954 140.726 210.758 141.435 209.831 141.603L203.977 142.649C203.824 142.665 203.676 142.714 203.543 142.791C203.41 142.869 203.295 142.973 203.205 143.098L201.387 146.474C201.099 147.008 199.871 147.12 199.281 146.664L195.772 143.779C195.488 143.576 195.145 143.475 194.796 143.491L188.668 143.533C187.7 143.533 187.131 142.902 187.714 142.452L191.378 139.645C191.482 139.583 191.558 139.484 191.591 139.368C191.623 139.251 191.61 139.127 191.553 139.02L189.581 135.672C189.265 135.131 190.143 134.626 191.062 134.802Z" fill="#FAFAFA"/>
<path d="M203.97 127.41L216.401 120.23C216.645 120.086 216.92 120.001 217.202 119.981C217.485 119.962 217.768 120.009 218.03 120.118C218.43 120.349 218.339 120.77 217.833 121.058L205.402 128.239C205.157 128.38 204.883 128.464 204.601 128.484C204.319 128.503 204.036 128.458 203.774 128.351C203.416 128.119 203.465 127.698 203.97 127.41Z" fill="#FAFAFA"/>
<path d="M207.101 129.221L219.56 122.041C219.804 121.897 220.078 121.812 220.361 121.792C220.643 121.773 220.927 121.819 221.188 121.928C221.581 122.16 221.49 122.581 220.992 122.869L208.554 130.05C208.311 130.195 208.037 130.282 207.754 130.304C207.472 130.326 207.188 130.282 206.925 130.176C206.511 129.93 206.602 129.509 207.101 129.221Z" fill="#FAFAFA"/>
<path d="M210.238 131.025L222.669 123.859C222.913 123.713 223.187 123.627 223.47 123.608C223.753 123.588 224.037 123.636 224.298 123.746C224.691 123.971 224.607 124.392 224.101 124.687L211.67 131.861C211.425 132.002 211.151 132.086 210.869 132.106C210.587 132.125 210.304 132.08 210.042 131.973C209.642 131.741 209.733 131.32 210.238 131.025Z" fill="#FAFAFA"/>
<path d="M213.369 132.836L225.8 125.663C226.043 125.517 226.318 125.431 226.601 125.412C226.884 125.392 227.167 125.44 227.428 125.55C227.828 125.775 227.737 126.196 227.232 126.491L214.801 133.686C214.557 133.831 214.283 133.917 214 133.936C213.717 133.956 213.434 133.908 213.172 133.798C212.779 133.552 212.864 133.131 213.369 132.836Z" fill="#FAFAFA"/>
<path d="M216.499 134.647L228.937 127.474C229.179 127.328 229.453 127.242 229.734 127.223C230.016 127.203 230.299 127.251 230.559 127.361C230.959 127.586 230.868 128.007 230.369 128.302L217.931 135.475C217.688 135.621 217.413 135.707 217.13 135.726C216.848 135.746 216.564 135.698 216.303 135.588C215.91 135.363 216.001 134.942 216.499 134.647Z" fill="#FAFAFA"/>
<path d="M219.637 136.493L232.068 129.32C232.311 129.174 232.586 129.088 232.869 129.069C233.152 129.049 233.435 129.097 233.696 129.207C234.089 129.432 234.005 129.853 233.5 130.148L221.069 137.321C220.825 137.467 220.551 137.553 220.268 137.572C219.985 137.592 219.702 137.544 219.44 137.434C219.04 137.195 219.132 136.753 219.637 136.493Z" fill="#FAFAFA"/>
<path d="M202.349 157.165L203.381 157.761C203.664 157.903 203.976 157.977 204.293 157.977C204.61 157.977 204.922 157.903 205.206 157.761L229.071 143.997C229.181 143.96 229.278 143.889 229.346 143.795C229.414 143.7 229.451 143.587 229.451 143.47C229.451 143.354 229.414 143.24 229.346 143.146C229.278 143.051 229.181 142.98 229.071 142.944L228.039 142.347C227.756 142.205 227.443 142.131 227.126 142.131C226.81 142.131 226.497 142.205 226.214 142.347L202.349 156.112C202.238 156.148 202.142 156.219 202.074 156.313C202.005 156.408 201.969 156.522 201.969 156.638C201.969 156.755 202.005 156.868 202.074 156.963C202.142 157.057 202.238 157.128 202.349 157.165Z" fill="#E0E0E0"/>
<path d="M245.116 132.471L246.148 133.068C246.654 133.356 246.654 133.826 246.148 134.121L236.567 139.652C236.284 139.794 235.972 139.868 235.655 139.868C235.338 139.868 235.025 139.794 234.742 139.652L233.71 139.055C233.6 139.019 233.503 138.948 233.435 138.853C233.367 138.759 233.33 138.645 233.33 138.529C233.33 138.412 233.367 138.299 233.435 138.204C233.503 138.11 233.6 138.039 233.71 138.002L243.299 132.471C243.581 132.329 243.892 132.255 244.208 132.255C244.523 132.255 244.835 132.329 245.116 132.471Z" fill="#E0E0E0"/>
<path d="M151.671 102.935C151.478 103.029 151.267 103.078 151.053 103.078C150.839 103.078 150.628 103.029 150.435 102.935C150.363 102.909 150.3 102.862 150.255 102.799C150.211 102.736 150.187 102.661 150.187 102.584C150.187 102.507 150.211 102.432 150.255 102.369C150.3 102.306 150.363 102.258 150.435 102.233C150.628 102.139 150.839 102.09 151.053 102.09C151.267 102.09 151.478 102.139 151.671 102.233C152.015 102.422 152.015 102.738 151.671 102.935Z" fill="#263238"/>
<path d="M149.698 108.543C149.315 108.737 148.892 108.838 148.463 108.838C148.034 108.838 147.61 108.737 147.227 108.543C147.088 108.486 146.969 108.389 146.885 108.264C146.8 108.139 146.756 107.992 146.756 107.841C146.756 107.69 146.8 107.543 146.885 107.418C146.969 107.293 147.088 107.196 147.227 107.139C147.61 106.945 148.034 106.845 148.463 106.845C148.892 106.845 149.315 106.945 149.698 107.139C149.838 107.196 149.957 107.293 150.041 107.418C150.125 107.543 150.17 107.69 150.17 107.841C150.17 107.992 150.125 108.139 150.041 108.264C149.957 108.389 149.838 108.486 149.698 108.543Z" fill="#263238"/>
<path d="M151.474 106.058C151.018 105.791 151.046 105.356 151.53 105.075L159.658 100.38C159.922 100.245 160.215 100.174 160.511 100.174C160.808 100.174 161.1 100.245 161.364 100.38C161.813 100.639 161.792 101.082 161.308 101.362L153.18 106.051C152.916 106.186 152.624 106.256 152.328 106.257C152.031 106.259 151.739 106.19 151.474 106.058Z" fill="#263238"/>
<path d="M131.757 37.3898V39.0393L126.058 42.3313L117.508 47.2447L42.0385 90.8687C41.5913 91.1493 41.222 91.5379 40.9646 91.9988C40.6872 92.4521 40.5324 92.9697 40.5153 93.5009V193.805C40.5153 199.258 36.6829 201.469 31.966 198.718C27.2491 195.966 23.4097 189.361 23.4097 183.908V83.5969C23.4389 83.0693 23.592 82.5561 23.8566 82.0987C24.1213 81.6414 24.49 81.2529 24.9328 80.9647L108.945 32.4554L117.08 27.7666C117.352 28.2241 117.502 28.7437 117.515 29.2757V30.8059L27.7826 82.7476C27.3615 83.009 27.0118 83.3707 26.7648 83.8004C26.458 84.2717 26.2857 84.8178 26.2665 85.3797V185.55C26.2665 189.186 28.8214 193.601 31.973 195.419C35.1246 197.237 37.6726 195.763 37.6726 192.127V91.8233C37.697 91.2979 37.8451 90.7856 38.1049 90.3282C38.3647 89.8708 38.7288 89.4812 39.1677 89.1911L131.315 35.986C131.58 36.4085 131.732 36.8918 131.757 37.3898Z" fill="#E0E0E0"/>
<path d="M123.201 32.5607V37.3898L36.3602 87.5487C35.914 87.8324 35.541 88.2173 35.2714 88.6722C35.0019 89.1271 34.8435 89.6392 34.809 90.1668V190.47C34.809 192.288 33.5385 193.025 31.9662 192.113C31.1383 191.576 30.4487 190.851 29.9536 189.997C29.4584 189.143 29.1716 188.185 29.1165 187.2V86.8889C29.1345 86.3588 29.2867 85.8421 29.5587 85.3868C29.8203 84.929 30.1888 84.5413 30.6326 84.2567L122.773 31.0586C123.04 31.5153 123.187 32.0319 123.201 32.5607Z" fill="#E0E0E0"/>
<path d="M43.8075 93.6202C43.5346 94.0726 43.3824 94.5873 43.3653 95.1153V194.556C43.3667 195.279 43.3198 196.001 43.2249 196.717C43.1968 196.905 43.1687 197.087 43.1407 197.265C43.1407 197.433 43.0775 197.595 43.0424 197.763C43.0073 197.932 42.9722 198.058 42.9301 198.199C42.888 198.339 42.8599 198.472 42.8178 198.606C42.3528 200.314 41.2597 201.783 39.7574 202.719C37.7149 203.891 34.9774 203.751 31.9662 202.017C25.6489 198.381 20.5601 189.144 20.5601 181.395V81.9474C20.5772 81.4194 20.7294 80.9046 21.0023 80.4523L23.8591 82.0948C23.5817 82.5481 23.4269 83.0657 23.4098 83.5969V183.901C23.4098 189.354 27.2423 195.988 31.9662 198.711C36.6901 201.434 40.5155 199.23 40.5155 193.798V93.4728C40.5326 92.9417 40.6874 92.4241 40.9647 91.9707L43.8075 93.6202Z" fill="#EBEBEB"/>
<path d="M38.1078 90.3283C37.8359 90.781 37.6837 91.2955 37.6656 91.8233V192.127C37.6656 195.763 35.1107 197.237 31.9661 195.419C28.8215 193.601 26.2595 189.186 26.2595 185.55V85.3517C26.2788 84.7897 26.4511 84.2436 26.7579 83.7724L29.5655 85.3868C29.2936 85.8421 29.1414 86.3588 29.1233 86.8889V187.193C29.1785 188.178 29.4653 189.136 29.9605 189.99C30.4556 190.844 31.1452 191.569 31.9731 192.106C33.5454 193.018 34.8159 192.281 34.8159 190.463V90.1668C34.833 89.6357 34.9878 89.118 35.2651 88.6647L38.1078 90.3283Z" fill="#EBEBEB"/>
<path d="M117.08 27.7666L108.959 32.4554L24.9329 80.9647C24.4842 81.2434 24.1144 81.6325 23.859 82.0948L21.0022 80.4523C21.2574 79.988 21.6271 79.5965 22.0761 79.3152L106.095 30.8059L107.717 29.8653L109.359 28.9388L110.763 28.1245L111.598 27.6402L113.15 26.7488C113.602 26.5082 114.105 26.3777 114.617 26.368C115.129 26.3582 115.636 26.4695 116.098 26.6926C116.513 26.9593 116.852 27.3294 117.08 27.7666Z" fill="#FAFAFA"/>
<path d="M137.022 39.285L128.901 43.9738L114.645 52.2002L44.8884 92.4831C44.4389 92.7661 44.0673 93.157 43.8074 93.6202L40.9998 91.9707C41.2511 91.5242 41.6077 91.1459 42.0386 90.8687L117.501 47.2728L126.051 42.3594L131.75 39.0674L133.077 38.3023L133.224 38.2251C133.663 38.0152 134.142 37.9062 134.628 37.9063C135.114 37.9062 135.594 38.0152 136.032 38.2251L136.179 38.3163C136.527 38.5746 136.814 38.9051 137.022 39.285Z" fill="#FAFAFA"/>
<path d="M122.773 31.0586L30.6323 84.2567C30.1885 84.5413 29.8201 84.929 29.5584 85.3868L26.7507 83.7724C26.9977 83.3427 27.3474 82.9809 27.7685 82.7195L117.501 30.7778L118.821 30.0127C119.273 29.7721 119.776 29.6417 120.288 29.6319C120.8 29.6222 121.308 29.7334 121.769 29.9566C122.194 30.2301 122.54 30.61 122.773 31.0586Z" fill="#FAFAFA"/>
<path d="M131.336 35.986L39.1678 89.1911C38.7168 89.4723 38.3448 89.8636 38.0868 90.3282L35.2371 88.6787C35.5061 88.2103 35.8934 87.8206 36.3601 87.5487L123.229 37.3898L127.441 34.9752C127.893 34.7358 128.397 34.6065 128.909 34.598C129.421 34.5894 129.928 34.7018 130.389 34.9261C130.79 35.1923 131.117 35.5572 131.336 35.986Z" fill="#FAFAFA"/>
<path d="M137.436 40.7941V140.234C137.436 144.313 136.032 147.169 133.765 148.433L39.624 202.789C40.4575 202.288 41.1803 201.623 41.7487 200.833C42.317 200.044 42.7189 199.148 42.93 198.199C42.9722 198.058 43.0072 197.911 43.0423 197.763C43.0774 197.616 43.1055 197.433 43.1406 197.265C43.1757 197.097 43.1968 196.907 43.2248 196.717C43.3198 196.001 43.3667 195.279 43.3652 194.556V95.1153C43.3823 94.5873 43.5346 94.0726 43.8074 93.6202C44.0674 93.157 44.4389 92.7662 44.8884 92.4831L114.645 52.2073L128.901 43.9808L137.022 39.292C137.286 39.749 137.429 40.2662 137.436 40.7941Z" fill="#F5F5F5"/>
<path d="M53.4448 94.1326L67.4831 86.0115C68.3254 85.5272 68.9992 85.9132 68.9992 86.8889V106.423C68.9719 106.95 68.8203 107.464 68.5568 107.921C68.2933 108.379 67.9254 108.767 67.4831 109.055L53.4448 117.176C52.6025 117.661 51.9216 117.268 51.9216 116.299V96.7648C51.9503 96.2371 52.1032 95.7237 52.3679 95.2662C52.6326 94.8088 53.0015 94.4204 53.4448 94.1326Z" fill="#455A64"/>
<path d="M51.9216 124.638L128.908 80.1926V83.4846L51.9216 127.93V124.638Z" fill="#367C3C"/>
<path opacity="0.4" d="M51.9216 124.638L128.908 80.1926V83.4846L51.9216 127.93V124.638Z" fill="white"/>
<path d="M52.8341 133.987L68.1218 125.164C68.6202 124.869 69.0273 125.108 69.0273 125.691V156.505C69.0109 156.821 68.9204 157.128 68.7631 157.403C68.6058 157.677 68.3861 157.91 68.1218 158.084L52.8341 166.907C52.3287 167.202 51.9216 166.963 51.9216 166.381V135.567C51.9382 135.25 52.0295 134.942 52.1882 134.667C52.3468 134.393 52.5681 134.16 52.8341 133.987Z" fill="#F0F0F0"/>
<path d="M52.8341 170.185L68.1218 161.355C68.6202 161.067 69.0273 161.306 69.0273 161.881V185.999L51.9216 195.896V171.785C51.9349 171.465 52.0247 171.153 52.1835 170.874C52.3422 170.596 52.5653 170.36 52.8341 170.185Z" fill="#F0F0F0"/>
<path d="M72.7965 122.455L88.0772 113.632C88.5826 113.344 88.9897 113.576 88.9897 114.158V154.869C88.9726 155.186 88.881 155.494 88.7224 155.768C88.5639 156.043 88.3428 156.276 88.0772 156.449L72.7965 165.272C72.2911 165.559 71.884 165.328 71.884 164.745V124.034C71.9023 123.718 71.9943 123.41 72.1528 123.136C72.3112 122.862 72.5317 122.629 72.7965 122.455Z" fill="#F0F0F0"/>
<path d="M92.7518 110.943L108.033 102.099C108.538 101.805 108.945 102.043 108.945 102.626V133.44C108.928 133.756 108.837 134.065 108.679 134.339C108.52 134.614 108.299 134.847 108.033 135.019L92.7518 143.863C92.2465 144.158 91.8394 143.919 91.8394 143.337V112.523C91.8559 112.206 91.9473 111.898 92.1059 111.624C92.2645 111.349 92.4858 111.116 92.7518 110.943Z" fill="#F0F0F0"/>
<path d="M112.714 99.4181L127.995 90.595C128.5 90.3002 128.907 90.5388 128.907 91.1214V131.832C128.889 132.149 128.797 132.456 128.639 132.73C128.48 133.005 128.26 133.238 127.995 133.412L112.714 142.235C112.209 142.523 111.802 142.291 111.802 141.708V100.997C111.818 100.681 111.91 100.373 112.068 100.098C112.227 99.8236 112.448 99.5905 112.714 99.4181Z" fill="#F0F0F0"/>
<path d="M72.7965 168.557L88.0772 159.734C88.5826 159.439 88.9897 159.677 88.9897 160.26V174.495L71.884 184.378V170.136C71.9006 169.819 71.992 169.511 72.1506 169.237C72.3092 168.962 72.5305 168.729 72.7965 168.557Z" fill="#F0F0F0"/>
<path d="M91.8115 148.735V172.852L108.917 162.976V138.859C108.917 138.276 108.51 138.044 108.005 138.332L92.724 147.155C92.4584 147.328 92.2373 147.561 92.0788 147.836C91.9202 148.11 91.8287 148.418 91.8115 148.735Z" fill="#F0F0F0"/>
<path d="M112.707 145.513L127.995 136.69C128.5 136.395 128.907 136.634 128.907 137.216V151.451L111.802 161.327V147.092C111.818 146.776 111.909 146.469 112.066 146.194C112.223 145.92 112.443 145.686 112.707 145.513Z" fill="#F0F0F0"/>
<path d="M75.6674 170.185L85.2485 164.654C85.7539 164.359 86.161 164.598 86.161 165.18V172.993C86.1444 173.309 86.0531 173.618 85.8945 173.892C85.7359 174.167 85.5145 174.4 85.2485 174.572L75.6674 180.089C75.162 180.377 74.7549 180.145 74.7549 179.563V171.792C74.7671 171.471 74.8563 171.157 75.0151 170.878C75.1739 170.598 75.3976 170.36 75.6674 170.185Z" fill="#E0E0E0"/>
<path d="M115.564 147.169L125.145 141.638C125.644 141.343 126.058 141.582 126.058 142.165V149.935C126.039 150.251 125.947 150.558 125.788 150.832C125.63 151.107 125.41 151.34 125.145 151.514L115.564 157.045C115.059 157.333 114.652 157.101 114.652 156.519V148.749C114.668 148.432 114.76 148.124 114.918 147.849C115.077 147.575 115.298 147.342 115.564 147.169Z" fill="#E0E0E0"/>
<path d="M55.6837 135.637L65.2649 130.099C65.7702 129.811 66.1774 130.05 66.1774 130.625V138.402C66.1591 138.719 66.0671 139.026 65.9086 139.3C65.7502 139.575 65.5297 139.808 65.2649 139.982L55.6837 145.513C55.1854 145.801 54.7712 145.569 54.7712 144.986V137.195C54.7916 136.882 54.8847 136.579 55.0431 136.308C55.2015 136.037 55.4209 135.808 55.6837 135.637Z" fill="#E0E0E0"/>
<path d="M55.3819 147.331L65.5737 141.449C65.9106 141.259 66.1774 141.414 66.1774 141.8V142.045C66.1666 142.256 66.1064 142.461 66.0015 142.644C65.8966 142.827 65.75 142.983 65.5737 143.098L55.3819 148.98C55.045 149.177 54.7712 148.98 54.7712 148.629V148.384C54.7833 148.173 54.8449 147.967 54.9509 147.784C55.057 147.601 55.2047 147.446 55.3819 147.331Z" fill="#E0E0E0"/>
<path d="M55.3819 150.623L65.5737 144.741C65.9106 144.551 66.1774 144.706 66.1774 145.092V145.337C66.1666 145.548 66.1064 145.753 66.0015 145.936C65.8966 146.119 65.75 146.275 65.5737 146.39L55.3819 152.272C55.045 152.469 54.7712 152.272 54.7712 151.921V151.676C54.7833 151.465 54.8449 151.259 54.9509 151.076C55.057 150.893 55.2047 150.738 55.3819 150.623Z" fill="#E0E0E0"/>
<path d="M55.3819 153.915L65.5737 148.033C65.9106 147.843 66.1774 147.998 66.1774 148.384V148.629C66.1666 148.84 66.1064 149.045 66.0015 149.228C65.8966 149.411 65.75 149.567 65.5737 149.682L55.3819 155.564C55.045 155.761 54.7712 155.599 54.7712 155.213V154.968C54.7833 154.757 54.8449 154.551 54.9509 154.368C55.057 154.185 55.2047 154.03 55.3819 153.915Z" fill="#E0E0E0"/>
<path d="M55.3819 157.207L65.5737 151.325C65.9106 151.135 66.1774 151.29 66.1774 151.676V151.935C66.1666 152.146 66.1064 152.351 66.0015 152.534C65.8966 152.717 65.75 152.873 65.5737 152.988L55.3819 158.87C55.045 159.067 54.7712 158.905 54.7712 158.519V158.253C54.7844 158.043 54.8464 157.839 54.9525 157.657C55.0585 157.476 55.2056 157.321 55.3819 157.207Z" fill="#E0E0E0"/>
<path d="M55.3819 160.499L65.5737 154.617C65.9106 154.427 66.1774 154.582 66.1774 154.968V155.213C66.1666 155.424 66.1064 155.629 66.0015 155.812C65.8966 155.995 65.75 156.15 65.5737 156.266L55.3819 162.148C55.045 162.345 54.7712 162.183 54.7712 161.797V161.552C54.7833 161.34 54.8449 161.135 54.9509 160.952C55.057 160.769 55.2047 160.614 55.3819 160.499Z" fill="#E0E0E0"/>
<path d="M75.6674 124.111L85.2485 118.58C85.7539 118.286 86.161 118.524 86.161 119.107V126.877C86.1439 127.193 86.0523 127.501 85.8937 127.776C85.7352 128.05 85.5141 128.283 85.2485 128.456L75.6674 133.987C75.162 134.275 74.7549 134.043 74.7549 133.461V125.691C74.7715 125.374 74.8628 125.066 75.0214 124.791C75.18 124.517 75.4014 124.284 75.6674 124.111Z" fill="#E0E0E0"/>
<path d="M75.3375 135.791L85.5293 129.909C85.8663 129.713 86.14 129.867 86.14 130.26V130.499C86.1285 130.71 86.0672 130.916 85.961 131.099C85.8549 131.282 85.707 131.437 85.5293 131.552L75.3375 137.434C75.0076 137.63 74.7339 137.434 74.7339 137.083V136.844C74.7446 136.634 74.8049 136.428 74.9098 136.245C75.0146 136.063 75.1612 135.907 75.3375 135.791Z" fill="#E0E0E0"/>
<path d="M75.3375 139.104L85.5293 133.222C85.8663 133.026 86.14 133.18 86.14 133.573V133.812C86.1285 134.023 86.0672 134.229 85.961 134.412C85.8549 134.595 85.707 134.75 85.5293 134.865L75.3375 140.747C75.0076 140.943 74.7339 140.782 74.7339 140.396V140.157C74.7446 139.947 74.8049 139.741 74.9098 139.559C75.0146 139.376 75.1612 139.22 75.3375 139.104Z" fill="#E0E0E0"/>
<path d="M75.3375 142.396L85.5293 136.493C85.8663 136.297 86.14 136.451 86.14 136.844V137.083C86.1285 137.294 86.0672 137.5 85.961 137.683C85.8549 137.866 85.707 138.021 85.5293 138.136L75.3375 144.018C75.0076 144.214 74.7339 144.053 74.7339 143.667V143.428C74.7478 143.221 74.8096 143.02 74.9143 142.841C75.0191 142.662 75.164 142.51 75.3375 142.396Z" fill="#E0E0E0"/>
<path d="M75.3375 145.688L85.5293 139.806C85.8663 139.61 86.14 139.764 86.14 140.157V140.396C86.1285 140.607 86.0672 140.813 85.961 140.996C85.8549 141.179 85.707 141.334 85.5293 141.449L75.3375 147.331C75.0076 147.527 74.7339 147.366 74.7339 146.98V146.741C74.7446 146.531 74.8049 146.325 74.9098 146.142C75.0146 145.96 75.1612 145.804 75.3375 145.688Z" fill="#E0E0E0"/>
<path d="M75.3375 148.98L85.5293 143.098C85.8663 142.902 86.14 143.056 86.14 143.449V143.688C86.1285 143.899 86.0672 144.105 85.961 144.288C85.8549 144.471 85.707 144.626 85.5293 144.741L75.3375 150.623C75.0076 150.819 74.7339 150.658 74.7339 150.272V150.033C74.7446 149.823 74.8049 149.617 74.9098 149.434C75.0146 149.252 75.1612 149.096 75.3375 148.98Z" fill="#E0E0E0"/>
<path d="M75.3375 152.272L85.5293 146.39C85.8663 146.194 86.14 146.355 86.14 146.741V146.98C86.1296 147.191 86.0688 147.397 85.9625 147.58C85.8563 147.764 85.7078 147.919 85.5293 148.033L75.3375 153.915C75.0076 154.111 74.7339 153.957 74.7339 153.564V153.339C74.7441 153.127 74.804 152.919 74.9089 152.734C75.0137 152.549 75.1605 152.391 75.3375 152.272Z" fill="#E0E0E0"/>
<path d="M75.3375 155.564L85.5293 149.682C85.8663 149.486 86.14 149.647 86.14 150.033V150.272C86.1296 150.483 86.0688 150.689 85.9625 150.872C85.8563 151.056 85.7078 151.211 85.5293 151.325L75.3375 157.207C75.0076 157.403 74.7339 157.249 74.7339 156.856V156.617C74.7462 156.407 74.8072 156.202 74.9119 156.02C75.0167 155.837 75.1624 155.681 75.3375 155.564Z" fill="#E0E0E0"/>
<path d="M75.3375 158.856L85.5293 152.974C85.8663 152.778 86.14 152.939 86.14 153.325V153.564C86.1296 153.775 86.0688 153.981 85.9625 154.164C85.8563 154.348 85.7078 154.503 85.5293 154.617L75.3375 160.499C75.0076 160.695 74.7339 160.541 74.7339 160.148V159.909C74.7462 159.699 74.8072 159.494 74.9119 159.312C75.0167 159.129 75.1624 158.973 75.3375 158.856Z" fill="#E0E0E0"/>
<path d="M55.6837 171.856L65.2649 166.318C65.7702 166.03 66.1774 166.268 66.1774 166.844V174.621C66.1602 174.938 66.0686 175.246 65.9101 175.52C65.7515 175.794 65.5305 176.028 65.2649 176.201L55.6837 181.732C55.1854 182.019 54.7712 181.788 54.7712 181.205V173.435C54.7884 173.119 54.8799 172.811 55.0385 172.536C55.1971 172.262 55.4181 172.029 55.6837 171.856Z" fill="#E0E0E0"/>
<path d="M55.3819 183.521L65.5737 177.639C65.9106 177.45 66.1774 177.604 66.1774 177.99V178.236C66.1666 178.447 66.1064 178.652 66.0015 178.835C65.8966 179.018 65.75 179.173 65.5737 179.289L55.3819 185.171C55.045 185.368 54.7712 185.206 54.7712 184.82V184.574C54.7833 184.363 54.8449 184.158 54.9509 183.975C55.057 183.792 55.2047 183.637 55.3819 183.521Z" fill="#E0E0E0"/>
<path d="M55.3819 186.842L65.5737 180.96C65.9106 180.77 66.1774 180.924 66.1774 181.31V181.556C66.1666 181.767 66.1064 181.972 66.0015 182.155C65.8966 182.338 65.75 182.493 65.5737 182.609L55.3819 188.491C55.045 188.688 54.7712 188.526 54.7712 188.14V187.894C54.7833 187.683 54.8449 187.478 54.9509 187.295C55.057 187.112 55.2047 186.957 55.3819 186.842Z" fill="#E0E0E0"/>
<path d="M55.3819 190.141L65.5737 184.223C65.9106 184.034 66.1774 184.188 66.1774 184.574V184.82C66.1666 185.031 66.1064 185.236 66.0015 185.419C65.8966 185.602 65.75 185.757 65.5737 185.873L55.3819 191.755C55.045 191.952 54.7712 191.79 54.7712 191.404V191.165C54.7859 190.959 54.8488 190.758 54.9549 190.58C55.0609 190.402 55.2072 190.252 55.3819 190.141Z" fill="#E0E0E0"/>
<path d="M95.6017 112.586L105.183 107.055C105.688 106.767 106.095 106.999 106.095 107.581V115.352C106.079 115.668 105.987 115.976 105.829 116.251C105.67 116.525 105.449 116.758 105.183 116.931L95.6017 122.455C95.1033 122.743 94.6892 122.504 94.6892 121.928V114.165C94.7085 113.849 94.801 113.542 94.9594 113.268C95.1177 112.994 95.3376 112.761 95.6017 112.586Z" fill="#E0E0E0"/>
<path d="M95.3209 124.287L105.513 118.405C105.843 118.215 106.116 118.405 106.116 118.756V119.001C106.104 119.212 106.043 119.416 105.938 119.599C105.834 119.782 105.688 119.937 105.513 120.054L95.3209 125.964C94.9839 126.154 94.7102 125.964 94.7102 125.614V125.368C94.7179 125.152 94.7774 124.941 94.8836 124.753C94.9899 124.565 95.1399 124.405 95.3209 124.287Z" fill="#E0E0E0"/>
<path d="M95.3209 127.579L105.513 121.697C105.843 121.507 106.116 121.697 106.116 122.048V122.293C106.104 122.504 106.043 122.708 105.938 122.891C105.834 123.074 105.688 123.229 105.513 123.346L95.3209 129.228C94.9839 129.418 94.7102 129.228 94.7102 128.877V128.632C94.7223 128.421 94.7838 128.215 94.8899 128.032C94.996 127.85 95.1436 127.694 95.3209 127.579Z" fill="#E0E0E0"/>
<path d="M95.3209 130.878L105.513 124.996C105.843 124.806 106.116 124.961 106.116 125.347V125.592C106.104 125.803 106.043 126.007 105.938 126.19C105.834 126.373 105.688 126.528 105.513 126.645L95.3209 132.52C94.9839 132.71 94.7102 132.52 94.7102 132.169V131.924C94.7233 131.714 94.7854 131.51 94.8914 131.328C94.9975 131.147 95.1445 130.992 95.3209 130.878Z" fill="#E0E0E0"/>
<path d="M95.3209 134.163L105.513 128.281C105.843 128.091 106.116 128.246 106.116 128.632V128.877C106.104 129.088 106.043 129.292 105.938 129.475C105.834 129.658 105.688 129.813 105.513 129.93L95.3209 135.791C94.9839 135.981 94.7102 135.826 94.7102 135.44V135.195C94.7255 134.987 94.7885 134.786 94.8945 134.607C95.0004 134.428 95.1464 134.276 95.3209 134.163Z" fill="#E0E0E0"/>
<path d="M95.3209 137.455L105.492 131.58C105.822 131.39 106.095 131.545 106.095 131.931V132.176C106.083 132.387 106.022 132.591 105.917 132.774C105.812 132.957 105.667 133.112 105.492 133.229L95.3209 139.104C94.9839 139.294 94.7102 139.139 94.7102 138.753V138.508C94.7223 138.297 94.7838 138.091 94.8899 137.908C94.996 137.725 95.1436 137.57 95.3209 137.455Z" fill="#E0E0E0"/>
<path d="M115.564 101.068L125.145 95.5365C125.644 95.2417 126.058 95.4803 126.058 96.0629V103.833C126.039 104.149 125.947 104.457 125.788 104.731C125.63 105.005 125.41 105.238 125.145 105.412L115.564 110.943C115.059 111.231 114.652 111 114.652 110.417V102.647C114.668 102.33 114.76 102.022 114.918 101.748C115.077 101.473 115.298 101.24 115.564 101.068Z" fill="#E0E0E0"/>
<path d="M115.255 112.761L125.447 106.879C125.784 106.69 126.058 106.844 126.058 107.23V107.476C126.046 107.687 125.984 107.892 125.878 108.075C125.772 108.258 125.624 108.414 125.447 108.529L115.255 114.411C114.925 114.607 114.652 114.446 114.652 114.06V113.814C114.664 113.604 114.725 113.4 114.83 113.217C114.934 113.034 115.08 112.878 115.255 112.761Z" fill="#E0E0E0"/>
<path d="M115.255 116.06L125.447 110.171C125.784 109.982 126.058 110.136 126.058 110.522V110.768C126.046 110.979 125.984 111.184 125.878 111.367C125.772 111.55 125.624 111.706 125.447 111.821L115.255 117.703C114.925 117.899 114.652 117.738 114.652 117.352V117.113C114.662 116.903 114.723 116.698 114.827 116.515C114.932 116.332 115.079 116.176 115.255 116.06Z" fill="#E0E0E0"/>
<path d="M115.255 119.352L125.447 113.463C125.784 113.274 126.058 113.428 126.058 113.814V114.032C126.046 114.243 125.984 114.448 125.878 114.631C125.772 114.814 125.624 114.969 125.447 115.085L115.255 120.967C114.925 121.163 114.652 121.002 114.652 120.616V120.377C114.667 120.171 114.729 119.972 114.834 119.794C114.938 119.616 115.083 119.465 115.255 119.352Z" fill="#E0E0E0"/>
<path d="M115.255 122.644L125.447 116.755C125.784 116.566 126.058 116.755 126.058 117.106V117.352C126.046 117.563 125.984 117.768 125.878 117.951C125.772 118.134 125.624 118.29 125.447 118.405L115.255 124.287C114.925 124.483 114.652 124.287 114.652 123.936V123.697C114.662 123.487 114.723 123.282 114.827 123.099C114.932 122.916 115.079 122.76 115.255 122.644Z" fill="#E0E0E0"/>
<path d="M115.255 125.964L125.447 120.075C125.784 119.886 126.058 120.075 126.058 120.426V120.672C126.046 120.883 125.984 121.088 125.878 121.271C125.772 121.454 125.624 121.61 125.447 121.725L115.255 127.579C114.925 127.775 114.652 127.579 114.652 127.228V126.989C114.667 126.784 114.729 126.584 114.834 126.406C114.938 126.228 115.083 126.077 115.255 125.964Z" fill="#E0E0E0"/>
<path d="M115.255 129.228L125.447 123.346C125.784 123.15 126.058 123.304 126.058 123.697V123.936C126.046 124.147 125.985 124.353 125.879 124.536C125.773 124.719 125.625 124.874 125.447 124.989L115.255 130.878C114.925 131.074 114.652 130.878 114.652 130.527V130.288C114.662 130.077 114.722 129.87 114.827 129.686C114.932 129.502 115.078 129.345 115.255 129.228Z" fill="#E0E0E0"/>
<path d="M115.255 132.52L125.447 126.666C125.784 126.47 126.058 126.624 126.058 127.017V127.256C126.046 127.467 125.985 127.673 125.879 127.856C125.773 128.039 125.625 128.194 125.447 128.309L115.255 134.191C114.925 134.387 114.652 134.191 114.652 133.84V133.601C114.659 133.386 114.717 133.175 114.822 132.987C114.927 132.799 115.076 132.639 115.255 132.52Z" fill="#E0E0E0"/>
<path d="M115.255 135.791L125.447 129.909C125.784 129.713 126.058 129.867 126.058 130.26V130.499C126.046 130.71 125.985 130.916 125.879 131.099C125.773 131.282 125.625 131.437 125.447 131.552L115.255 137.434C114.925 137.63 114.652 137.476 114.652 137.083V136.844C114.663 136.634 114.723 136.429 114.828 136.246C114.933 136.063 115.079 135.907 115.255 135.791Z" fill="#E0E0E0"/>
<path d="M95.6017 148.805L105.183 143.274C105.688 142.986 106.095 143.218 106.095 143.8V151.57C106.079 151.887 105.987 152.195 105.829 152.47C105.67 152.744 105.449 152.977 105.183 153.15L95.6017 158.688C95.1033 158.976 94.6892 158.737 94.6892 158.161V150.384C94.7085 150.068 94.801 149.761 94.9594 149.487C95.1177 149.213 95.3376 148.979 95.6017 148.805Z" fill="#E0E0E0"/>
<path d="M95.3209 160.506L105.513 154.624C105.843 154.434 106.116 154.589 106.116 154.975V155.22C106.104 155.43 106.043 155.635 105.938 155.818C105.834 156 105.688 156.156 105.513 156.273L95.3209 162.155C94.9839 162.345 94.7102 162.19 94.7102 161.804V161.559C94.7223 161.347 94.7838 161.142 94.8899 160.959C94.996 160.776 95.1436 160.621 95.3209 160.506Z" fill="#E0E0E0"/>
<path d="M95.3209 163.798L105.513 157.916C105.843 157.726 106.116 157.916 106.116 158.267V158.512C106.104 158.722 106.043 158.927 105.938 159.11C105.834 159.292 105.688 159.448 105.513 159.565L95.3209 165.447C94.9839 165.637 94.7102 165.482 94.7102 165.096V164.851C94.7223 164.639 94.7838 164.434 94.8899 164.251C94.996 164.068 95.1436 163.913 95.3209 163.798Z" fill="#E0E0E0"/>
<path d="M95.3209 167.09L105.513 161.208C105.843 161.018 106.116 161.208 106.116 161.559V161.804C106.104 162.014 106.043 162.219 105.938 162.402C105.834 162.584 105.688 162.74 105.513 162.857L95.3209 168.739C94.9839 168.929 94.7102 168.774 94.7102 168.388V168.143C94.7223 167.931 94.7838 167.726 94.8899 167.543C94.996 167.36 95.1436 167.205 95.3209 167.09Z" fill="#E0E0E0"/>
<path d="M75.1759 102.843C75.0355 102.797 74.9653 102.663 74.9653 102.443C74.9738 102.23 75.0164 102.019 75.0917 101.819L75.8497 99.404C75.8981 99.186 76.0076 98.9863 76.1656 98.8284C76.2173 98.8002 76.2752 98.7854 76.3341 98.7854C76.3929 98.7854 76.4509 98.8002 76.5025 98.8284C76.8928 98.9918 77.3179 99.0543 77.7386 99.0101C78.1594 98.966 78.5623 98.8166 78.9101 98.5758C79.5376 98.2098 80.03 97.651 80.3139 96.9824C80.6421 96.162 80.7974 95.2826 80.7702 94.3994V80.2417C80.7571 79.833 80.8313 79.4263 80.9878 79.0485C81.1561 78.7001 81.4316 78.4147 81.7739 78.2343L83.3322 77.3358C83.6831 77.1323 83.9358 77.1042 84.0832 77.2586C84.2688 77.5375 84.3484 77.8736 84.3078 78.2062V92.4129C84.333 94.4067 83.9109 96.3807 83.0725 98.1897C82.3085 99.8549 81.0451 101.241 79.4576 102.156C77.7683 103.134 76.3411 103.363 75.1759 102.843Z" fill="#455A64"/>
<path d="M87.8174 94.3151C86.5586 93.0236 85.9292 90.5505 85.9292 86.8959C85.8576 83.5986 86.5018 80.325 87.8174 77.3007C88.9389 74.714 90.8538 72.5509 93.2853 71.1238C95.6648 69.72 97.4968 69.72 98.7392 70.9975C99.9815 72.275 100.627 74.7528 100.627 78.4097C100.699 81.707 100.055 84.9806 98.7392 88.0049C97.6204 90.5872 95.7107 92.7476 93.2853 94.1747C90.8988 95.5505 89.0761 95.5973 87.8174 94.3151ZM96.1842 86.7064C96.8983 84.6792 97.2315 82.5374 97.1669 80.3891C97.1669 77.8576 96.8393 76.1355 96.1842 75.223C95.5314 74.3105 94.5698 74.2263 93.2853 74.9633C91.9236 75.7979 90.8921 77.0774 90.3653 78.5852C89.6526 80.6126 89.3218 82.7545 89.3897 84.9024C89.3897 87.4293 89.7125 89.156 90.3653 90.0615C91.0181 90.967 91.9938 91.0582 93.2853 90.3072C94.6412 89.4808 95.6663 88.2074 96.1842 86.7064Z" fill="#455A64"/>
<path d="M102.579 87.9839C102.393 87.7127 102.314 87.3832 102.354 87.0573V67.8038C102.342 67.3923 102.419 66.983 102.579 66.6035C102.724 66.2778 102.97 66.0072 103.281 65.8314L109.457 62.2587C111.011 61.3649 112.181 61.2432 112.967 61.8937C113.753 62.5441 114.139 63.831 114.125 65.7542C114.126 66.7717 113.967 67.783 113.655 68.7514C113.382 69.6497 112.941 70.488 112.356 71.2221C113.802 71.1239 114.525 72.3405 114.525 74.8721C114.525 76.1143 114.338 77.3494 113.971 78.5361C113.601 79.7337 113.029 80.859 112.279 81.8632C111.526 82.8741 110.57 83.7159 109.471 84.3339L103.295 87.9067C102.965 88.0962 102.726 88.1242 102.579 87.9839ZM108.896 71.531C109.459 71.2013 109.913 70.713 110.201 70.1271C110.53 69.4573 110.691 68.718 110.672 67.9723C110.672 67.0879 110.524 66.5684 110.237 66.3228C109.949 66.0771 109.5 66.1824 108.896 66.5263L105.85 68.2951V73.3209L108.896 71.531ZM109.233 80.5576C109.86 80.2041 110.353 79.6541 110.637 78.9923C110.946 78.2796 111.102 77.5093 111.093 76.7322C111.093 75.8056 110.917 75.209 110.566 74.9493C110.215 74.6896 109.717 74.7387 109.085 75.1037L105.85 76.9638V82.5159L109.233 80.5576Z" fill="#455A64"/>
<path d="M117.649 79.5679C116.848 79.8026 115.993 79.7681 115.213 79.4696C115.121 79.4295 115.043 79.3639 114.987 79.2806C114.931 79.1973 114.9 79.0997 114.897 78.9993C114.906 78.8242 114.942 78.6514 115.003 78.4869L115.873 75.8758C115.908 75.6886 116.005 75.5183 116.147 75.3915C116.196 75.3657 116.25 75.3522 116.305 75.3522C116.36 75.3522 116.414 75.3657 116.463 75.3915C117.047 75.5477 117.658 75.5717 118.253 75.4617C118.973 75.3323 119.665 75.0756 120.295 74.7036C121.026 74.3097 121.65 73.7435 122.113 73.0541C122.519 72.3793 122.724 71.6024 122.703 70.815C122.738 70.3743 122.638 69.9334 122.415 69.5516C122.21 69.2834 121.907 69.1069 121.573 69.0602C121.003 68.9842 120.428 68.9467 119.853 68.9479C119.082 68.966 118.311 68.8762 117.565 68.6812C116.92 68.4847 116.371 68.054 116.028 67.4739C115.568 66.6129 115.358 65.6402 115.424 64.6662C115.398 62.7152 115.903 60.7937 116.884 59.1071C117.798 57.5059 119.12 56.176 120.716 55.2536C122.822 54.0392 124.415 53.7234 125.524 54.2919C125.613 54.337 125.688 54.4038 125.743 54.4861C125.799 54.5684 125.832 54.6634 125.84 54.7622C125.831 54.9374 125.796 55.1101 125.735 55.2746L124.872 57.8857C124.837 58.0712 124.74 58.2394 124.598 58.363C124.55 58.3908 124.495 58.4054 124.44 58.4054C124.385 58.4054 124.33 58.3908 124.282 58.363C123.426 57.9934 122.387 58.1595 121.166 58.8614C120.461 59.2242 119.874 59.7782 119.47 60.4598C119.067 61.1415 118.864 61.9231 118.884 62.7149C118.853 63.1393 118.945 63.5637 119.151 63.9363C119.313 64.1848 119.564 64.3609 119.853 64.4276C120.335 64.5147 120.824 64.5547 121.313 64.5469H121.903C122.724 64.5501 123.54 64.6755 124.324 64.9189C124.924 65.1374 125.414 65.5839 125.686 66.1613C126.051 67.0501 126.212 68.0097 126.156 68.969C126.158 70.8253 125.674 72.6498 124.752 74.2614C123.812 75.932 122.427 77.3095 120.751 78.2413C119.793 78.8431 118.746 79.2907 117.649 79.5679Z" fill="#455A64"/>
<path d="M205.36 12.0228L202.51 10.3733C202.303 10.2771 202.074 10.2381 201.847 10.2603C201.62 10.2825 201.403 10.3652 201.219 10.4997L164.951 31.4869C164.421 31.834 163.98 32.3005 163.663 32.8491C163.346 33.3977 163.162 34.013 163.126 34.6455V109.399C163.102 109.626 163.138 109.854 163.232 110.062C163.326 110.269 163.473 110.447 163.659 110.579L166.467 112.221H166.509C166.711 112.303 166.93 112.332 167.146 112.306C167.362 112.28 167.568 112.2 167.744 112.074L177.326 106.543V112.305C177.326 113.323 177.487 113.913 177.754 114.074L180.561 115.71C180.884 115.885 181.355 115.436 181.881 114.306L188.676 99.9166L203.956 91.0444C204.486 90.6973 204.928 90.2308 205.245 89.6822C205.561 89.1336 205.745 88.5183 205.781 87.8858V13.195C205.816 12.9799 205.796 12.7595 205.722 12.5544C205.649 12.3494 205.524 12.1664 205.36 12.0228Z" fill="#367C3C"/>
<path opacity="0.4" d="M205.29 11.9805C205.088 11.9084 204.872 11.8854 204.66 11.9135C204.447 11.9416 204.245 12.0199 204.069 12.1419L167.794 33.1362C167.267 33.464 166.832 33.9206 166.53 34.4628L163.68 32.8133C163.98 32.2696 164.415 31.8126 164.944 31.4867L201.212 10.4924C201.455 10.3428 201.733 10.2582 202.019 10.2468C202.188 10.2436 202.355 10.2847 202.503 10.3661L205.29 11.9805Z" fill="white"/>
<path opacity="0.2" d="M177.803 114.102C177.543 113.941 177.382 113.351 177.382 112.333V106.578L180.253 104.907V113.962C180.253 114.93 180.4 115.52 180.632 115.716L177.803 114.102Z" fill="black"/>
<path opacity="0.1" d="M166.523 112.228L163.673 110.585C163.492 110.453 163.347 110.275 163.255 110.069C163.163 109.864 163.126 109.638 163.147 109.413V34.6453C163.173 33.9964 163.366 33.3652 163.709 32.8133L166.558 34.4628C166.218 35.0151 166.027 35.6464 166.004 36.2948V111.049C165.977 111.274 166.012 111.502 166.103 111.709C166.194 111.916 166.339 112.096 166.523 112.228Z" fill="black"/>
<path d="M173.191 36.5966L198.664 21.8564C199.506 21.3721 200.187 21.7652 200.187 22.7338V38.927C200.158 39.4557 200.006 39.9701 199.741 40.4286C199.476 40.8872 199.107 41.2769 198.664 41.5662L173.191 56.3064C172.356 56.7907 171.675 56.3977 171.675 55.429V39.2288C171.704 38.702 171.857 38.1894 172.12 37.7322C172.383 37.275 172.75 36.886 173.191 36.5966Z" fill="white"/>
<path d="M200.187 45.6584C200.15 46.1697 199.993 46.6651 199.728 47.1042C199.463 47.5433 199.099 47.9137 198.664 48.1852L173.191 62.8904C172.356 63.3747 171.675 63.0307 171.675 62.1183C171.713 61.6089 171.87 61.1156 172.133 60.6779C172.397 60.2402 172.759 59.8705 173.191 59.5984L198.664 44.8933C199.506 44.4089 200.187 44.7529 200.187 45.6584Z" fill="white"/>
<path d="M200.187 52.2634C200.15 52.7747 199.993 53.2701 199.728 53.7092C199.463 54.1483 199.099 54.5187 198.664 54.7903L173.191 69.5305C172.356 70.0148 171.675 69.6709 171.675 68.7584C171.713 68.249 171.87 67.7557 172.133 67.318C172.397 66.8804 172.759 66.5106 173.191 66.2385L198.664 51.4983C199.506 50.9929 200.187 51.3369 200.187 52.2634Z" fill="white"/>
<path d="M200.187 58.8263C200.15 59.3376 199.993 59.833 199.728 60.2721C199.463 60.7112 199.099 61.0816 198.664 61.3532L173.191 76.0934C172.356 76.5777 171.675 76.2338 171.675 75.3213C171.713 74.8119 171.87 74.3186 172.133 73.8809C172.397 73.4433 172.759 73.0735 173.191 72.8014L198.664 58.0612C199.506 57.5769 200.187 57.9208 200.187 58.8263Z" fill="white"/>
<path d="M200.187 65.4102C200.15 65.9216 199.993 66.417 199.728 66.8561C199.463 67.2951 199.099 67.6655 198.664 67.9371L173.191 82.6422C172.356 83.1266 171.675 82.7826 171.675 81.8701C171.713 81.3608 171.87 80.8674 172.133 80.4298C172.397 79.9921 172.759 79.6224 173.191 79.3503L198.664 64.61C199.506 64.1959 200.187 64.5048 200.187 65.4102Z" fill="white"/>
<path d="M171.675 88.4612C171.675 89.3666 172.377 89.7106 173.191 89.2262L175.859 87.689C176.291 87.4169 176.653 87.0472 176.917 86.6095C177.18 86.1719 177.337 85.6785 177.375 85.1692C177.375 84.2567 176.673 83.9127 175.859 84.3971L173.191 85.9343C172.758 86.207 172.395 86.5779 172.132 87.0169C171.869 87.4558 171.712 87.9506 171.675 88.4612Z" fill="white"/>
<path d="M181.235 82.9511C181.235 83.8566 181.937 84.2005 182.759 83.7162L198.664 74.5211C199.099 74.2495 199.463 73.8791 199.728 73.44C199.993 73.0009 200.15 72.5055 200.187 71.9942C200.187 71.0887 199.485 70.7448 198.664 71.2291L182.759 80.4242C182.324 80.6958 181.959 81.0662 181.694 81.5053C181.43 81.9444 181.272 82.4397 181.235 82.9511Z" fill="white"/>
<path d="M171.675 95.0802C171.675 95.9857 172.377 96.3296 173.191 95.8453L175.859 94.3081C176.291 94.036 176.653 93.6662 176.917 93.2286C177.18 92.7909 177.337 92.2976 177.375 91.7882C177.375 90.8757 176.673 90.5318 175.859 91.0161L173.191 92.5533C172.758 92.8261 172.395 93.1969 172.132 93.6359C171.869 94.0749 171.712 94.5696 171.675 95.0802Z" fill="white"/>
<path d="M181.235 89.5351C181.235 90.4406 181.937 90.7845 182.759 90.3002L198.664 81.1051C199.099 80.8335 199.463 80.4631 199.728 80.024C199.993 79.5849 200.15 79.0895 200.187 78.5782C200.187 77.6727 199.485 77.3288 198.664 77.8131L182.759 87.0082C182.324 87.2798 181.959 87.6502 181.694 88.0893C181.43 88.5283 181.272 89.0237 181.235 89.5351Z" fill="white"/>
<path d="M171.675 101.629C171.675 102.535 172.377 102.878 173.191 102.394L175.859 100.857C176.291 100.585 176.653 100.215 176.917 99.7775C177.18 99.3398 177.337 98.8464 177.375 98.3371C177.375 97.4246 176.673 97.0806 175.859 97.565L173.191 99.1022C172.758 99.375 172.395 99.7458 172.132 100.185C171.869 100.624 171.712 101.118 171.675 101.629Z" fill="white"/>
<path d="M181.235 96.119C181.235 97.0245 181.937 97.3685 182.759 96.8841L198.664 87.689C199.098 87.4182 199.462 87.0488 199.727 86.6111C199.991 86.1733 200.149 85.6793 200.187 85.1692C200.187 84.2567 199.485 83.9127 198.664 84.3971L182.759 93.5921C182.324 93.8637 181.959 94.2341 181.694 94.6732C181.43 95.1123 181.272 95.6077 181.235 96.119Z" fill="white"/>
<path d="M239.592 31.7326L236.785 30.0831C236.578 29.9869 236.349 29.9478 236.122 29.9701C235.895 29.9923 235.678 30.0749 235.493 30.2094L199.204 51.1897C198.674 51.5367 198.233 52.0033 197.916 52.5519C197.599 53.1005 197.415 53.7157 197.379 54.3483V129.102C197.355 129.328 197.392 129.557 197.486 129.764C197.579 129.972 197.727 130.15 197.913 130.281L200.756 131.924H200.791C200.993 132.006 201.214 132.035 201.431 132.01C201.648 131.984 201.855 131.904 202.033 131.777L211.614 126.245V132.008C211.614 133.026 211.776 133.616 212.035 133.777L214.843 135.412H214.878C215.201 135.588 215.671 135.139 216.191 134.009L222.992 119.619L238.273 110.747C238.803 110.4 239.244 109.934 239.561 109.385C239.878 108.836 240.062 108.221 240.098 107.589V32.9048C240.123 32.6823 240.09 32.4571 240.001 32.2515C239.912 32.0459 239.772 31.867 239.592 31.7326Z" fill="#367C3C"/>
<path opacity="0.4" d="M239.515 31.6903C239.313 31.6182 239.097 31.5952 238.885 31.6233C238.673 31.6513 238.47 31.7297 238.294 31.8517L202.012 52.846C201.485 53.1738 201.05 53.6304 200.748 54.1726L197.899 52.5231C198.2 51.9809 198.635 51.5243 199.162 51.1965L235.437 30.2022C235.68 30.0511 235.958 29.9664 236.244 29.9565C236.411 29.9543 236.576 29.9954 236.722 30.0759L239.515 31.6903Z" fill="white"/>
<path opacity="0.2" d="M212.028 133.812C211.769 133.65 211.607 133.061 211.607 132.043V126.287L214.457 124.638V133.686C214.457 134.654 214.604 135.244 214.843 135.44L212.028 133.812Z" fill="black"/>
<path opacity="0.1" d="M200.749 131.938L197.906 130.295C197.723 130.163 197.578 129.986 197.486 129.78C197.393 129.574 197.357 129.347 197.379 129.123V54.3691C197.402 53.7207 197.593 53.0894 197.934 52.5371L200.784 54.1866C200.443 54.7389 200.252 55.3702 200.229 56.0186V130.773C200.205 130.995 200.241 131.22 200.332 131.425C200.423 131.63 200.567 131.807 200.749 131.938Z" fill="black"/>
<path d="M207.424 56.3064L232.896 41.5662C233.732 41.0819 234.412 41.475 234.412 42.4436V58.6789C234.384 59.2068 234.232 59.7206 233.969 60.179C233.705 60.6374 233.338 61.0276 232.896 61.3181L207.424 76.0583C206.581 76.5426 205.901 76.1496 205.901 75.1809V58.9386C205.929 58.4109 206.082 57.8974 206.347 57.44C206.612 56.9826 206.981 56.5942 207.424 56.3064Z" fill="white"/>
<path d="M234.412 65.3682C234.376 65.8787 234.219 66.3735 233.956 66.8125C233.692 67.2514 233.329 67.6223 232.896 67.8951L207.424 82.6002C206.581 83.0845 205.901 82.7406 205.901 81.8281C205.939 81.3179 206.097 80.824 206.361 80.3862C206.626 79.9484 206.99 79.5791 207.424 79.3082L232.896 64.6031C233.732 64.1188 234.412 64.4627 234.412 65.3682Z" fill="white"/>
<path d="M234.412 71.9521C234.376 72.4627 234.219 72.9575 233.956 73.3964C233.692 73.8354 233.329 74.2062 232.896 74.479L207.424 89.1841C206.581 89.6685 205.901 89.3245 205.901 88.412C205.939 87.9019 206.097 87.4079 206.361 86.9701C206.626 86.5323 206.99 86.1631 207.424 85.8922L232.896 71.2151C233.732 70.7027 234.412 71.0467 234.412 71.9521Z" fill="white"/>
<path d="M234.412 78.5361C234.372 79.043 234.214 79.5335 233.951 79.9686C233.688 80.4037 233.327 80.7712 232.896 81.0419L207.424 95.7821C206.581 96.2664 205.901 95.9225 205.901 95.01C205.939 94.4999 206.097 94.0059 206.361 93.5681C206.626 93.1303 206.99 92.761 207.424 92.4901L232.896 77.771C233.732 77.2867 234.412 77.6306 234.412 78.5361Z" fill="white"/>
<path d="M234.412 85.12C234.376 85.6306 234.219 86.1254 233.956 86.5643C233.692 87.0033 233.329 87.3741 232.896 87.6469L207.424 102.387C206.581 102.871 205.901 102.528 205.901 101.615C205.939 101.105 206.097 100.611 206.361 100.173C206.626 99.7353 206.99 99.366 207.424 99.0952L232.896 84.3549C233.732 83.8496 234.412 84.2146 234.412 85.12Z" fill="white"/>
<path d="M205.901 108.171C205.901 109.076 206.603 109.42 207.424 108.936L210.084 107.399C210.518 107.128 210.882 106.759 211.147 106.321C211.411 105.883 211.569 105.389 211.607 104.879C211.607 103.966 210.905 103.623 210.084 104.107L207.424 105.644C206.989 105.916 206.624 106.286 206.36 106.725C206.095 107.164 205.938 107.66 205.901 108.171Z" fill="white"/>
<path d="M215.468 102.661C215.468 103.566 216.17 103.91 216.991 103.426L232.896 94.2309C233.329 93.9581 233.692 93.5873 233.956 93.1483C234.219 92.7093 234.376 92.2146 234.412 91.704C234.412 90.7985 233.711 90.4546 232.896 90.9389L216.984 100.134C216.551 100.407 216.188 100.778 215.924 101.217C215.661 101.656 215.505 102.15 215.468 102.661Z" fill="white"/>
<path d="M205.901 114.734C205.901 115.639 206.603 115.983 207.424 115.499L210.084 113.962C210.518 113.691 210.882 113.322 211.147 112.884C211.411 112.446 211.569 111.952 211.607 111.442C211.607 110.529 210.905 110.185 210.084 110.67L207.424 112.207C206.989 112.478 206.624 112.849 206.36 113.288C206.095 113.727 205.938 114.222 205.901 114.734Z" fill="white"/>
<path d="M215.468 109.245C215.468 110.15 216.17 110.494 216.991 110.01L232.896 100.815C233.329 100.542 233.692 100.171 233.956 99.7323C234.219 99.2933 234.376 98.7985 234.412 98.288C234.412 97.3825 233.711 97.0386 232.896 97.5229L216.984 106.718C216.551 106.991 216.188 107.362 215.924 107.801C215.661 108.24 215.505 108.734 215.468 109.245Z" fill="white"/>
<path d="M205.901 121.339C205.901 122.244 206.603 122.588 207.424 122.104L210.084 120.567C210.518 120.296 210.882 119.927 211.147 119.489C211.411 119.051 211.569 118.557 211.607 118.047C211.607 117.134 210.905 116.79 210.084 117.275L207.424 118.812C206.989 119.084 206.624 119.454 206.36 119.893C206.095 120.332 205.938 120.827 205.901 121.339Z" fill="white"/>
<path d="M215.468 115.829C215.468 116.734 216.17 117.078 216.991 116.594L232.896 107.399C233.329 107.127 233.691 106.757 233.954 106.319C234.218 105.882 234.375 105.388 234.412 104.879C234.412 103.966 233.711 103.623 232.896 104.107L216.984 113.33C216.554 113.6 216.194 113.966 215.931 114.4C215.667 114.834 215.509 115.323 215.468 115.829Z" fill="white"/>
<path d="M276.682 2.75748L272.905 0.595585H272.87C271.207 -0.337962 268.925 -0.197577 266.399 1.25539C261.31 4.19641 257.189 11.3419 257.189 17.2169C257.189 20.1439 258.214 22.2075 259.878 23.1692L263.289 25.1205L264.103 23.7167C265.033 23.5129 265.925 23.1672 266.75 22.6919C271.831 19.7579 275.959 12.6124 275.959 6.73734C275.956 5.94492 275.859 5.15561 275.671 4.38593L276.682 2.75748Z" fill="#367C3C"/>
<path d="M257.211 17.1677C257.211 20.1017 258.235 22.1653 259.899 23.1269L263.31 25.0783L264.125 23.7166C265.053 23.5069 265.945 23.1591 266.771 22.6847C269.679 20.8543 272.04 18.2745 273.607 15.2164L260.271 7.4953C258.398 10.3846 257.34 13.7266 257.211 17.1677Z" fill="#263238"/>
<path d="M276.689 2.75735L272.941 0.595451H272.905C271.242 -0.345115 268.961 -0.20473 266.434 1.25525C263.905 2.81199 261.79 4.95778 260.271 7.50931L273.607 15.2304C275.059 12.6529 275.868 9.76375 275.966 6.8074C275.963 6.01498 275.867 5.22567 275.678 4.45598L276.689 2.75735Z" fill="#455A64"/>
<path d="M269.978 3.28376C264.897 6.21776 260.769 13.3633 260.769 19.2734C260.769 25.1835 264.897 27.5279 269.978 24.5869C275.06 21.6459 279.223 14.4723 279.223 8.59725C279.223 2.72223 275.067 0.321677 269.978 3.28376Z" fill="#37474F"/>
<path d="M270.652 8.14806C270.925 8.05302 271.218 8.03124 271.502 8.08489C271.733 8.13851 271.946 8.25232 272.119 8.41479C272.286 8.57775 272.414 8.77713 272.491 8.99738C272.58 9.22158 272.632 9.45857 272.646 9.69929C272.65 9.81647 272.624 9.93276 272.568 10.0362C272.526 10.1285 272.458 10.2065 272.372 10.2608L271.67 10.6609C271.558 10.7311 271.473 10.7451 271.417 10.7101C271.349 10.666 271.295 10.6025 271.263 10.5276C271.214 10.437 271.149 10.3568 271.069 10.2918C270.99 10.2267 270.898 10.178 270.8 10.1485C270.643 10.1259 270.483 10.1354 270.329 10.1764C270.176 10.2175 270.033 10.2891 269.908 10.3872C269.73 10.4874 269.564 10.6101 269.417 10.7522C269.262 10.8944 269.126 11.0546 269.01 11.2295C268.894 11.3984 268.801 11.5827 268.736 11.777C268.672 11.9622 268.639 12.1566 268.638 12.3525C268.623 12.5307 268.662 12.7093 268.75 12.8649C268.791 12.9192 268.844 12.9633 268.905 12.9937C268.966 13.0242 269.033 13.0401 269.101 13.0404C269.311 13.0498 269.522 13.0285 269.726 12.9772L270.652 12.7596C270.979 12.6731 271.318 12.6353 271.656 12.6473C271.911 12.6518 272.158 12.7407 272.358 12.9C272.547 13.0715 272.68 13.2968 272.737 13.5458C272.816 13.8886 272.854 14.2398 272.849 14.5916C272.844 14.9871 272.792 15.3806 272.695 15.7638C272.593 16.1714 272.447 16.5668 272.26 16.9431C272.066 17.3303 271.831 17.6952 271.558 18.031C271.287 18.3694 270.979 18.6756 270.638 18.9435V19.9753C270.636 20.0903 270.607 20.2032 270.554 20.3052C270.518 20.3993 270.455 20.4802 270.371 20.5369L269.564 21.0001C269.538 21.0238 269.505 21.0369 269.469 21.0369C269.434 21.0369 269.401 21.0238 269.375 21.0001C269.347 20.9675 269.325 20.9296 269.312 20.8886C269.299 20.8476 269.294 20.8044 269.297 20.7615V19.7226C269.029 19.8167 268.746 19.8596 268.462 19.849C268.212 19.838 267.97 19.7604 267.76 19.6244C267.556 19.477 267.394 19.2785 267.29 19.0488C267.162 18.7493 267.095 18.427 267.093 18.1012C267.087 17.9839 267.114 17.8671 267.171 17.7643C267.211 17.6708 267.276 17.5905 267.36 17.5327L268.062 17.1326C268.174 17.0694 268.259 17.0483 268.322 17.0764C268.391 17.1207 268.443 17.1877 268.469 17.2659C268.518 17.3702 268.575 17.4711 268.638 17.5678C268.704 17.6592 268.797 17.7279 268.904 17.7643C269.043 17.7966 269.187 17.7966 269.326 17.7643C269.55 17.7123 269.764 17.6221 269.957 17.4976C270.16 17.3803 270.352 17.2464 270.533 17.0975C270.712 16.9467 270.874 16.7773 271.017 16.5921C271.155 16.4086 271.268 16.2081 271.354 15.9955C271.44 15.7861 271.483 15.5618 271.48 15.3357C271.49 15.2518 271.483 15.1669 271.459 15.086C271.435 15.0051 271.394 14.93 271.34 14.8654C271.281 14.8187 271.214 14.7841 271.141 14.7636C271.069 14.7431 270.994 14.7371 270.919 14.7461C270.682 14.7591 270.446 14.7967 270.217 14.8584C269.936 14.9286 269.62 14.9917 269.255 15.0619C268.97 15.1291 268.677 15.1505 268.385 15.1251C268.158 15.1097 267.943 15.0182 267.774 14.8654C267.598 14.6832 267.472 14.4582 267.409 14.2126C267.322 13.8472 267.282 13.4721 267.29 13.0966C267.29 12.6961 267.341 12.2973 267.444 11.9103C267.542 11.5165 267.679 11.1333 267.852 10.7662C268.023 10.4 268.235 10.054 268.483 9.73439C268.721 9.42281 268.989 9.13591 269.283 8.87805V7.84624C269.286 7.73215 269.313 7.61988 269.361 7.51634C269.401 7.42283 269.466 7.34254 269.55 7.28471L270.357 6.82144C270.382 6.79825 270.415 6.78534 270.449 6.78534C270.483 6.78534 270.515 6.79825 270.54 6.82144C270.57 6.85276 270.594 6.89031 270.608 6.93151C270.623 6.97272 270.628 7.01659 270.624 7.06009L270.652 8.14806Z" fill="#FAFAFA"/>
<path d="M276.682 71.4397L272.905 69.2778H272.87C271.207 68.3373 268.925 68.4776 266.399 69.9376C261.31 72.8716 257.189 80.0171 257.189 85.8922C257.189 88.8262 258.214 90.8828 259.878 91.8514L263.289 93.7957L264.103 92.434C265.032 92.227 265.924 91.8815 266.75 91.4092C271.831 88.4682 275.959 81.3227 275.959 75.4477C275.956 74.6553 275.859 73.866 275.671 73.0962L276.682 71.4397Z" fill="#367C3C"/>
<path d="M257.211 85.8781C257.211 88.8121 258.235 90.8687 259.899 91.8374L263.31 93.7817L264.125 92.42C265.053 92.2103 265.945 91.8625 266.771 91.3881C269.681 89.5547 272.043 86.9697 273.607 83.9057L260.271 76.1847C258.396 79.0809 257.339 82.4302 257.211 85.8781Z" fill="#263238"/>
<path d="M276.689 71.4397L272.94 69.2778H272.905C271.242 68.3373 268.961 68.4776 266.434 69.9376C263.908 71.5001 261.799 73.6507 260.285 76.2057L273.621 83.9268C275.085 81.3262 275.897 78.4095 275.987 75.4266C275.984 74.6342 275.887 73.8449 275.699 73.0752L276.689 71.4397Z" fill="#455A64"/>
<path d="M269.978 71.9662C264.897 74.9002 260.769 82.0457 260.769 87.9207C260.769 93.7957 264.897 96.1752 269.978 93.2412C275.06 90.3072 279.223 83.1477 279.223 77.2867C279.223 71.4257 275.067 69.0322 269.978 71.9662Z" fill="#37474F"/>
<path d="M274.667 84.6989L265.297 90.1106C265.184 90.1738 265.1 90.1106 265.1 89.9211V81.6104C265.098 81.5298 265.114 81.4498 265.149 81.3767C265.183 81.3036 265.233 81.2394 265.297 81.1893L274.667 75.7775C274.772 75.7144 274.864 75.7775 274.864 75.9671V84.2847C274.865 84.3642 274.848 84.4429 274.814 84.5147C274.779 84.5865 274.729 84.6495 274.667 84.6989Z" fill="#FAFAFA"/>
<path d="M271.824 77.9675C271.719 78.0307 271.628 77.9675 271.628 77.778V76.5146L268.336 78.4168V79.6802C268.337 79.7614 268.32 79.8419 268.284 79.915C268.249 79.9881 268.197 80.052 268.132 80.1014C268.027 80.1645 267.936 80.1014 267.936 79.9118V78.3396C267.935 78.2601 267.952 78.1814 267.986 78.1096C268.02 78.0378 268.07 77.9748 268.132 77.9254L271.824 75.8197C271.937 75.7565 272.021 75.8197 272.021 76.0092V77.5324C272.027 77.6155 272.012 77.6987 271.977 77.7746C271.943 77.8505 271.891 77.9168 271.824 77.9675Z" fill="#FAFAFA"/>
<path d="M271.824 76.4022L268.132 78.508C268.027 78.5712 267.936 78.508 267.936 78.3185V77.6166C267.935 77.5362 267.952 77.4566 267.986 77.3838C268.02 77.3109 268.07 77.2466 268.132 77.1954L271.824 75.0897C271.937 75.0265 272.021 75.0897 272.021 75.2792V75.9811C272.023 76.0617 272.007 76.1418 271.972 76.2149C271.938 76.288 271.888 76.3521 271.824 76.4022Z" fill="#FAFAFA"/>
<path d="M271.319 81.5894L268.638 83.1336C268.561 83.1828 268.497 83.1336 268.497 82.9932V82.4879C268.496 82.4302 268.508 82.373 268.533 82.3207C268.557 82.2684 268.593 82.2224 268.638 82.186L271.319 80.6418C271.403 80.5927 271.466 80.6418 271.466 80.7752V81.2806C271.468 81.34 271.455 81.3989 271.43 81.4526C271.404 81.5062 271.366 81.5531 271.319 81.5894Z" fill="#37474F"/>
<path d="M276.682 37.102L272.905 34.9331H272.87C271.207 33.9926 268.925 34.1329 266.399 35.5929C261.31 38.534 257.189 45.6724 257.189 51.5475C257.189 54.4815 258.214 56.5451 259.878 57.5067L263.289 59.451L264.103 58.0893C265.033 57.8855 265.925 57.5399 266.75 57.0645C271.831 54.1235 275.959 46.985 275.959 41.11C275.956 40.3152 275.859 39.5236 275.671 38.7515L276.682 37.102Z" fill="#367C3C"/>
<path d="M257.211 51.5615C257.211 54.4955 258.235 56.5591 259.899 57.5207L263.31 59.465L264.125 58.1033C265.054 57.8995 265.947 57.5539 266.771 57.0785C269.686 55.2347 272.048 52.6372 273.607 49.561L260.271 41.84C258.391 44.7443 257.333 48.104 257.211 51.5615Z" fill="#263238"/>
<path d="M276.689 37.1021L272.94 34.9331H272.905C271.242 33.9996 268.961 34.133 266.434 35.5929C263.908 37.1554 261.799 39.306 260.285 41.861L273.621 49.5821C275.077 46.9936 275.886 44.0921 275.98 41.124C275.977 40.3293 275.88 39.5377 275.692 38.7656L276.689 37.1021Z" fill="#455A64"/>
<path d="M269.978 37.6215C264.897 40.5625 260.769 47.7009 260.769 53.576C260.769 59.451 264.897 61.8375 269.978 58.8965C275.06 55.9555 279.223 48.817 279.223 42.942C279.223 37.0669 275.067 34.7155 269.978 37.6215Z" fill="#37474F"/>
<path d="M266.588 46.971C266.588 45.6373 267.29 44.1633 268.16 43.6439C269.031 43.1245 269.733 43.8194 269.733 45.16C269.733 46.5007 269.031 47.9677 268.16 48.4871C267.29 49.0065 266.588 48.3116 266.588 46.971Z" fill="white"/>
<path d="M270.968 53.7094L265.184 57.0505L265.493 53.204C265.627 51.5685 266.49 49.8909 267.515 49.3013L268.631 48.6556C269.656 48.066 270.519 48.7398 270.652 50.2279L270.968 53.7094Z" fill="white"/>
<path d="M270.406 42.963C270.406 41.6294 271.108 40.1554 271.979 39.6359C272.849 39.1165 273.551 39.8114 273.551 41.1521C273.551 42.4927 272.849 43.9597 271.979 44.4792C271.108 44.9986 270.406 44.3037 270.406 42.963Z" fill="white"/>
<path d="M274.772 49.7014L271.228 51.751L271.066 49.912C270.947 48.6205 270.364 47.8063 269.592 47.8063C269.864 46.7999 270.477 45.9191 271.326 45.3145L272.442 44.6757C273.467 44.0791 274.33 44.7529 274.464 46.241L274.772 49.7014Z" fill="white"/>
<path d="M180.604 180.587C180.604 176.236 177.726 171.884 171.97 168.564C160.466 161.917 141.788 161.917 130.304 168.564C124.549 171.884 121.671 176.236 121.671 180.587V188.61C121.671 192.962 124.549 197.314 130.304 200.641C141.809 207.281 160.487 207.281 171.97 200.641C177.726 197.314 180.604 192.962 180.604 188.61V180.587ZM131.729 171.027C136.867 168.058 143.76 166.43 151.137 166.43C158.514 166.43 165.407 168.058 170.545 171.027C175.192 173.709 177.754 177.106 177.754 180.587C177.754 184.069 175.192 187.466 170.545 190.148C165.407 193.117 158.493 194.752 151.137 194.752C143.781 194.752 136.867 193.117 131.729 190.148C127.083 187.466 124.521 184.069 124.521 180.587C124.521 177.106 127.083 173.695 131.729 171.027Z" fill="#367C3C"/>
<path opacity="0.3" d="M130.297 192.646C141.809 199.286 160.48 199.286 171.97 192.646C183.46 186.006 183.474 175.232 171.97 168.592C160.466 161.952 141.788 161.945 130.297 168.592C118.807 175.239 118.793 185.978 130.297 192.646ZM124.521 180.616C124.521 177.106 127.076 173.737 131.722 171.055C136.86 168.086 143.76 166.458 151.137 166.458C158.514 166.458 165.407 168.086 170.545 171.055C175.192 173.737 177.747 177.134 177.747 180.616C177.747 184.097 175.192 187.494 170.545 190.176C165.407 193.117 158.493 194.752 151.137 194.752C143.781 194.752 136.86 193.117 131.722 190.148C127.076 187.466 124.521 184.069 124.521 180.587V180.616Z" fill="white"/>
<path d="M124.521 180.587C124.538 182.005 124.935 183.391 125.672 184.602C126.837 182.581 128.893 180.679 131.729 179.05C136.86 176.081 143.76 174.446 151.137 174.446C158.514 174.446 165.407 176.081 170.545 179.05C173.01 180.349 175.099 182.261 176.61 184.602C177.341 183.39 177.736 182.004 177.754 180.587C177.754 177.078 175.192 173.709 170.545 171.027C165.407 168.065 158.514 166.43 151.137 166.43C143.76 166.43 136.86 168.065 131.729 171.027C127.075 173.695 124.521 177.106 124.521 180.587Z" fill="#367C3C"/>
<path opacity="0.1" d="M124.521 180.587C124.538 182.005 124.935 183.391 125.672 184.602C126.837 182.581 128.893 180.679 131.729 179.05C136.86 176.081 143.76 174.446 151.137 174.446C158.514 174.446 165.407 176.081 170.545 179.05C173.01 180.349 175.099 182.261 176.61 184.602C177.341 183.39 177.736 182.004 177.754 180.587C177.754 177.078 175.192 173.709 170.545 171.027C165.407 168.065 158.514 166.43 151.137 166.43C143.76 166.43 136.86 168.065 131.729 171.027C127.075 173.695 124.521 177.106 124.521 180.587Z" fill="black"/>
<path opacity="0.4" d="M131.722 174.656C136.86 171.694 143.76 170.059 151.137 170.059C158.514 170.059 165.407 171.694 170.545 174.656C174.378 176.874 176.785 179.57 177.515 182.377C176.813 185.185 174.378 187.908 170.545 190.098C165.407 193.117 158.493 194.752 151.137 194.752C143.781 194.752 136.86 193.117 131.722 190.148C127.89 187.937 125.482 185.234 124.759 182.426C125.503 179.57 127.89 176.874 131.722 174.656Z" fill="white"/>
<path opacity="0.1" d="M144.195 197.125V205.14C139.321 204.536 134.607 203.009 130.304 200.641C124.549 197.314 121.671 192.962 121.671 188.61V180.587C121.673 179.701 121.791 178.818 122.022 177.962C120.618 183.142 123.384 188.624 130.297 192.618C134.602 194.99 139.318 196.519 144.195 197.125Z" fill="black"/>
<path d="M131.175 197.721C131.139 197.005 130.935 196.308 130.578 195.686C130.222 195.064 129.724 194.535 129.125 194.141C128.918 193.99 128.675 193.895 128.42 193.868C128.164 193.841 127.906 193.882 127.672 193.987L117.782 199.666C117.57 199.81 117.401 200.01 117.295 200.244C117.188 200.478 117.148 200.737 117.179 200.992C117.209 201.705 117.407 202.401 117.756 203.024C118.104 203.647 118.594 204.18 119.186 204.579C119.394 204.732 119.639 204.826 119.896 204.852C120.153 204.877 120.412 204.834 120.646 204.726L130.564 199.069C130.777 198.919 130.945 198.715 131.053 198.478C131.16 198.241 131.202 197.98 131.175 197.721Z" fill="#37474F"/>
<path d="M130.564 199.062C130.776 198.913 130.944 198.71 131.051 198.474C131.158 198.239 131.201 197.979 131.175 197.721C131.166 197.188 131.049 196.663 130.831 196.177L118.035 203.491C118.342 203.927 118.733 204.297 119.186 204.579C119.394 204.732 119.639 204.826 119.896 204.852C120.153 204.878 120.412 204.834 120.646 204.726L130.564 199.069V199.062Z" fill="#263238"/>
<path d="M120.857 204.579C120.811 203.646 120.546 202.737 120.082 201.926C119.619 201.114 118.97 200.424 118.189 199.911C117.923 199.717 117.611 199.597 117.283 199.561C116.955 199.525 116.624 199.576 116.322 199.708L83.4236 217.256L88.337 225.931L120.092 206.278C120.356 206.086 120.566 205.828 120.7 205.53C120.834 205.232 120.888 204.904 120.857 204.579Z" fill="#367C3C"/>
<path opacity="0.1" d="M88.3018 225.924L120.056 206.271C120.332 206.079 120.55 205.817 120.69 205.512C120.829 205.207 120.885 204.87 120.85 204.537C120.81 203.538 120.502 202.568 119.958 201.729L85.7749 221.425L88.3018 225.924Z" fill="black"/>
<path d="M85.824 225.636C84.7987 224.964 83.9465 224.06 83.3367 222.996C82.7269 221.932 82.3766 220.74 82.3145 219.516C82.3145 217.27 83.9008 216.364 85.824 217.494C86.8492 218.165 87.7014 219.068 88.3113 220.131C88.9212 221.193 89.2714 222.384 89.3336 223.608C89.3476 225.889 87.7683 226.795 85.824 225.636Z" fill="#367C3C"/>
<g opacity="0.2">
<path d="M85.824 225.636C84.7987 224.964 83.9465 224.06 83.3367 222.996C82.7269 221.932 82.3766 220.74 82.3145 219.516C82.3145 217.27 83.9008 216.364 85.824 217.494C86.8492 218.165 87.7014 219.068 88.3113 220.131C88.9212 221.193 89.2714 222.384 89.3336 223.608C89.3476 225.889 87.7683 226.795 85.824 225.636Z" fill="black"/>
</g>
<path d="M279.735 148.117C280.093 134.781 279.033 131.573 275.474 129.123L274.071 136.844C274.071 136.844 275.692 145.969 275.516 148.994C275.369 151.662 275.109 155.003 274.478 157.158C274.362 157.537 274.113 157.861 273.776 158.07C273.04 158.594 272.383 159.22 271.824 159.93C271.291 160.492 270.835 160.632 270.905 160.808C271.007 161.003 271.18 161.153 271.388 161.228C271.596 161.302 271.825 161.295 272.028 161.208C272.483 161.027 272.915 160.791 273.312 160.506C272.998 161.324 272.555 162.087 272 162.766C270.729 164.317 270.673 165.272 273.235 165.3C274.843 165.3 276.127 164.324 277.334 160.786C277.801 159.489 278.179 158.162 278.465 156.814C279.065 153.943 279.49 151.039 279.735 148.117Z" fill="#FFA8A7"/>
<path d="M272.484 128.112C273.576 127.917 274.702 128.082 275.692 128.582C276.682 129.082 277.482 129.89 277.973 130.885C279.461 133.545 279.826 138.129 279.995 142.684C279.995 142.684 277.04 145.162 273.488 143.948L272.484 128.112Z" fill="#367C3C"/>
<path d="M277.475 201.533C277.742 201.638 277.812 202.15 277.854 203.168C277.854 203.94 278.043 205.274 277.152 205.562C276.26 205.849 274.92 205.688 274.344 204.965C273.642 204.052 273.13 203.259 272.098 202.157C271.2 201.196 270.231 200.297 269.873 198.95C269.543 197.728 269.817 197.202 270.645 196.844C271.789 196.36 273.586 197.953 274.485 198.199C275.243 198.409 277.201 201.434 277.475 201.533Z" fill="#263238"/>
<path d="M277.475 200.592V201.841C277.005 202.143 276.462 202.31 275.904 202.325C275.346 202.34 274.794 202.202 274.309 201.926C274.253 201.806 273.979 200.136 273.979 200.136L277.475 200.592Z" fill="#FFA8A7"/>
<path d="M267.325 208.79C267.547 209.461 267.732 210.143 267.88 210.833C268.034 211.591 268.259 212.855 267.992 213.423C267.725 213.992 266.693 214.364 265.086 214.35C263.752 214.513 262.469 214.96 261.324 215.662C259.83 216.296 258.203 216.554 256.586 216.413C255.182 216.252 253.68 215.424 253.448 214.834C253.217 214.244 253.526 213.627 256.888 212.195C256.888 212.195 261.562 210.672 263.205 208.875L267.325 208.79Z" fill="#263238"/>
<path d="M267.325 207.387V208.847C267.325 209.38 266.707 210.173 265.079 210.11C263.942 210.068 263.142 209.766 263.191 208.826V207.471L267.325 207.387Z" fill="#FFA8A7"/>
<path d="M278.289 183.971C278.011 181.751 277.515 179.565 276.808 177.443C276.808 177.443 277.257 171.828 277.468 166.479C277.699 160.716 277.468 153.465 277.566 152.027C277.566 152.027 258.965 148.264 258.614 154.932C258.263 161.601 259.316 178.559 259.569 181.486C259.822 184.413 260.271 186.996 260.896 191.741C261.52 196.486 263.17 207.485 263.17 207.485C263.813 207.812 264.526 207.976 265.247 207.961C265.969 207.947 266.675 207.754 267.304 207.401C267.304 207.401 268.617 194.064 268.476 190.702C268.371 188.198 267.941 185.718 267.199 183.325C267.199 183.325 267.55 177.829 267.859 173.049C268.167 168.269 268.504 165.974 268.56 163.924L268.961 163.727C268.961 163.727 269.368 171.975 269.592 174.902C269.817 177.829 270.294 180.637 271.122 186.069C271.859 190.786 274.042 200.768 274.042 200.768C276.148 201.919 277.44 200.62 277.44 200.62C277.44 200.62 278.858 188.063 278.289 183.971Z" fill="#37474F"/>
<path d="M268.596 163.868C268.596 163.868 273.109 161.643 275.369 159.656C275.369 159.656 273.263 162.611 270.519 163.917C270.519 163.917 269.536 174.165 269.543 173.961L268.975 163.868H268.596Z" fill="#263238"/>
<path d="M264.581 126L265.683 132.057L271.15 131.657L270.006 124.792L264.581 126Z" fill="#FFA8A7"/>
<path d="M276.934 131.215C276.387 129.565 274.302 127.775 272.211 128.161C269.113 128.693 266.06 129.457 263.079 130.45C261.162 131.152 259.422 132.787 259.26 139.083C259.26 139.083 258.621 153.767 258.607 156.631C262.603 158.199 266.954 158.629 271.179 157.874C276.934 156.617 277.629 154.231 277.629 154.231C277.629 154.231 277.7 143.702 277.531 139.111C277.356 135.216 277.306 132.345 276.934 131.215Z" fill="#F5F5F5"/>
<path d="M260.355 118.629C260.355 118.629 258.951 120.84 259.141 121.051C259.33 121.262 260.369 121.43 260.369 121.43L260.355 118.629Z" fill="#FFA8A7"/>
<path d="M264.208 112.509C261.317 113.211 260.509 114.488 260.334 119.107C260.158 123.943 260.685 125.424 261.338 126.084C261.773 126.512 264.145 126.54 265.346 126.182C266.841 125.733 270.203 124.455 271.74 121.971C273.544 119.072 273.951 115.19 271.908 113.646C269.045 111.498 265.388 112.235 264.208 112.509Z" fill="#FFA8A7"/>
<path d="M260.369 113.716C261.034 114.684 261.973 115.432 263.065 115.864C263.619 116.496 263.31 118.959 264.286 119.373C264.286 119.373 264.707 117.577 266.216 117.766C267.725 117.956 267.978 119.872 267.052 121.079C266.125 122.286 265.227 121.844 265.227 121.844C265.227 121.844 265.332 124.392 266.497 125.81C267.707 126.046 268.956 125.988 270.14 125.642C271.586 125.298 273.6 123.431 274.422 121.486C276.162 117.38 276.204 113.716 273.579 112.677C273.256 110.803 271.761 109.996 270.07 109.652C266.427 108.901 264.082 111.175 261.282 110.972C259.674 110.838 259.373 112.01 260.369 113.716Z" fill="#263238"/>
<path d="M273.642 113.281L275.355 112.214C275.289 112.093 275.2 111.986 275.091 111.901C274.983 111.816 274.858 111.754 274.725 111.718C274.591 111.683 274.452 111.675 274.316 111.696C274.18 111.716 274.049 111.765 273.932 111.838C273.815 111.91 273.714 112.007 273.635 112.12C273.557 112.233 273.502 112.361 273.475 112.497C273.448 112.632 273.449 112.771 273.478 112.906C273.506 113.041 273.562 113.168 273.642 113.281Z" fill="#263238"/>
<path d="M239.915 141.357C240.814 141.758 251.413 149.591 253.069 148.678C254.726 147.766 263.198 137.855 263.198 137.855C263.914 136.748 264.295 135.457 264.295 134.138C264.295 132.82 263.914 131.529 263.198 130.422C261.542 130.779 260.071 131.724 259.057 133.082C257.653 135.23 251.49 142.909 251.49 142.909C249.974 142.151 248.458 141.379 246.956 140.599C245.713 139.954 244.464 139.315 243.25 138.62C242.907 138.466 242.586 138.268 242.295 138.03C241.691 137.441 241.797 136.002 241.811 135.223C241.806 134.859 241.822 134.496 241.86 134.135C241.916 133.686 242 132.598 241.193 132.942C241.042 133.017 240.912 133.128 240.814 133.264C240.687 133.429 240.589 133.614 240.526 133.812C240.372 134.282 240.421 134.802 240.287 135.272C240.271 135.344 240.234 135.409 240.182 135.461C240.148 135.491 240.108 135.514 240.064 135.527C240.021 135.54 239.975 135.544 239.93 135.539C238.764 135.503 237.655 133.868 237.122 132.998C236.928 132.585 236.621 132.234 236.237 131.987C235.9 131.885 235.537 131.899 235.208 132.026C234.879 132.153 234.601 132.386 234.419 132.689C233.915 133.447 233.707 134.364 233.837 135.265C233.941 136.489 234.482 137.635 235.36 138.494C236.702 139.704 238.243 140.673 239.915 141.357Z" fill="#FFA8A7"/>
<path d="M264.145 130.106C262.98 130.239 261.338 130.022 259.049 132.485C257.202 134.594 255.48 136.809 253.89 139.118C254.192 140.331 254.837 141.43 255.747 142.287C256.656 143.143 257.793 143.719 259.021 143.948C259.021 143.948 263.029 139.834 264.145 137.574C265.261 135.314 265.528 131.636 264.145 130.106Z" fill="#367C3C"/>
</svg>
