<svg width="268" height="272" viewBox="0 0 268 272" fill="none" xmlns="http://www.w3.org/2000/svg">
<path d="M130.81 271.087C203.054 271.087 261.62 237.274 261.62 195.564C261.62 153.853 203.054 120.04 130.81 120.04C58.5656 120.04 0 153.853 0 195.564C0 237.274 58.5656 271.087 130.81 271.087Z" fill="#F5F5F5"/>
<path d="M200.659 253.249C215.101 253.249 226.808 245.908 226.808 236.853C226.808 227.798 215.101 220.458 200.659 220.458C186.218 220.458 174.511 227.798 174.511 236.853C174.511 245.908 186.218 253.249 200.659 253.249Z" fill="#E6E6E6"/>
<path d="M248.147 178.054L242.722 175.01C242.722 175.01 242.211 165.105 242.99 157.202C244.08 146.097 251.252 132.728 259.812 135.894C268.372 139.059 255.885 150.341 253.115 159.765C250.345 169.19 248.147 178.054 248.147 178.054Z" fill="#37474F"/>
<path d="M245.62 176.891C245.658 176.89 245.696 176.882 245.731 176.867C245.766 176.851 245.797 176.829 245.823 176.801C245.849 176.773 245.869 176.74 245.883 176.705C245.896 176.669 245.902 176.631 245.9 176.593C245.06 151.918 257.346 139.498 257.468 139.376C257.522 139.323 257.553 139.25 257.553 139.174C257.554 139.098 257.524 139.025 257.471 138.971C257.418 138.917 257.345 138.886 257.269 138.886C257.193 138.885 257.12 138.915 257.066 138.968C256.938 139.09 244.476 151.686 245.322 176.617C245.324 176.655 245.333 176.692 245.348 176.726C245.364 176.76 245.387 176.791 245.414 176.816C245.442 176.842 245.474 176.861 245.51 176.874C245.545 176.887 245.583 176.893 245.62 176.891Z" fill="white"/>
<path d="M251.124 179.771L247.733 177.811C247.733 177.811 247.155 170.809 250.588 162.298C253.578 154.889 260.999 148.746 264.725 150.036C268.451 151.327 268.378 153.975 266.551 156.733C264.725 159.491 253.663 166.14 251.124 179.771Z" fill="#455A64"/>
<path d="M249.365 179.022C249.403 179.023 249.441 179.016 249.476 179.002C249.511 178.988 249.544 178.967 249.571 178.94C249.598 178.914 249.62 178.882 249.635 178.847C249.649 178.812 249.657 178.774 249.657 178.736C249.59 163.132 264.238 152.557 264.39 152.478C264.451 152.433 264.493 152.365 264.505 152.29C264.518 152.215 264.5 152.138 264.457 152.076C264.435 152.045 264.408 152.019 264.375 151.998C264.343 151.978 264.308 151.965 264.27 151.958C264.233 151.952 264.195 151.953 264.158 151.962C264.121 151.971 264.086 151.987 264.055 152.009C263.903 152.112 249.012 162.834 249.078 178.736C249.078 178.773 249.086 178.811 249.1 178.845C249.115 178.88 249.136 178.912 249.162 178.938C249.189 178.965 249.22 178.986 249.255 179C249.29 179.015 249.327 179.022 249.365 179.022Z" fill="white"/>
<path d="M150.7 132.618L147.175 130.603C147.019 130.486 146.896 130.331 146.817 130.153C146.738 129.975 146.706 129.78 146.724 129.586V106.098C146.759 105.468 146.97 104.861 147.333 104.345L150.84 106.366C150.489 106.881 150.291 107.485 150.268 108.107V131.614C150.246 131.804 150.274 131.997 150.35 132.174C150.425 132.35 150.546 132.503 150.7 132.618Z" fill="#367C3C"/>
<path opacity="0.55" d="M150.7 132.618L147.175 130.603C147.019 130.486 146.896 130.331 146.817 130.153C146.738 129.975 146.706 129.78 146.724 129.586V106.098C146.759 105.468 146.97 104.861 147.333 104.345L150.84 106.366C150.489 106.881 150.291 107.485 150.268 108.107V131.614C150.246 131.804 150.274 131.997 150.35 132.174C150.425 132.35 150.546 132.503 150.7 132.618Z" fill="white"/>
<path d="M151.82 105.343L201 76.9542C201.883 76.4428 202.595 76.8568 202.595 77.8735V101.41C202.566 101.963 202.406 102.502 202.129 102.981C201.852 103.46 201.465 103.867 201 104.168L151.82 132.515C150.943 133.02 150.225 132.606 150.225 131.589V108.107C150.256 107.554 150.417 107.016 150.694 106.536C150.971 106.056 151.357 105.647 151.82 105.343Z" fill="#367C3C"/>
<path opacity="0.7" d="M151.82 105.343L201 76.9542C201.883 76.4428 202.595 76.8568 202.595 77.8735V101.41C202.566 101.963 202.406 102.502 202.129 102.981C201.852 103.46 201.465 103.867 201 104.168L151.82 132.515C150.943 133.02 150.225 132.606 150.225 131.589V108.107C150.256 107.554 150.417 107.016 150.694 106.536C150.971 106.056 151.357 105.647 151.82 105.343Z" fill="white"/>
<path d="M198.601 74.8295L202.072 76.8081C201.895 76.7425 201.705 76.7209 201.519 76.7453C201.332 76.7697 201.154 76.8394 201 76.9482L151.82 105.343C151.405 105.6 151.054 105.951 150.797 106.366L147.291 104.345C147.541 103.933 147.885 103.587 148.295 103.334L197.475 74.9391C197.69 74.8068 197.935 74.7333 198.187 74.726C198.332 74.7248 198.474 74.7604 198.601 74.8295Z" fill="#367C3C"/>
<path opacity="0.85" d="M198.601 74.8295L202.072 76.8081C201.895 76.7425 201.705 76.7209 201.519 76.7453C201.332 76.7697 201.154 76.8394 201 76.9482L151.82 105.343C151.405 105.6 151.054 105.951 150.797 106.366L147.291 104.345C147.541 103.933 147.885 103.587 148.295 103.334L197.475 74.9391C197.69 74.8068 197.935 74.7333 198.187 74.726C198.332 74.7248 198.474 74.7604 198.601 74.8295Z" fill="white"/>
<path d="M155.668 107.517L197.153 83.5173C197.579 83.2737 197.92 83.4442 197.92 83.9008C197.901 84.1584 197.822 84.4079 197.689 84.629C197.555 84.8502 197.372 85.0367 197.153 85.1733L155.668 109.161C155.248 109.404 154.901 109.234 154.901 108.777C154.922 108.522 155.002 108.275 155.135 108.056C155.268 107.837 155.451 107.653 155.668 107.517Z" fill="#367C3C"/>
<path d="M155.668 124.308L197.153 100.321C197.579 100.077 197.92 100.247 197.92 100.71C197.901 100.967 197.822 101.216 197.689 101.436C197.555 101.656 197.371 101.841 197.153 101.977L155.668 125.939C155.248 126.183 154.901 126.006 154.901 125.55C154.925 125.298 155.007 125.055 155.14 124.84C155.273 124.624 155.454 124.442 155.668 124.308Z" fill="#367C3C"/>
<path d="M155.668 115.9L197.153 91.9067C197.579 91.6632 197.92 91.8398 197.92 92.2964C197.9 92.5537 197.821 92.8028 197.687 93.0238C197.554 93.2448 197.371 93.4315 197.153 93.5688L155.668 117.556C155.248 117.8 154.901 117.623 154.901 117.166C154.921 116.91 155 116.662 155.134 116.442C155.267 116.222 155.45 116.037 155.668 115.9Z" fill="#367C3C"/>
<path d="M155.668 120.089L197.153 96.1014C197.579 95.8579 197.92 96.0284 197.92 96.485C197.901 96.7425 197.822 96.9921 197.689 97.2132C197.555 97.4343 197.372 97.6208 197.153 97.7574L155.668 121.745C155.248 121.988 154.901 121.818 154.901 121.361C154.92 121.104 154.999 120.854 155.132 120.633C155.266 120.412 155.449 120.226 155.668 120.089Z" fill="#367C3C"/>
<path d="M155.668 111.705L197.153 87.7181C197.579 87.4746 197.92 87.6451 197.92 88.1078C197.901 88.3645 197.822 88.6132 197.689 88.8333C197.555 89.0535 197.371 89.2388 197.153 89.3741L155.668 113.349C155.248 113.593 154.901 113.416 154.901 112.96C154.923 112.706 155.004 112.46 155.137 112.243C155.271 112.025 155.452 111.841 155.668 111.705Z" fill="#367C3C"/>
<path d="M150.432 96.7712L147.083 94.8656C146.927 94.7492 146.804 94.5944 146.725 94.4163C146.646 94.2382 146.614 94.0428 146.633 93.8488V31.3723C146.666 30.7419 146.877 30.1338 147.242 29.6189L150.505 31.5062C150.173 32.0102 149.986 32.5956 149.963 33.1987V95.7423C149.94 95.9402 149.972 96.1405 150.055 96.3218C150.137 96.5031 150.268 96.6585 150.432 96.7712Z" fill="#263238"/>
<path d="M201.573 1.83256C201.277 1.80624 200.982 1.87907 200.733 2.03956L151.552 30.4347C151.122 30.704 150.761 31.0711 150.499 31.5062L147.23 29.6189C147.484 29.2104 147.828 28.8649 148.234 28.6082L197.414 0.219201C197.628 0.0834157 197.874 0.00769885 198.127 2.75812e-05C198.271 -0.00113512 198.414 0.0344807 198.541 0.103526L201.573 1.83256Z" fill="#37474F"/>
<path d="M151.552 30.4347L200.732 2.04567C201.615 1.53427 202.328 1.94826 202.328 2.96498V65.5633C202.298 66.1163 202.139 66.6545 201.861 67.1339C201.584 67.6133 201.197 68.0201 200.732 68.3213L151.558 96.6677C150.676 97.173 149.957 96.759 149.957 95.7423V33.1987C149.988 32.6454 150.149 32.107 150.426 31.627C150.703 31.1469 151.089 30.7386 151.552 30.4347Z" fill="#455A64"/>
<path d="M154.28 32.4742L198.419 6.98921C199.21 6.5326 199.85 6.90398 199.85 7.8172V64.0352C199.823 64.5316 199.679 65.0148 199.431 65.4453C199.182 65.8759 198.835 66.2417 198.419 66.5131L154.28 91.9493C153.488 92.4059 152.849 92.0346 152.849 91.1213V34.9521C152.876 34.4556 153.019 33.9725 153.268 33.5419C153.516 33.1114 153.863 32.7455 154.28 32.4742Z" fill="#F0F0F0"/>
<path d="M190.973 55.5118C190.198 54.1574 188.966 53.1229 187.499 52.5931C186.031 52.0633 184.422 52.0728 182.961 52.6199C182.961 52.6199 182.705 57.3261 185.116 64.0839C185.116 64.0839 195.618 79.3895 197.713 80.8142L200.617 71.1827C200.617 71.1827 192.952 58.6107 190.973 55.5118Z" fill="#B16668"/>
<path d="M165.238 58.7811C162.761 59.7248 163.132 62.434 163.211 64.8389C163.254 66.3183 163.497 68.8266 163.655 72.2664L164.362 83.3407L164.203 107.365C172.258 110.11 182.504 107.693 191.101 98.141C191.101 98.141 190.62 67.3959 190.62 62.3488C190.62 62.1174 190.62 61.8922 190.62 61.6608C190.315 54.7569 186.888 51.8041 182.973 52.6321C181.719 52.9 179.004 53.7645 177.208 54.3246L172.276 55.9197C172.276 55.9197 167.71 57.8375 165.238 58.7811Z" fill="#367C3C"/>
<path opacity="0.2" d="M165.238 58.7811C162.761 59.7248 163.132 62.434 163.211 64.8389C163.254 66.3183 163.497 68.8266 163.655 72.2664L164.362 83.3407L164.203 107.365C172.258 110.11 182.504 107.693 191.101 98.141C191.101 98.141 190.62 67.3959 190.62 62.3488C190.62 62.1174 190.62 61.8922 190.62 61.6608C190.315 54.7569 186.888 51.8041 182.973 52.6321C181.719 52.9 179.004 53.7645 177.208 54.3246L172.276 55.9197C172.276 55.9197 167.71 57.8375 165.238 58.7811Z" fill="black"/>
<path d="M183.893 34.8608C183.893 32.6386 184.24 29.7224 186.498 28.657C187.643 28.1151 189.274 27.8899 190.364 28.5961C191.454 29.3023 192.148 30.3008 191.953 31.6889C191.763 32.7253 191.244 33.6729 190.474 34.392C190.341 34.4946 190.241 34.6344 190.188 34.7938C190.167 34.9223 190.178 35.0537 190.218 35.1774C190.51 36.5472 190.492 38.118 189.561 39.1651C189.24 39.5213 188.835 39.7911 188.383 39.9496C187.931 40.1081 187.446 40.1503 186.973 40.0723C186.442 39.9467 185.947 39.7015 185.525 39.3554C185.103 39.0094 184.765 38.5716 184.538 38.0753C184.074 37.0692 183.853 35.9681 183.893 34.8608Z" fill="#263238"/>
<path d="M169.001 42.6658C169.001 42.6658 170.255 49.1253 170.754 50.1055C170.905 50.3908 171.125 50.6336 171.394 50.8113C171.663 50.989 171.973 51.096 172.295 51.1222L172.209 46.3735L169.001 42.6658Z" fill="#263238"/>
<path d="M170.541 32.5169C170.541 32.5169 169.378 32.803 169.324 32.8335C168.787 33.0335 168.306 33.3567 167.917 33.7771C167.615 34.0978 167.396 34.4869 167.277 34.9109C167.158 35.335 167.144 35.7816 167.235 36.2124C167.431 36.84 167.785 37.4063 168.264 37.8562C167.896 38.2323 167.608 38.6798 167.418 39.1712C167.232 39.6678 167.232 40.2149 167.418 40.7115C167.548 41.0005 167.716 41.2708 167.917 41.5152C168.362 42.0814 168.885 42.6354 169.652 42.5501C170.213 42.4893 170.779 42.3979 171.339 42.3249L170.541 32.5169Z" fill="#263238"/>
<path d="M172.045 42.1605C171.576 42.6171 170.9 41.7465 170.316 41.1986C169.731 40.6506 167.832 40.2001 166.882 42.7632C165.932 45.3263 167.722 47.999 169.22 48.1451C171.801 48.3887 172.191 46.3735 172.191 46.3735L172.276 56.979C175.095 62.8785 186.711 60.6319 180.8 54.5072V51.2501C181.984 51.147 183.151 50.9017 184.276 50.5195C186.175 49.6733 187.375 47.6216 187.929 45.095C188.854 41.0342 188.775 38.6294 188.465 31.3053C188.252 26.2765 179.284 24.724 174.815 29.1684C170.346 33.6127 172.045 42.1605 172.045 42.1605Z" fill="#B16668"/>
<path d="M170.304 41.1986C169.999 40.9611 170.03 40.2671 170.011 39.9322C169.98 39.1203 169.994 38.3073 170.054 37.497C170.133 36.2184 170.486 34.8791 170.194 33.6249C170.049 33.169 170.005 32.687 170.066 32.2124C170.101 31.9749 170.21 31.7546 170.379 31.5838C170.548 31.4129 170.767 31.3004 171.004 31.2627C170.724 30.5302 170.646 29.7356 170.78 28.9629C170.914 28.1901 171.253 27.4677 171.763 26.8718C172.273 26.2759 172.934 25.8286 173.677 25.577C174.42 25.3255 175.217 25.279 175.984 25.4424C176.189 24.7409 176.581 24.108 177.117 23.6107C177.653 23.1134 178.313 22.7702 179.028 22.6175C179.847 22.4448 180.695 22.474 181.5 22.7028C181.91 22.8136 182.29 23.0135 182.614 23.2881C182.939 23.5628 183.198 23.9054 183.375 24.2918C183.88 23.2081 185.627 22.234 187.223 22.4166C188.562 22.5749 189.938 23.4029 190.394 24.4866C190.706 25.1903 190.867 25.9514 190.867 26.7209C190.867 27.4905 190.706 28.2515 190.394 28.9553C190.145 29.4445 189.793 29.874 189.362 30.2145C188.931 30.5549 188.432 30.7983 187.898 30.9278C186.811 31.191 185.663 31.0115 184.708 30.4286C184.706 31.0043 184.518 31.5639 184.172 32.0245C183.827 32.4851 183.342 32.8221 182.79 32.9856C182.023 33.2334 181.204 33.2734 180.416 33.1013C179.676 32.8183 179.002 32.3851 178.437 31.8289C178.388 32.3491 178.197 32.8457 177.884 33.2644C177.572 33.6832 177.15 34.008 176.666 34.2033C176.179 34.3859 175.658 34.4603 175.14 34.4214C174.622 34.3825 174.118 34.2312 173.664 33.978C173.891 34.7023 174.018 35.4539 174.042 36.2124C174.076 36.6065 174.015 37.003 173.865 37.3691C173.784 37.5474 173.654 37.6991 173.49 37.8068C173.326 37.9145 173.136 37.9738 172.94 37.9779C173.379 39.0871 173.536 40.2878 173.396 41.4725C173.383 41.9463 173.197 42.3989 172.873 42.7449C171.82 43.719 170.955 41.71 170.304 41.1986Z" fill="#263238"/>
<path d="M170.547 33.1196L167.686 32.115C168.094 31.0618 169.062 30.4347 169.853 30.7087C170.645 30.9826 170.949 32.0663 170.547 33.1196Z" fill="#263238"/>
<path d="M180.769 51.2501C180.769 51.2501 176.508 51.3962 175.046 50.8848C174.157 50.5749 173.422 49.9337 172.995 49.0949C173.203 49.9817 173.602 50.8127 174.164 51.5302C175.247 52.8391 180.769 52.5408 180.769 52.5408V51.2501Z" fill="#9A4A4D"/>
<path d="M179.673 39.7374C179.672 40.003 179.59 40.262 179.438 40.4797C179.285 40.6973 179.07 40.8632 178.821 40.955C178.352 41.0829 177.969 40.7237 177.969 40.1636C177.97 39.8981 178.053 39.6395 178.205 39.422C178.357 39.2046 178.572 39.0385 178.821 38.9459C179.29 38.8181 179.673 39.1773 179.673 39.7374Z" fill="#263238"/>
<path d="M179.028 36.9491L176.958 38.2641C176.868 37.9511 176.878 37.6177 176.988 37.3109C177.097 37.0041 177.299 36.7391 177.567 36.5533C177.684 36.4673 177.819 36.4087 177.962 36.3821C178.105 36.3554 178.252 36.3613 178.393 36.3993C178.533 36.4373 178.663 36.5065 178.773 36.6017C178.883 36.6969 178.97 36.8156 179.028 36.9491Z" fill="#263238"/>
<path d="M180.386 45.4785L182.322 45.7951C182.267 46.1036 182.105 46.3828 181.865 46.5834C181.624 46.7839 181.32 46.8929 181.007 46.891C180.471 46.8057 180.191 46.1726 180.386 45.4785Z" fill="#9A4A4D"/>
<path d="M187.369 36.5411L185.713 35.5122C186.048 34.8729 186.693 34.5868 187.15 34.8669C187.383 35.0716 187.535 35.3545 187.575 35.6626C187.615 35.9708 187.542 36.2831 187.369 36.5411Z" fill="#263238"/>
<path d="M186.936 38.0266C186.936 38.2916 186.855 38.55 186.703 38.7676C186.552 38.9851 186.338 39.1514 186.09 39.2443C185.621 39.3721 185.238 39.0129 185.238 38.4528C185.241 38.1876 185.323 37.9293 185.476 37.712C185.628 37.4947 185.842 37.3285 186.09 37.2352C186.559 37.1073 186.936 37.4604 186.936 38.0266Z" fill="#263238"/>
<path d="M182.322 38.2641L182.419 44.1818L185.463 42.5927L182.322 38.2641Z" fill="#9A4A4D"/>
<path d="M163.698 109.453C163.837 111.051 164.299 112.605 165.056 114.019C165.895 115.335 166.92 116.522 168.1 117.544C168.226 117.641 168.318 117.775 168.362 117.927C168.404 118.244 168.045 118.463 167.753 118.536C167.087 118.635 166.408 118.502 165.829 118.159C165.395 117.905 164.996 117.596 164.642 117.24C164.52 117.13 163.765 116.594 163.765 116.472C164.004 117.755 164.452 118.989 165.092 120.125C165.722 121.103 166.289 122.12 166.791 123.169C167.077 123.857 167.211 124.746 166.681 125.27C166.457 125.459 166.193 125.595 165.908 125.666C164.944 125.937 163.925 125.949 162.955 125.698C161.985 125.448 161.099 124.945 160.386 124.241C159.762 123.562 159.241 122.795 158.84 121.964C158.596 121.507 158.377 121.038 158.182 120.558C157.858 119.721 157.607 118.857 157.433 117.976C156.965 115.864 156.788 113.714 156.465 111.596C155.507 104.848 155.124 98.0313 155.321 91.2188C156.417 68.6561 157.957 61.0277 165.251 58.7811C167.314 60.3153 168.24 66.8845 166.066 72.7413C164.988 79.2834 164.28 85.8813 163.948 92.5034C163.814 95.6327 163.308 101.94 163.455 105.069C163.522 106.47 163.522 107.87 163.698 109.453Z" fill="#B16668"/>
<path d="M17.3267 209.572L13.8017 207.557C13.6459 207.44 13.5227 207.286 13.4438 207.108C13.3649 206.93 13.333 206.734 13.3511 206.54V183.058C13.3861 182.429 13.597 181.821 13.9599 181.305L17.4058 183.326C17.0548 183.841 16.8564 184.445 16.8335 185.068V208.543C16.8133 208.744 16.8487 208.946 16.9357 209.127C17.0226 209.309 17.1579 209.463 17.3267 209.572Z" fill="#367C3C"/>
<path opacity="0.55" d="M17.3267 209.572L13.8017 207.557C13.6459 207.44 13.5227 207.286 13.4438 207.108C13.3649 206.93 13.333 206.734 13.3511 206.54V183.058C13.3861 182.429 13.597 181.821 13.9599 181.305L17.4058 183.326C17.0548 183.841 16.8564 184.445 16.8335 185.068V208.543C16.8133 208.744 16.8487 208.946 16.9357 209.127C17.0226 209.309 17.1579 209.463 17.3267 209.572Z" fill="white"/>
<path d="M18.4471 182.304L67.6272 153.908C68.5039 153.397 69.2223 153.811 69.2223 154.828V178.365C69.1909 178.919 69.0296 179.457 68.7515 179.938C68.4733 180.418 68.0861 180.826 67.6211 181.129L18.4471 209.469C17.5644 209.974 16.8521 209.56 16.8521 208.543V185.061C16.8813 184.509 17.0411 183.97 17.3183 183.491C17.5956 183.012 17.9824 182.605 18.4471 182.304Z" fill="#367C3C"/>
<path opacity="0.7" d="M18.4471 182.304L67.6272 153.908C68.5039 153.397 69.2223 153.811 69.2223 154.828V178.365C69.1909 178.919 69.0296 179.457 68.7515 179.938C68.4733 180.418 68.0861 180.826 67.6211 181.129L18.4471 209.469C17.5644 209.974 16.8521 209.56 16.8521 208.543V185.061C16.8813 184.509 17.0411 183.97 17.3183 183.491C17.5956 183.012 17.9824 182.605 18.4471 182.304Z" fill="white"/>
<path d="M65.2284 151.79L68.6986 153.768C68.5221 153.703 68.3322 153.681 68.1455 153.706C67.9587 153.73 67.7808 153.8 67.6271 153.908L18.447 182.304C18.0248 182.558 17.6682 182.909 17.4059 183.326L13.8992 181.305C14.1575 180.9 14.508 180.562 14.922 180.319L64.102 151.924C64.3167 151.791 64.5623 151.718 64.8144 151.711C64.9568 151.702 65.0992 151.729 65.2284 151.79Z" fill="#367C3C"/>
<path opacity="0.85" d="M65.2284 151.79L68.6986 153.768C68.5221 153.703 68.3322 153.681 68.1455 153.706C67.9587 153.73 67.7808 153.8 67.6271 153.908L18.447 182.304C18.0248 182.558 17.6682 182.909 17.4059 183.326L13.8992 181.305C14.1575 180.9 14.508 180.562 14.922 180.319L64.102 151.924C64.3167 151.791 64.5623 151.718 64.8144 151.711C64.9568 151.702 65.0992 151.729 65.2284 151.79Z" fill="white"/>
<path d="M22.2764 184.471L63.761 160.484C64.1811 160.24 64.5281 160.411 64.5281 160.873C64.5082 161.13 64.4285 161.378 64.2952 161.598C64.162 161.818 63.979 162.003 63.761 162.14L22.2764 186.127C21.8502 186.37 21.5093 186.2 21.5093 185.743C21.5278 185.486 21.6069 185.236 21.7402 185.015C21.8736 184.794 22.0573 184.608 22.2764 184.471Z" fill="#367C3C"/>
<path d="M22.2764 201.238L63.7793 177.275C64.1994 177.031 64.5464 177.208 64.5464 177.664C64.5265 177.921 64.4467 178.169 64.3135 178.389C64.1803 178.609 63.9973 178.794 63.7793 178.931L22.2764 202.894C21.8502 203.137 21.5093 202.961 21.5093 202.504C21.5277 202.247 21.6069 201.999 21.7403 201.779C21.8737 201.558 22.0574 201.373 22.2764 201.238Z" fill="#367C3C"/>
<path d="M22.2764 192.854L63.761 168.867C64.1811 168.624 64.5281 168.794 64.5281 169.251C64.5082 169.508 64.4285 169.757 64.2953 169.978C64.1621 170.199 63.9792 170.385 63.761 170.523L22.2764 194.51C21.8502 194.754 21.5093 194.583 21.5093 194.127C21.5268 193.869 21.6055 193.619 21.7389 193.398C21.8724 193.176 22.0566 192.99 22.2764 192.854Z" fill="#367C3C"/>
<path d="M22.2764 197.043L63.761 173.056C64.1811 172.812 64.5281 172.983 64.5281 173.439C64.5092 173.697 64.4298 173.946 64.2966 174.167C64.1633 174.388 63.9798 174.575 63.761 174.712L22.2764 198.699C21.8502 198.943 21.5093 198.772 21.5093 198.315C21.5278 198.058 21.6069 197.808 21.7402 197.587C21.8736 197.366 22.0573 197.18 22.2764 197.043Z" fill="#367C3C"/>
<path d="M22.2764 188.666L63.761 164.672C64.1811 164.429 64.5281 164.605 64.5281 165.062C64.5082 165.318 64.4285 165.566 64.2952 165.786C64.162 166.006 63.979 166.192 63.761 166.328L22.2764 190.322C21.8502 190.565 21.5093 190.389 21.5093 189.932C21.5277 189.675 21.6069 189.427 21.7403 189.206C21.8737 188.986 22.0574 188.801 22.2764 188.666Z" fill="#367C3C"/>
<path d="M17.1199 173.622L13.7531 171.741C13.5969 171.624 13.4734 171.469 13.3945 171.291C13.3155 171.113 13.2839 170.918 13.3026 170.724V108.247C13.3353 107.617 13.5464 107.009 13.9114 106.494L17.1747 108.381C16.8427 108.885 16.6553 109.471 16.6328 110.074V172.617C16.6165 172.813 16.6531 173.01 16.7388 173.186C16.8245 173.363 16.9561 173.513 17.1199 173.622Z" fill="#263238"/>
<path d="M68.2603 78.7076C67.965 78.6813 67.6694 78.7541 67.4201 78.9146L18.2401 107.31C17.8096 107.579 17.4487 107.946 17.1868 108.381L13.9175 106.494C14.1717 106.086 14.5151 105.74 14.922 105.483L64.1021 77.0943C64.3155 76.9585 64.5616 76.8828 64.8144 76.8751C64.959 76.8739 65.1014 76.9095 65.2284 76.9786L68.2603 78.7076Z" fill="#37474F"/>
<path d="M18.2399 107.304L67.4199 78.9146C68.2966 78.4032 69.015 78.8172 69.015 79.8339V142.432C68.9839 142.986 68.8233 143.524 68.5463 144.004C68.2692 144.484 67.8835 144.892 67.4199 145.196L18.2399 173.537C17.3571 174.042 16.6448 173.634 16.6448 172.617V110.068C16.675 109.514 16.8351 108.975 17.1123 108.495C17.3894 108.015 17.7757 107.607 18.2399 107.304Z" fill="#455A64"/>
<path d="M20.7605 109.246L64.8935 83.7608C65.685 83.3041 66.3243 83.6755 66.3243 84.5887V140.746C66.2985 141.243 66.1554 141.726 65.9067 142.157C65.658 142.587 65.3108 142.953 64.8935 143.224L20.7605 168.69C19.9691 169.147 19.3298 168.776 19.3298 167.862V111.724C19.3566 111.227 19.5 110.744 19.7486 110.313C19.9972 109.883 20.3439 109.517 20.7605 109.246Z" fill="#F0F0F0"/>
<path d="M56.1999 132.679C52.754 128.204 47.0676 128.837 47.0676 128.837C47.569 132.728 48.5148 136.548 49.8864 140.222C49.8864 140.222 60.3946 155.522 62.4889 156.953L65.393 147.315C65.393 147.315 58.4342 135.589 56.1999 132.679Z" fill="#FFBDA7"/>
<path d="M45.8376 129.057C47.3269 128.578 48.8901 128.372 50.4525 128.448C52.9303 128.606 55.9805 131.413 57.8009 134.335C60.2361 138.244 61.8556 141.032 61.8556 141.032C61.8556 141.032 61.0458 145.622 54.7811 147.601L48.9852 140.04L45.8376 129.057Z" fill="#367C3C"/>
<path opacity="0.5" d="M45.8376 129.057C47.3269 128.578 48.8901 128.372 50.4525 128.448C52.9303 128.606 55.9805 131.413 57.8009 134.335C60.2361 138.244 61.8556 141.032 61.8556 141.032C61.8556 141.032 61.0458 145.622 54.7811 147.601L48.9852 140.04L45.8376 129.057Z" fill="black"/>
<path d="M29.85 146.992L29.0403 159.777L29.6917 183.698C37.7463 186.443 47.9927 184.027 56.5892 174.474C56.5892 174.474 56.236 142.706 55.1158 137.282C53.7703 130.749 50.5619 127.175 44.0597 129.501L37.6855 132.046L31.1285 134.658C31.1285 134.658 29.85 144.521 29.85 146.992Z" fill="#367C3C"/>
<path opacity="0.4" d="M29.85 146.992L29.0403 159.777L29.6917 183.698C37.7463 186.443 47.9927 184.027 56.5892 174.474C56.5892 174.474 56.236 142.706 55.1158 137.282C53.7703 130.749 50.5619 127.175 44.0597 129.501L37.6855 132.046L31.1285 134.658C31.1285 134.658 29.85 144.521 29.85 146.992Z" fill="black"/>
<path d="M38.2639 111.34C38.2639 116.759 42.069 120.131 46.7873 118.871C51.5056 117.611 55.3107 112.205 55.3107 106.786C55.3107 101.368 51.2621 101.368 46.5682 102.628C41.8742 103.888 38.2639 105.922 38.2639 111.34Z" fill="#263238"/>
<path d="M36.8881 122.676L35.4634 121.026L36.0418 118.652L34.8242 109.27C34.3291 109.187 33.8206 109.266 33.3734 109.494C32.9263 109.722 32.5641 110.087 32.3402 110.536C30.3007 114.238 35.0555 125.617 35.4634 126.408C35.6136 126.694 35.8335 126.938 36.1027 127.117C36.3719 127.296 36.6818 127.404 37.0037 127.431L36.8881 122.676Z" fill="#263238"/>
<path d="M36.7236 118.463C36.2548 118.92 35.579 118.049 34.9946 117.501C34.4101 116.953 32.5106 116.503 31.5608 119.066C30.6111 121.629 32.3949 124.308 33.8926 124.448C36.4801 124.691 36.8636 122.676 36.8636 122.676L36.9549 133.696C41.2836 138.292 51.256 136.046 45.4784 130.84V127.571C46.6637 127.468 47.8327 127.225 48.9608 126.847C50.8603 125.994 52.0536 123.949 52.6137 121.416C53.5391 117.361 53.8922 114.189 53.1068 106.902C52.2423 98.9142 43.9746 101.045 39.4937 105.489C35.0128 109.934 36.7236 118.463 36.7236 118.463Z" fill="#FFBDA7"/>
<path d="M36.6385 119.236C35.8471 119.029 35.3296 117.763 34.9947 117.501C34.6599 117.24 34.7147 116.57 34.7025 116.235C34.7312 115.413 34.7109 114.589 34.6416 113.769C34.4723 112.906 34.3785 112.03 34.3616 111.151C34.3616 109.325 34.4042 106.78 35.153 105.094C36.535 101.983 38.6902 101.197 41.2899 100.363C43.2868 99.7544 45.4724 99.8152 47.4328 99.0725C49.0365 98.3541 50.5048 97.3657 51.7737 96.1502C52.2546 95.7423 52.9243 95.3161 53.454 95.6509C53.7048 95.8463 53.8775 96.1248 53.9411 96.4363C54.2312 97.3731 54.3204 98.3606 54.2029 99.3343C54.4295 99.3508 54.6569 99.3155 54.8678 99.2311C55.0788 99.1467 55.2678 99.0154 55.4205 98.8472C55.5118 98.7376 55.6092 98.6098 55.7492 98.6098C55.8893 98.6098 56.0415 98.835 56.0719 99.0238C56.1867 99.8412 56.1138 100.674 55.8588 101.459C54.7386 105.38 50.8422 107.754 46.8666 108.667C44.6413 109.276 42.3049 109.36 40.0418 108.911C39.7698 108.853 39.486 108.903 39.2504 109.051C39.0483 109.205 38.8993 109.417 38.8242 109.66C38.3919 110.774 38.8242 113.051 38.7146 114.585C38.5502 116.454 38.2641 118.037 37.5579 118.92C37.4617 119.067 37.3191 119.179 37.1525 119.236C36.986 119.293 36.8052 119.293 36.6385 119.236Z" fill="#263238"/>
<path d="M34.5746 109.428L31.7192 108.418C32.1211 107.365 33.0891 106.737 33.8805 107.018C34.672 107.298 34.9825 108.369 34.5746 109.428Z" fill="#263238"/>
<path d="M45.454 127.571C45.454 127.571 41.1923 127.723 39.7373 127.206C38.8482 126.896 38.1132 126.255 37.6855 125.416C37.8935 126.302 38.2901 127.133 38.8484 127.851C39.9321 129.16 45.454 128.862 45.454 128.862V127.571Z" fill="#F0997A"/>
<path d="M44.4374 116.004C44.4368 116.269 44.3556 116.527 44.2044 116.745C44.0532 116.962 43.8392 117.128 43.5911 117.221C43.1162 117.343 42.7388 116.99 42.7388 116.424C42.7406 116.158 42.8231 115.9 42.9754 115.682C43.1276 115.465 43.3423 115.299 43.5911 115.206C44.0599 115.084 44.4374 115.437 44.4374 116.004Z" fill="#263238"/>
<path d="M43.0737 112.308L41.2473 113.952C41.1279 113.647 41.1048 113.312 41.181 112.993C41.2571 112.674 41.429 112.386 41.6734 112.168C41.7602 112.058 41.8733 111.971 42.0024 111.916C42.1315 111.861 42.2724 111.84 42.412 111.854C42.5516 111.868 42.6854 111.917 42.8011 111.996C42.9168 112.076 43.0105 112.183 43.0737 112.308Z" fill="#263238"/>
<path d="M45.0704 121.751L47.0125 122.073C46.9542 122.381 46.7902 122.658 46.5489 122.857C46.3076 123.056 46.0042 123.164 45.6914 123.163C45.1617 123.09 44.8817 122.445 45.0704 121.751Z" fill="#F0997A"/>
<path d="M52.2302 110.713L50.5742 109.696C50.9091 109.087 51.5544 108.771 52.011 109.087C52.2345 109.288 52.3792 109.562 52.4194 109.86C52.4595 110.158 52.3925 110.46 52.2302 110.713Z" fill="#263238"/>
<path d="M51.8709 113.727C51.8691 113.992 51.7866 114.251 51.6343 114.468C51.4821 114.686 51.2674 114.852 51.0186 114.944C50.5498 115.072 50.1723 114.713 50.1723 114.153C50.1675 113.883 50.2462 113.618 50.3977 113.395C50.5492 113.171 50.766 113 51.0186 112.905C51.4995 112.807 51.8709 113.16 51.8709 113.727Z" fill="#263238"/>
<path d="M47.3047 113.775L47.4021 119.699L50.4462 118.104L47.3047 113.775Z" fill="#F0997A"/>
<path d="M19.7682 171.716C22.4469 143.138 26.0877 136.155 31.3356 135.437C33.3934 136.971 34.0449 143.534 32.5898 150.341C32.5898 150.341 29.6188 165.75 29.357 171.296C29.1256 176.167 27.7802 182.133 28.3768 185.969C28.4864 186.644 28.8395 188.617 29.2048 189.074C30.4224 190.571 30.1241 191.265 31.0312 192.434C31.7618 193.347 32.9734 193.895 32.8577 194.261C32.6811 194.699 31.8836 195.265 30.6172 194.681C29.8808 194.286 29.2534 193.715 28.7908 193.019C28.7908 193.019 28.9247 194.845 30.6172 197.621C32.2063 200.282 32.675 203.058 28.249 202.547C25.7467 202.261 23.9081 201.554 22.2887 195.101C21.8381 193.317 21.4728 190.078 21.1197 187.746C20.0787 181.019 19.3968 175.649 19.7682 171.716Z" fill="#FFBDA7"/>
<path d="M31.4088 134.566C31.4088 134.566 26.106 135.607 24.6266 140.539C23.4089 144.703 22.3983 148.453 21.0833 157.196C22.4641 158.459 24.1773 159.301 26.0207 159.622C27.8642 159.944 29.7611 159.731 31.4879 159.01C31.4879 159.01 34.2885 147.607 34.5685 142.481C34.8729 136.868 31.4088 134.566 31.4088 134.566Z" fill="#367C3C"/>
<path opacity="0.5" d="M31.4088 134.566C31.4088 134.566 26.106 135.607 24.6266 140.539C23.4089 144.703 22.3983 148.453 21.0833 157.196C22.4641 158.459 24.1773 159.301 26.0207 159.622C27.8642 159.944 29.7611 159.731 31.4879 159.01C31.4879 159.01 34.2885 147.607 34.5685 142.481C34.8729 136.868 31.4088 134.566 31.4088 134.566Z" fill="black"/>
<path d="M84.0712 170.511L80.5462 168.496C80.3913 168.378 80.2688 168.223 80.19 168.045C80.1112 167.868 80.0787 167.673 80.0957 167.479V143.997C80.1306 143.367 80.3416 142.76 80.7045 142.244L84.2113 144.265C83.8621 144.78 83.6658 145.384 83.6451 146.006V169.482C83.6177 169.676 83.6428 169.874 83.7177 170.055C83.7927 170.235 83.9147 170.393 84.0712 170.511Z" fill="#367C3C"/>
<path opacity="0.55" d="M84.0712 170.511L80.5462 168.496C80.3913 168.378 80.2688 168.223 80.19 168.045C80.1112 167.868 80.0787 167.673 80.0957 167.479V143.997C80.1306 143.367 80.3416 142.76 80.7045 142.244L84.2113 144.265C83.8621 144.78 83.6658 145.384 83.6451 146.006V169.482C83.6177 169.676 83.6428 169.874 83.7177 170.055C83.7927 170.235 83.9147 170.393 84.0712 170.511Z" fill="white"/>
<path d="M85.1976 143.242L134.372 114.847C135.254 114.335 135.967 114.749 135.967 115.766V139.303C135.937 139.856 135.778 140.394 135.5 140.874C135.223 141.353 134.836 141.76 134.372 142.061L85.1976 170.407C84.3149 170.913 83.6025 170.499 83.6025 169.482V146C83.6318 145.447 83.7916 144.909 84.0688 144.429C84.3461 143.95 84.7329 143.543 85.1976 143.242Z" fill="#367C3C"/>
<path opacity="0.7" d="M85.1976 143.242L134.372 114.847C135.254 114.335 135.967 114.749 135.967 115.766V139.303C135.937 139.856 135.778 140.394 135.5 140.874C135.223 141.353 134.836 141.76 134.372 142.061L85.1976 170.407C84.3149 170.913 83.6025 170.499 83.6025 169.482V146C83.6318 145.447 83.7916 144.909 84.0688 144.429C84.3461 143.95 84.7329 143.543 85.1976 143.242Z" fill="white"/>
<path d="M131.973 112.74L135.443 114.719C135.267 114.653 135.077 114.632 134.89 114.656C134.703 114.681 134.525 114.75 134.372 114.859L85.1915 143.242C84.7759 143.499 84.4257 143.849 84.1686 144.265L80.6619 142.244C80.912 141.832 81.2563 141.486 81.6664 141.233L130.846 112.838C131.063 112.706 131.311 112.632 131.565 112.625C131.709 112.626 131.85 112.666 131.973 112.74Z" fill="#367C3C"/>
<path opacity="0.85" d="M131.973 112.74L135.443 114.719C135.267 114.653 135.077 114.632 134.89 114.656C134.703 114.681 134.525 114.75 134.372 114.859L85.1915 143.242C84.7759 143.499 84.4257 143.849 84.1686 144.265L80.6619 142.244C80.912 141.832 81.2563 141.486 81.6664 141.233L130.846 112.838C131.063 112.706 131.311 112.632 131.565 112.625C131.709 112.626 131.85 112.666 131.973 112.74Z" fill="white"/>
<path d="M89.0393 145.409L130.53 121.422C130.95 121.179 131.291 121.349 131.291 121.806C131.273 122.063 131.195 122.312 131.063 122.533C130.931 122.754 130.748 122.941 130.53 123.078L89.0393 147.065C88.6193 147.309 88.2783 147.138 88.2783 146.682C88.2971 146.425 88.3757 146.176 88.5079 145.955C88.64 145.734 88.822 145.547 89.0393 145.409Z" fill="#367C3C"/>
<path d="M89.0393 162.176L130.53 138.183C130.95 137.939 131.291 138.116 131.291 138.572C131.272 138.828 131.194 139.076 131.061 139.296C130.929 139.516 130.747 139.702 130.53 139.839L89.0393 163.832C88.6193 164.076 88.2783 163.899 88.2783 163.442C88.2971 163.187 88.3757 162.939 88.5079 162.719C88.6401 162.499 88.8221 162.313 89.0393 162.176Z" fill="#367C3C"/>
<path d="M89.0393 153.793L130.53 129.787C130.95 129.544 131.291 129.714 131.291 130.171C131.272 130.428 131.194 130.676 131.062 130.897C130.929 131.118 130.747 131.305 130.53 131.443L89.0393 155.43C88.6193 155.674 88.2783 155.504 88.2783 155.041C88.2998 154.788 88.3798 154.544 88.5119 154.327C88.6439 154.111 88.8245 153.928 89.0393 153.793Z" fill="#367C3C"/>
<path d="M89.0393 157.981L130.53 133.994C130.95 133.751 131.291 133.921 131.291 134.378C131.273 134.635 131.195 134.884 131.063 135.105C130.931 135.326 130.748 135.513 130.53 135.65L89.0393 159.619C88.6193 159.863 88.2783 159.692 88.2783 159.236C88.2999 158.982 88.3798 158.737 88.5118 158.519C88.6438 158.302 88.8244 158.118 89.0393 157.981Z" fill="#367C3C"/>
<path d="M89.0393 149.604L130.53 125.611C130.95 125.367 131.291 125.544 131.291 126C131.272 126.256 131.194 126.504 131.061 126.724C130.929 126.944 130.747 127.13 130.53 127.267L89.0393 151.26C88.6193 151.504 88.2783 151.327 88.2783 150.87C88.2971 150.614 88.3757 150.367 88.5079 150.147C88.6401 149.927 88.8221 149.741 89.0393 149.604Z" fill="#367C3C"/>
<path d="M84.0044 135.327L80.662 133.44C80.5058 133.324 80.3823 133.169 80.3034 132.991C80.2245 132.813 80.1928 132.617 80.2115 132.423V69.9285C80.2442 69.2981 80.4553 68.6901 80.8203 68.1751L84.0836 70.0624C83.7516 70.5664 83.5642 71.1518 83.5417 71.7549V134.299C83.5183 134.496 83.549 134.696 83.6305 134.877C83.712 135.058 83.8413 135.214 84.0044 135.327Z" fill="#263238"/>
<path d="M135.145 40.3888C134.85 40.3625 134.554 40.4353 134.305 40.5958L85.1246 68.991C84.6941 69.2603 84.3332 69.6274 84.0713 70.0625L80.802 68.1751C81.0562 67.7667 81.3996 67.4212 81.8065 67.1645L130.987 38.7755C131.2 38.6397 131.446 38.564 131.699 38.5563C131.843 38.5551 131.986 38.5908 132.113 38.6598L135.145 40.3888Z" fill="#37474F"/>
<path d="M85.1244 68.991L134.298 40.5958C135.181 40.0905 135.893 40.4984 135.893 41.5212V104.12C135.864 104.673 135.704 105.211 135.427 105.69C135.15 106.17 134.763 106.576 134.298 106.878L85.1183 135.218C84.2416 135.729 83.5232 135.315 83.5232 134.299V71.755C83.5546 71.201 83.7159 70.6621 83.994 70.1819C84.2722 69.7018 84.6594 69.2938 85.1244 68.991Z" fill="#455A64"/>
<path d="M87.6509 70.927L131.79 45.442C132.581 44.9854 133.221 45.3567 133.221 46.27V102.457C133.194 102.954 133.051 103.437 132.802 103.868C132.553 104.298 132.207 104.664 131.79 104.935L87.6509 130.396C86.8595 130.853 86.2202 130.481 86.2202 129.568V73.4109C86.247 72.9136 86.3904 72.4296 86.639 71.9981C86.8875 71.5666 87.2342 71.1996 87.6509 70.927Z" fill="#F0F0F0"/>
<path d="M124.631 121.051C118.098 98.0192 118.025 94.2628 118.415 91.5475C124.344 90.1168 126.938 94.1837 128.521 101.039C129.282 104.333 131.474 116.868 132.831 122.11C134.049 126.707 135.522 131.638 137.312 134.895C137.457 135.171 137.666 135.408 137.921 135.587C138.177 135.766 138.471 135.882 138.779 135.924C140.441 136.161 140.935 137.093 142.286 137.787C143.346 138.323 144.113 138.189 144.082 138.56C144.004 138.973 143.802 139.353 143.503 139.649C143.204 139.944 142.822 140.142 142.408 140.216C141.742 140.288 141.068 140.245 140.417 140.088C141.218 141.138 142.2 142.036 143.315 142.743C145.921 144.429 146.731 147.004 142.219 148.277C140.448 148.77 137.148 148.21 133.221 142.907C131.913 141.009 130.828 138.966 129.988 136.819C127.754 131.163 125.933 125.653 124.631 121.051Z" fill="#FFA8A7"/>
<path d="M108.771 94.1959C108.771 94.1959 102.305 96.4911 100.637 97.2765C104.899 102.391 99.7969 116.345 99.7969 116.345L102.518 125.745L122.974 118.579C126.359 110.055 127.023 106.19 126.725 103.852C126.049 98.555 122.883 95.0786 118.414 91.5475L108.771 94.1959Z" fill="#367C3C"/>
<path d="M124.131 88.5217L113.465 91.8702C111.839 92.3811 110.115 92.5023 108.434 92.224C106.752 91.9457 105.159 91.2758 103.784 90.2683C102.409 89.2609 101.291 87.9441 100.519 86.4245C99.7468 84.9048 99.3431 83.2249 99.3403 81.5203V79.2556C99.3403 71.6088 104.71 63.9743 111.334 62.2087L112.229 61.9713C118.853 60.1936 124.223 64.9545 124.223 72.6012V74.7382C124.223 81.5812 124.131 88.5217 124.131 88.5217Z" fill="#37474F"/>
<path d="M103.468 65.3807C102.81 64.7353 101.709 64.9788 101.002 65.9225L102.317 67.2254C102.006 67.1884 101.691 67.2502 101.416 67.4019C100.94 67.6694 100.556 68.0749 100.315 68.5651C100.073 69.0553 99.9862 69.607 100.065 70.1477L103.48 68.4004C103.462 68.322 103.44 68.2448 103.413 68.169C104.059 67.2314 104.101 66.0077 103.468 65.3807Z" fill="#37474F"/>
<path d="M119.553 67.9316C120.771 68.7291 122.475 70.1598 122.317 78.2023C122.183 85.0149 120.278 87.2006 119.322 87.9433C118.366 88.6861 116.521 88.8809 114.731 89.0148V93.3131C114.731 93.3131 117.83 96.2476 117.672 98.1836C117.514 100.12 114.731 101.709 110.53 99.1333C109.051 98.1474 107.805 96.851 106.878 95.3343L106.914 86.1412C106.914 86.1412 105.861 87.6024 104.077 86.2752C103.324 85.6784 102.821 84.8214 102.668 83.8728C102.515 82.9241 102.722 81.9525 103.249 81.149C103.48 80.7912 103.784 80.4871 104.142 80.2571C104.501 80.0271 104.904 79.8766 105.325 79.8156C105.572 79.8041 105.819 79.8428 106.05 79.9294C106.282 80.016 106.493 80.1487 106.672 80.3195C106.851 80.4903 106.993 80.6955 107.09 80.9229C107.187 81.1502 107.237 81.3949 107.237 81.6421V82.1474C107.237 82.1474 108.54 82.3483 108.625 79.8035C108.674 78.391 110.36 76.1506 112.01 74.7381C114.816 72.3211 118.39 72.2907 119.553 67.9316Z" fill="#FFA8A7"/>
<path d="M115.017 77.7822C115.028 78.0164 114.967 78.2482 114.842 78.4464C114.716 78.6446 114.533 78.7995 114.317 78.8903C113.909 79.0242 113.562 78.7381 113.544 78.2815C113.533 78.0465 113.594 77.8137 113.719 77.6144C113.844 77.4152 114.028 77.2592 114.244 77.1673C114.646 77.0151 114.999 77.2952 115.017 77.7822Z" fill="#263238"/>
<path d="M115.51 83.6208L117.684 83.8399C117.63 84.1834 117.46 84.4979 117.201 84.7306C116.943 84.9634 116.613 85.1003 116.265 85.1184C115.669 85.0576 115.328 84.3879 115.51 83.6208Z" fill="#F28F8F"/>
<path d="M121.41 74.0806L119.918 73.2831C120.186 72.7169 120.746 72.4368 121.136 72.6742C121.348 72.8327 121.494 73.0645 121.545 73.3245C121.595 73.5845 121.547 73.8541 121.41 74.0806Z" fill="#263238"/>
<path d="M112.905 76.2906L114.396 74.6894C114.123 74.2755 113.569 74.2876 113.179 74.7321C112.975 74.9301 112.839 75.1873 112.79 75.4671C112.741 75.7468 112.781 76.035 112.905 76.2906Z" fill="#263238"/>
<path d="M121.233 76.5098C121.246 76.7451 121.186 76.9787 121.06 77.1782C120.935 77.3778 120.751 77.5335 120.533 77.6239C120.125 77.7578 119.778 77.4717 119.76 77.0151C119.748 76.7799 119.808 76.5467 119.934 76.3474C120.059 76.148 120.243 75.9921 120.46 75.901C120.862 75.7427 121.215 76.0288 121.233 76.5098Z" fill="#263238"/>
<path d="M117.684 76.7533L117.8 81.8552L120.138 80.394L117.684 76.7533Z" fill="#F28F8F"/>
<path d="M114.731 88.9966C112.844 89.2158 108.96 88.9966 108.351 87.3589C108.564 88.1347 109.048 88.8085 109.715 89.2584C110.877 90.0925 114.731 90.3543 114.731 90.3543V88.9966Z" fill="#F28F8F"/>
<path d="M89.4959 134.085C91.511 112.077 92.6617 99.6752 100.637 97.2765C101.824 97.7087 102.926 100.321 103.133 102.214C103.493 105.416 103.06 110.944 101.076 113.781C101.076 113.781 98.5733 126.968 97.6053 134.56C96.9356 139.814 95.4927 147.382 95.8275 151.644C95.9861 152.414 96.324 153.135 96.8138 153.75L98.1654 155.997C98.4316 156.468 98.737 156.916 99.0786 157.336C99.3891 157.695 99.7483 158.006 100.083 158.341C100.333 158.584 100.576 158.949 100.369 159.242C100.289 159.336 100.183 159.406 100.065 159.443C99.6683 159.593 99.2425 159.65 98.8204 159.61C98.3983 159.569 97.9909 159.433 97.6296 159.211C97.1791 158.931 96.8138 158.523 96.345 158.28C96.3838 159.065 96.6069 159.831 96.9964 160.514C97.2643 161.068 97.5322 161.628 97.8305 162.176C98.1522 162.725 98.4369 163.294 98.6829 163.881C98.9359 164.468 98.9976 165.12 98.8594 165.744C98.7045 166.22 98.4194 166.644 98.0364 166.966C97.6534 167.289 97.1877 167.498 96.692 167.57C95.6962 167.698 94.6857 167.499 93.8123 167.004C90.8109 165.452 89.8063 162.334 89.4289 159.205C89.0624 156.602 88.8591 153.979 88.8201 151.351C88.9357 144.399 89.1062 138.371 89.4959 134.085Z" fill="#FFA8A7"/>
<path d="M106.902 94.7012C105.603 94.9789 104.365 95.4905 103.249 96.2111C103.249 96.2111 106.123 101.763 111.054 102.567C115.985 103.371 116.339 100.053 116.339 100.053C113.252 100.181 110.135 98.8411 106.902 94.7012Z" fill="#455A64"/>
<path d="M114.731 92.473V93.3131C116.826 96.0406 117.465 98.3967 116.308 100.053C116.308 100.053 119.76 101.228 120.369 98.695C120.978 96.1624 116.594 92.059 116.594 92.059C115.956 92.1053 115.329 92.2448 114.731 92.473Z" fill="#455A64"/>
<path d="M69.764 26.4226L66.1111 28.5352C66.1301 28.3735 66.1403 28.2109 66.1415 28.0481V26.9949C66.1415 25.1075 64.8204 24.3465 63.1888 25.2841C62.4839 25.7154 61.8815 26.295 61.4232 26.9827C61.1614 24.6083 59.2984 23.7316 57.0458 25.0345C55.7579 25.8713 54.6862 27.0008 53.918 28.3308C53.1499 29.6608 52.7071 31.1536 52.6258 32.6873V34.2702C52.6105 34.8992 52.7374 35.5236 52.9972 36.0966L49.9531 37.85C49.477 38.1621 49.0804 38.5812 48.795 39.0738C48.5096 39.5664 48.3433 40.1188 48.3093 40.6871C48.3093 41.7343 49.046 42.1604 49.9531 41.6369L69.764 30.2094C70.239 29.8966 70.6344 29.4773 70.9187 28.9847C71.203 28.4922 71.3684 27.9401 71.4017 27.3723C71.4078 26.3252 70.6772 25.9051 69.764 26.4226Z" fill="#EBEBEB"/>
<path d="M45.6186 16.7181L43.5852 17.4912V13.053C43.5852 9.53404 40.7786 8.68778 37.7345 10.4473C34.6904 12.2128 32.2125 16.4928 32.2125 20.0117V20.6571C31.7835 20.5227 31.3293 20.4885 30.885 20.5571C30.4407 20.6257 30.018 20.7953 29.6494 21.0528C28.4933 21.8065 27.5313 22.8223 26.8415 24.0177C26.1518 25.2131 25.7538 26.5543 25.6799 27.9324V28.2247L22.8855 29.8441C22.1239 30.3403 21.49 31.009 21.0351 31.796C20.5803 32.583 20.3173 33.4661 20.2676 34.3737C20.2676 36.0418 21.4426 36.7176 22.8855 35.8835L45.6186 22.7575C46.3794 22.261 47.0124 21.5921 47.4663 20.8051C47.9201 20.018 48.1819 19.1351 48.2304 18.2279C48.2304 16.5476 47.0615 15.884 45.6186 16.7181Z" fill="#EBEBEB"/>
<path d="M172.465 143.79C171.607 143.084 170.286 142.938 168.703 143.528C165.531 144.703 162.499 148.362 161.926 151.692C161.64 153.361 162.03 154.633 162.882 155.345L221.055 207.472C222.236 208.586 224.147 208.86 226.473 208.002C230.905 206.358 235.149 201.25 235.94 196.586C236.36 194.151 235.739 192.325 234.418 191.357L172.465 143.79Z" fill="#367C3C"/>
<path opacity="0.15" d="M171.007 152.318C173.652 149.13 174.303 145.306 172.46 143.778C170.618 142.249 166.98 143.595 164.335 146.783C161.69 149.971 161.04 153.794 162.882 155.323C164.725 156.852 168.362 155.506 171.007 152.318Z" fill="black"/>
<path d="M150.56 131.194C149.537 131.635 148.633 132.313 147.922 133.171C147.211 134.029 146.713 135.044 146.469 136.131C146.36 136.516 146.355 136.923 146.456 137.311C146.556 137.698 146.758 138.052 147.041 138.335L164.776 153.05C165.105 153.277 165.49 153.412 165.889 153.441C166.288 153.47 166.688 153.392 167.047 153.214C168.07 152.772 168.975 152.094 169.687 151.236C170.399 150.378 170.898 149.364 171.144 148.277C171.253 147.89 171.257 147.482 171.156 147.093C171.054 146.705 170.85 146.35 170.566 146.067L152.837 131.358C152.506 131.13 152.121 130.995 151.721 130.966C151.32 130.937 150.92 131.016 150.56 131.194Z" fill="#263238"/>
<path opacity="0.1" d="M169.458 153.878L229.511 206.297C228.576 206.991 227.552 207.556 226.467 207.977C224.141 208.836 222.205 208.586 221.042 207.442L162.913 155.357C163.777 156.07 165.086 156.204 166.675 155.619C167.695 155.2 168.635 154.612 169.458 153.878Z" fill="black"/>
<path d="M181.658 74.385C181.658 73.7762 181.609 73.1674 181.561 72.5586C181.512 71.9498 181.488 71.3714 181.427 70.7869C181.427 70.3912 181.354 70.0077 181.305 69.6119C181.202 68.5952 181.055 67.5846 180.885 66.6287C180.812 66.1904 180.733 65.7459 180.648 65.3076C180.562 64.8692 180.477 64.4796 180.392 64.09C180.136 62.9819 179.862 61.8982 179.552 60.8572C179.387 60.364 179.235 59.8709 179.071 59.3899C179.038 59.3177 179.014 59.2422 178.998 59.1647C178.821 58.6837 178.651 58.221 178.468 57.7644C178.285 57.3078 178.054 56.7172 177.81 56.218C177.64 55.8466 177.482 55.4874 177.287 55.1282C177.177 54.8591 177.046 54.5986 176.897 54.3489C176.747 54.0283 176.58 53.7154 176.398 53.4114C176.362 53.3396 176.322 53.2704 176.276 53.2044C176.13 52.9365 175.96 52.6625 175.801 52.3946C175.643 52.1268 175.576 52.0537 175.473 51.8832C174.706 50.6695 173.841 49.521 172.885 48.4495C172.721 48.2669 172.556 48.0842 172.41 47.9077L172.002 47.4815C171.838 47.3049 171.655 47.1406 171.473 46.9579C170.982 46.4604 170.461 45.9928 169.914 45.5576C169.658 45.3385 169.391 45.1315 169.117 44.9488C168.843 44.7662 168.581 44.547 168.295 44.34C167.865 44.0245 167.418 43.7338 166.955 43.4694L166.596 43.2441L166.523 43.1833L158.127 38.2519L158.006 38.1788C153.912 35.8988 149.291 34.7376 144.606 34.8121C137.635 34.8121 129.775 37.0951 121.44 41.8926C92.826 58.4219 69.624 98.6098 69.624 131.662C69.624 148.149 75.3895 159.741 84.7105 165.147L84.7957 165.19L93.2034 170.109L93.3008 170.164L93.4226 170.231L93.5565 170.304C93.9584 170.535 94.3602 170.748 94.7742 170.949C95.1882 171.15 95.8092 171.43 96.3327 171.631C96.7988 171.836 97.2766 172.012 97.7635 172.161C98.0107 172.25 98.2628 172.325 98.5184 172.386C98.7877 172.488 99.0645 172.57 99.3464 172.63C99.6227 172.713 99.9031 172.782 100.187 172.836C100.386 172.895 100.59 172.94 100.795 172.97C101.155 173.043 101.544 173.123 101.922 173.171C102.005 173.197 102.091 173.212 102.177 173.214C102.622 173.287 103.078 173.354 103.523 173.397C111.243 174.206 120.217 172.027 129.824 166.487C158.438 149.963 181.664 109.757 181.664 76.7168C181.701 75.9497 181.683 75.1704 181.658 74.385ZM87.2188 152.374C86.0204 147.953 85.4305 143.39 85.4654 138.81C85.4654 107.492 108.381 67.7916 135.504 52.1328C139.464 49.7876 143.738 48.0185 148.198 46.8788C150.336 46.3501 152.528 46.0742 154.73 46.0569C155.839 46.0518 156.947 46.1373 158.042 46.3126H158.134C163.686 52.8817 164.502 63.402 164.502 69.0275C164.502 100.345 141.61 140.046 114.475 155.698C107.571 159.68 100.935 161.787 95.243 161.787C94.0615 161.795 92.8842 161.645 91.7423 161.342C89.6367 158.694 88.0971 155.642 87.2188 152.374Z" fill="#367C3C"/>
<path opacity="0.15" d="M174.249 74.525C174.249 91.1639 167.783 110.159 157.653 126.67C157.178 127.455 156.691 128.223 156.191 128.996C155.771 129.659 155.339 130.323 154.888 130.98C153.939 132.393 152.977 133.787 151.966 135.151C151.491 135.802 151.01 136.448 150.517 137.081C150.024 137.714 149.446 138.475 148.898 139.163C147.857 140.478 146.779 141.756 145.683 143.005C144.965 143.839 144.228 144.654 143.485 145.44C137.519 151.857 130.999 157.275 124.216 161.184C122.92 161.933 121.641 162.614 120.369 163.229C116.244 165.325 111.774 166.659 107.176 167.168C106.433 167.241 105.702 167.272 104.996 167.272C104.619 167.272 104.259 167.272 103.9 167.241H103.858C103.168 167.212 102.481 167.141 101.8 167.028C101.465 166.98 101.136 166.925 100.82 166.852C100.501 166.791 100.186 166.713 99.876 166.62C96.6637 165.805 93.8082 163.957 91.7483 161.36C92.8882 161.663 94.0634 161.813 95.2429 161.805C100.935 161.805 107.571 159.704 114.475 155.717C141.61 140.064 164.502 100.363 164.502 69.0457C164.502 63.4202 163.686 52.8999 158.133 46.3308H158.042C165.117 47.4632 169.141 52.2728 171.406 57.8313C172.048 59.4118 172.565 61.0403 172.952 62.7018C172.952 62.7932 172.995 62.8845 173.013 62.9758C173.086 63.2741 173.159 63.5846 173.214 63.8769C173.269 64.1691 173.329 64.4857 173.384 64.7535C173.403 64.8278 173.417 64.903 173.427 64.9788C173.488 65.2954 173.543 65.6059 173.591 65.9103C173.768 67.0731 173.914 68.2055 174.011 69.2892C174.011 69.6058 174.066 69.898 174.084 70.2024C174.103 70.5069 174.121 70.6591 174.133 70.8782C174.133 70.9696 174.133 71.067 174.133 71.1583C174.133 71.4018 174.164 71.6393 174.176 71.8767C174.176 71.9437 174.176 72.0045 174.176 72.0776C174.176 72.3759 174.176 72.6864 174.206 72.9604C174.243 73.484 174.249 74.0197 174.249 74.525Z" fill="black"/>
<path opacity="0.1" d="M92.4853 169.725L84.7046 165.153C75.3836 159.704 69.6182 148.106 69.6182 131.668C69.6182 116.923 74.2391 100.771 81.8858 85.9403L90.744 91.0361C83.0912 105.867 78.0198 121.854 78.0198 136.594C78.0198 152.709 83.5052 164.143 92.4853 169.725Z" fill="black"/>
<path opacity="0.4" d="M166.602 43.2441L166.529 43.1832L158.14 38.2518H158.109L157.993 38.1788C153.903 35.9017 149.286 34.7406 144.606 34.812C137.641 34.812 129.775 37.089 121.44 41.8926C105.611 51.0248 91.383 67.4628 81.8672 85.9464L90.6828 91.1335L90.4941 91.4988C100.022 73.2344 114.153 56.7172 129.842 46.83C144.045 37.8805 157.525 37.7587 166.937 43.4816L166.602 43.2441Z" fill="white"/>
<path opacity="0.3" d="M169.737 71.8706C169.737 103.188 146.822 142.889 119.699 158.548C115.739 160.893 111.464 162.662 107.005 163.802C104.867 164.331 102.675 164.607 100.473 164.624C98.2102 164.652 95.9614 164.269 93.8365 163.491C90.4698 160.666 88.4363 156.575 87.2187 152.374C86.0204 147.953 85.4305 143.39 85.4653 138.81C85.4653 107.492 108.381 67.7916 135.504 52.1328C139.464 49.7877 143.738 48.0185 148.198 46.8788C150.335 46.3501 152.528 46.0742 154.73 46.0569C156.992 46.0287 159.24 46.4103 161.366 47.1832C164.739 50.0081 166.773 54.1054 167.99 58.3062C169.184 62.7277 169.772 67.2909 169.737 71.8706Z" fill="white"/>
<path d="M81.7639 165.975L76.8569 163.168C76.6268 162.997 76.4448 162.769 76.3286 162.507C76.2123 162.244 76.1657 161.956 76.1933 161.671V69.9041C76.2349 68.9799 76.539 68.0866 77.0699 67.3289L81.8613 70.099C81.3767 70.8397 81.1031 71.6984 81.0699 72.5829V164.49C81.0435 164.777 81.0939 165.065 81.2159 165.326C81.3378 165.587 81.527 165.811 81.7639 165.975Z" fill="#263238"/>
<path d="M156.892 26.5078C156.463 26.474 156.036 26.5809 155.674 26.8122L83.4076 68.5282C82.7766 68.924 82.247 69.4619 81.8612 70.099L77.0698 67.3289C77.4397 66.7266 77.944 66.2182 78.5432 65.8434L150.785 24.1395C151.099 23.9399 151.461 23.8284 151.832 23.8169C152.045 23.8152 152.254 23.8676 152.441 23.9691L156.892 26.5078Z" fill="#37474F"/>
<path d="M83.4138 68.5221L155.656 26.8183C156.946 26.0694 158 26.6722 158 28.1698V120.101C157.955 120.913 157.719 121.704 157.312 122.408C156.905 123.113 156.337 123.711 155.656 124.156L83.4138 165.817C82.117 166.56 81.0698 165.957 81.0698 164.459V72.5585C81.117 71.7492 81.3537 70.9622 81.7609 70.261C82.168 69.5599 82.7342 68.9643 83.4138 68.5221Z" fill="#455A64"/>
<path d="M87.1214 71.3714L151.954 33.9354C153.111 33.2657 154.055 33.8075 154.055 35.153V117.684C154.017 118.415 153.807 119.127 153.442 119.762C153.077 120.397 152.567 120.937 151.954 121.337L87.1153 158.706C85.9525 159.376 85.0088 158.834 85.0088 157.488V74.9938C85.0532 74.2669 85.2674 73.5605 85.6343 72.9314C86.0012 72.3023 86.5105 71.768 87.1214 71.3714Z" fill="#F0F0F0"/>
<path d="M141.44 145.008C131.845 111.176 131.741 105.636 132.308 101.672C141.02 99.5717 144.813 105.538 147.151 115.614C148.277 120.485 151.491 138.883 153.488 146.566C155.242 153.318 157.44 160.569 160.064 165.391C160.278 165.794 160.585 166.141 160.96 166.402C161.335 166.664 161.766 166.832 162.219 166.894C164.654 167.242 165.385 168.617 167.375 169.628C168.934 170.426 170.085 170.237 170.012 170.773C169.897 171.381 169.6 171.94 169.159 172.375C168.719 172.811 168.156 173.101 167.546 173.208C166.712 173.354 166.066 173.208 164.63 173.013C165.806 174.559 167.249 175.883 168.891 176.922C172.715 179.4 173.908 183.211 167.278 185.049C164.678 185.768 159.826 184.946 154.067 177.165C152.147 174.378 150.553 171.379 149.318 168.228C146.03 159.857 143.364 151.765 141.44 145.008Z" fill="#FFA8A7"/>
<path d="M118.153 105.55C118.153 105.55 108.655 108.923 106.196 110.08C112.418 117.587 104.978 138.085 104.978 138.085L108.978 151.899C104.674 159.412 138.414 145.464 139.029 141.367C143.997 128.807 144.965 123.169 144.508 119.736C143.522 111.955 138.871 106.847 132.332 101.66L118.153 105.55Z" fill="#367C3C"/>
<path d="M108.966 151.899C117.075 151.686 135.358 144.685 139.017 141.367C143.985 128.807 144.953 123.169 144.496 119.736" fill="#367C3C"/>
<path d="M140.709 97.2095L125.044 102.129C122.654 102.88 120.121 103.058 117.649 102.648C115.178 102.238 112.837 101.253 110.817 99.771C108.797 98.2892 107.154 96.3526 106.021 94.1181C104.888 91.8835 104.297 89.4137 104.296 86.9084V83.639C104.296 72.4064 112.18 61.1859 121.909 58.5802L123.224 58.2271C132.965 55.6153 140.843 62.6105 140.843 73.8493V76.9847C140.843 87.0179 140.709 97.2095 140.709 97.2095Z" fill="#37474F"/>
<path d="M110.354 63.2194C109.398 62.2757 107.772 62.6106 106.731 64.0169L108.667 65.9286C108.209 65.8798 107.746 65.9711 107.34 66.1904C106.64 66.583 106.075 67.1794 105.722 67.9004C105.369 68.6213 105.243 69.4327 105.362 70.2268L110.378 67.6637C110.352 67.5458 110.317 67.4298 110.275 67.3167C111.231 65.9408 111.285 64.1387 110.354 63.2194Z" fill="#37474F"/>
<path d="M133.982 66.9757C135.808 68.1386 138.28 70.239 138.042 82.0561C137.848 92.065 135.047 95.2795 133.647 96.3632C132.247 97.4469 129.531 97.7392 126.901 97.9401V104.253C126.901 104.253 131.449 108.57 131.224 111.371C130.999 114.171 126.901 116.545 120.734 112.765C118.569 111.314 116.743 109.411 115.382 107.188L115.437 93.6784C115.437 93.6784 113.891 95.8336 111.267 93.8854C110.16 93.0074 109.422 91.7474 109.197 90.3529C108.971 88.9584 109.275 87.53 110.049 86.3482C110.387 85.823 110.833 85.3766 111.358 85.0394C111.884 84.7022 112.475 84.482 113.093 84.3939C113.458 84.372 113.823 84.4259 114.166 84.5522C114.509 84.6786 114.822 84.8747 115.085 85.1282C115.348 85.3817 115.556 85.687 115.695 86.0248C115.834 86.3626 115.902 86.7257 115.894 87.091V87.8337C115.894 87.8337 117.812 88.1321 117.939 84.3939C118.012 82.3179 120.49 79.0364 122.913 76.9542C127.041 73.417 132.277 73.3744 133.982 66.9757Z" fill="#FFA8A7"/>
<path d="M127.321 81.4351C127.339 81.7807 127.249 82.1232 127.065 82.4162C126.881 82.7091 126.611 82.9384 126.292 83.0729C125.684 83.2677 125.184 82.8476 125.154 82.1353C125.139 81.7909 125.229 81.4501 125.413 81.1585C125.597 80.867 125.866 80.6385 126.183 80.5037C126.779 80.3088 127.291 80.7289 127.321 81.4351Z" fill="#263238"/>
<path d="M128.046 90.0194L131.236 90.3421C130.968 91.4684 130.019 92.3086 129.16 92.2172C128.302 92.1259 127.778 91.1457 128.046 90.0194Z" fill="#F28F8F"/>
<path d="M136.734 76.0045L134.542 74.8356C134.944 74.0015 135.76 73.6179 136.368 73.9162C136.977 74.2146 137.111 75.1704 136.734 76.0045Z" fill="#263238"/>
<path d="M124.217 79.2556L126.408 76.9116C126.007 76.3028 125.191 76.3028 124.582 76.9664C124.289 77.2616 124.096 77.6414 124.03 78.0521C123.965 78.4629 124.03 78.8838 124.217 79.2556Z" fill="#263238"/>
<path d="M136.453 79.5721C136.471 79.9177 136.381 80.2602 136.197 80.5531C136.013 80.8461 135.743 81.0754 135.425 81.2098C134.816 81.3986 134.316 80.9846 134.286 80.2723C134.271 79.9279 134.361 79.5871 134.545 79.2955C134.729 79.004 134.998 78.7755 135.315 78.6406C135.912 78.4458 136.423 78.8659 136.453 79.5721Z" fill="#263238"/>
<path d="M131.236 79.9313L131.413 87.4258L134.846 85.2767L131.236 79.9313Z" fill="#F28F8F"/>
<path d="M126.901 97.9401C124.125 98.2627 118.421 97.8974 117.532 95.5352C117.846 96.6737 118.556 97.6625 119.535 98.3236C121.239 99.5413 126.901 99.937 126.901 99.937V97.9401Z" fill="#F28F8F"/>
<path d="M89.8549 164.149C92.8198 131.815 94.5063 113.617 106.22 110.08C107.967 110.689 109.587 114.573 109.873 117.331C110.396 122.031 109.763 130.159 106.829 134.341C106.829 134.341 103.176 153.714 101.733 164.861C100.747 172.581 98.6279 183.704 99.1211 189.962C99.2185 191.144 99.9734 192.063 100.57 193.055L102.555 196.349C102.947 197.043 103.397 197.703 103.9 198.321C104.351 198.851 104.88 199.308 105.374 199.795C105.739 200.154 106.098 200.714 105.794 201.122C105.677 201.26 105.523 201.362 105.349 201.414C104.763 201.639 104.133 201.725 103.508 201.667C102.883 201.609 102.28 201.408 101.745 201.079C101.081 200.665 100.527 200.063 99.8517 199.71C99.9091 200.862 100.239 201.984 100.814 202.985C101.203 203.807 101.593 204.629 102.031 205.42C102.515 206.219 102.944 207.048 103.316 207.904C103.686 208.77 103.777 209.73 103.578 210.65C103.345 211.346 102.924 211.964 102.36 212.435C101.797 212.906 101.114 213.211 100.387 213.317C98.9233 213.5 97.4393 213.205 96.1562 212.476C91.7544 210.199 90.2811 205.621 89.721 201.025C89.193 197.201 88.9063 193.347 88.8625 189.488C89.0087 179.314 89.2461 170.438 89.8549 164.149Z" fill="#FFA8A7"/>
<path d="M115.383 106.293C113.465 106.699 111.638 107.45 109.989 108.509C109.989 108.509 114.214 116.667 121.459 117.848C128.703 119.029 129.215 114.153 129.215 114.153C124.728 114.342 120.144 112.381 115.383 106.293Z" fill="#455A64"/>
<path d="M126.901 102.999V104.217C129.976 108.223 130.92 111.681 129.215 114.116C129.215 114.116 134.292 115.839 135.181 112.125C136.07 108.412 129.641 102.384 129.641 102.384C128.703 102.454 127.78 102.662 126.901 102.999Z" fill="#455A64"/>
<path d="M210.76 132.222C214.979 131.754 216.598 132.99 218.169 136.484C219.667 139.82 224.257 149.878 224.026 152.222C223.794 154.566 214.199 164.544 214.199 164.544L211.466 161.22L217.396 151.248L212.677 141.184L210.76 132.222Z" fill="#FFA8A7"/>
<path d="M202.285 128.947L203.076 137.227L210.474 136.764L209.883 127.583L202.285 128.947Z" fill="#FFA8A7"/>
<path d="M192.806 113.033C192.742 112.643 192.742 112.247 192.806 111.858C192.899 111.354 193.1 110.877 193.395 110.459C193.69 110.041 194.073 109.692 194.516 109.436C194.96 109.18 195.453 109.023 195.963 108.977C196.473 108.93 196.987 108.995 197.469 109.167C197.326 108.406 197.442 107.62 197.799 106.934C198.155 106.247 198.732 105.7 199.436 105.38C199.983 105.172 200.566 105.077 201.151 105.1C201.736 105.123 202.31 105.264 202.839 105.514C203.475 105.737 204.003 106.191 204.318 106.786C204.693 106.159 205.243 105.655 205.901 105.338C206.559 105.02 207.296 104.903 208.02 105C208.744 105.097 209.424 105.405 209.974 105.885C210.525 106.364 210.923 106.995 211.119 107.699C212.245 107.45 213.834 107.949 214.34 109.069C214.912 110.342 214.212 111.918 214.473 113.252C214.644 114.116 215.015 114.926 215.174 115.803C215.335 116.779 215.427 117.766 215.448 118.755C215.612 122.841 206.121 125.495 206.315 128.302L201.268 122.147C201.268 121.891 200.55 121.252 200.392 121.039C200.087 120.631 199.819 120.198 199.539 119.772C198.67 118.528 197.461 117.56 196.057 116.984C195.065 116.527 194.206 115.825 193.561 114.944C193.167 114.372 192.909 113.719 192.806 113.033Z" fill="#263238"/>
<path d="M196.793 119.863C196.793 119.863 195.156 122.299 195.369 122.554C195.752 122.806 196.177 122.987 196.623 123.09L196.793 119.863Z" fill="#F28F8F"/>
<path d="M201.798 112.132C200.209 112.941 197.457 114.433 196.745 120.204C196.02 126.122 197.354 128.18 198.182 128.953C198.736 129.477 201.597 129.665 203.089 129.215C204.952 128.643 209 126.682 210.894 123.626C213.122 120.028 213.585 115.236 211.009 113.361C207.387 110.737 203.149 111.468 201.798 112.132Z" fill="#FFA8A7"/>
<path d="M198.334 129.081C199.003 129.446 200.909 129.598 202.328 129.391L202.279 128.332C201.67 128.594 201.038 128.797 200.392 128.941C199.716 129.09 199.023 129.137 198.334 129.081Z" fill="#F28F8F"/>
<path d="M201.104 111.973C200.428 112.22 199.799 112.583 199.247 113.045C198.97 113.275 198.746 113.561 198.589 113.885C198.469 114.186 198.423 114.512 198.456 114.835C198.503 115.279 198.665 115.703 198.927 116.065C199.189 116.427 199.54 116.714 199.947 116.899C199.731 117.19 199.583 117.526 199.513 117.882C199.444 118.238 199.455 118.605 199.545 118.956C199.836 119.774 200.341 120.499 201.006 121.057C201.04 121.096 201.082 121.127 201.128 121.148C201.175 121.156 201.223 121.153 201.268 121.139C201.314 121.125 201.355 121.101 201.39 121.069C202.388 120.399 203.009 119.242 204.434 119.711C206.291 120.32 206.2 122.609 204.745 124.034C204.225 124.559 203.538 124.885 202.802 124.953C202.429 124.962 202.066 124.834 201.78 124.594C201.78 124.594 201.834 127.577 204.428 128.764C206.236 129.291 208.154 129.314 209.974 128.831C210.955 127.583 212.598 125.994 213.95 124.57C218.4 119.888 218.656 113.087 212.087 110.938C211.862 110.865 211.636 110.798 211.405 110.737C209.292 110.186 207.08 110.138 204.946 110.597C203.894 110.824 202.872 111.174 201.901 111.638L201.104 111.973Z" fill="#263238"/>
<path d="M200.891 123.145C200.719 123.087 200.56 122.995 200.423 122.875C200.287 122.754 200.177 122.607 200.098 122.443C200.02 122.279 199.975 122.101 199.967 121.919C199.959 121.737 199.987 121.556 200.051 121.386C200.18 121.039 200.44 120.758 200.775 120.603C201.11 120.448 201.493 120.432 201.841 120.558L200.891 123.145Z" fill="#263238"/>
<path d="M201.621 236.689C201.887 237.501 202.11 238.326 202.291 239.161C202.48 240.08 202.748 241.596 202.425 242.302C202.102 243.008 200.848 243.441 198.906 243.422C197.652 243.422 195.692 244.269 194.346 245.018C193.001 245.766 190.084 246.101 188.611 245.925C186.882 245.724 185.092 244.707 184.812 244.007C184.532 243.307 184.301 242.308 188.976 240.811C189.019 240.811 194.638 238.984 196.611 236.792L201.621 236.689Z" fill="#263238"/>
<path d="M201.621 236.817L200.726 236.707L196.611 236.793C194.638 238.966 189.019 240.799 188.976 240.811L188.227 241.06C187.418 241.718 188.106 242.832 190.054 243.002C192.002 243.173 197.999 241.176 199.332 240.512C200.03 240.184 200.618 239.66 201.025 239.004C201.431 238.348 201.638 237.588 201.621 236.817Z" fill="#FFA8A7"/>
<path d="M201.621 235.051C201.621 235.051 201.621 236.178 201.621 236.817C201.621 237.456 200.866 238.418 198.9 238.351C197.518 238.302 196.556 237.931 196.611 236.792V235.155L201.621 235.051Z" fill="#FFA8A7"/>
<path d="M214.833 229.292C215.186 229.438 215.259 230.12 215.277 231.478C215.277 232.5 215.46 234.296 214.248 234.619C213.037 234.942 211.289 234.716 210.54 233.73C209.615 232.513 208.994 231.417 207.667 229.913C206.51 228.604 205.232 227.38 204.824 225.572C204.434 223.946 204.824 223.252 205.932 222.814C207.04 222.376 208.057 222.735 209.585 224.032C210.017 224.32 210.478 224.563 210.961 224.756C211.989 225.061 214.48 229.146 214.833 229.292Z" fill="#263238"/>
<path d="M214.863 228.038L214.821 229.7C214.821 229.7 213.706 231.879 210.614 229.7C210.547 229.542 210.273 226.321 210.273 226.321L214.863 228.038Z" fill="#FFA8A7"/>
<path d="M210.973 224.762C210.49 224.569 210.029 224.326 209.597 224.038C208.379 223.636 205.725 224.099 206.912 225.907C207.893 227.399 209.149 228.69 210.614 229.712C212.014 230.4 212.507 229.548 212.507 229.548L212.008 225.645C211.735 225.276 211.381 224.974 210.973 224.762Z" fill="#FFA8A7"/>
<path d="M217.097 205.025C216.81 202.098 216.198 199.213 215.271 196.422C215.271 196.422 216.318 189.08 217.14 182.03C219.076 165.494 217.785 165.232 215.448 159.503C215.448 159.503 194.249 156.776 193.366 165.592C192.258 176.55 192.757 197.859 192.946 201.755C193.134 205.652 193.445 207.411 194.602 215.569C195.485 221.779 196.319 235.35 196.319 235.35C199.095 236.951 201.798 235.076 201.798 235.076C201.798 235.076 204.452 218.382 204.391 213.889C204.348 210.567 203.876 207.264 202.985 204.063C202.985 204.063 204.812 186.17 205.244 183.326C205.244 183.326 205.755 189.031 205.944 192.927C206.133 196.824 207.162 200.562 208.117 207.813C208.921 214.102 210.26 227.228 210.26 227.228C213.043 228.829 214.985 228.105 214.985 228.105C214.985 228.105 217.737 210.479 217.097 205.025Z" fill="#367C3C"/>
<g opacity="0.4">
<path d="M217.097 205.025C216.81 202.098 216.198 199.213 215.271 196.422C215.271 196.422 216.318 189.08 217.14 182.03C219.076 165.494 217.785 165.232 215.448 159.503C215.448 159.503 194.249 156.776 193.366 165.592C192.258 176.55 192.757 197.859 192.946 201.755C193.134 205.652 193.445 207.411 194.602 215.569C195.485 221.779 196.319 235.35 196.319 235.35C199.095 236.951 201.798 235.076 201.798 235.076C201.798 235.076 204.452 218.382 204.391 213.889C204.348 210.567 203.876 207.264 202.985 204.063C202.985 204.063 204.812 186.17 205.244 183.326C205.244 183.326 205.755 189.031 205.944 192.927C206.133 196.824 207.162 200.562 208.117 207.813C208.921 214.102 210.26 227.228 210.26 227.228C213.043 228.829 214.985 228.105 214.985 228.105C214.985 228.105 217.737 210.479 217.097 205.025Z" fill="black"/>
</g>
<path opacity="0.15" d="M205.244 183.296L206.267 175.564C209.254 175.558 212.153 174.548 214.498 172.696C214.498 172.696 213.11 175.521 207.478 176.757L206.376 184.714L205.98 193.481C205.794 190.056 205.548 186.661 205.244 183.296Z" fill="black"/>
<path d="M216.19 135.668C215.472 133.537 214.005 132.283 210.76 132.247H210.187C209.956 133.464 206.151 134.524 202.699 133.306C202.224 133.391 200.58 133.574 199.825 133.678L198.176 133.915C195.667 134.737 194.559 139.102 194.316 146.012C194.072 152.922 193.043 167.71 193.043 167.71C193.043 167.71 198.443 170.608 206.961 169.488C214.589 168.483 217.974 164.009 217.712 164.569C216.558 160.759 215.1 157.047 213.353 153.47C217.371 143.626 217.262 138.84 216.19 135.668Z" fill="#455A64"/>
<path d="M202.742 169.756C204.152 169.773 205.562 169.69 206.961 169.506C213.92 168.593 217.414 164.782 217.706 164.551C216.567 160.748 215.11 157.048 213.353 153.488C215.387 148.502 216.361 144.819 216.69 141.982C216.361 144.052 213.305 152.064 209.305 154.462C209.305 154.462 211.557 154.816 213.487 157.464C215.417 160.112 213.834 169.19 202.742 169.756Z" fill="#37474F"/>
<path d="M199.825 133.696C196.501 134.116 193.871 134.81 192.416 137.957C189.981 143.333 187.296 147.747 185.36 149.823C183.29 152.039 174.803 155.911 172.892 155.625C170.98 155.339 169.074 153.117 168.088 153.683C167.102 154.249 168.928 156.386 168.806 156.867C168.685 157.348 165.22 157.093 163.583 155.936C161.945 154.779 161.336 157.153 163.455 159.65C165.574 162.146 169.543 162.328 173.884 161.476C178.225 160.624 186.377 158.328 189.713 155.595C193.737 152.283 195.107 149.775 196.818 146.804C202.997 140.423 199.825 133.696 199.825 133.696Z" fill="#FFA8A7"/>
</svg>
