<svg width="266" height="285" viewBox="0 0 266 285" fill="none" xmlns="http://www.w3.org/2000/svg">
<path d="M170.162 237.052C170.167 239.671 169.532 242.252 168.312 244.569H164.823C164.72 244.57 164.617 244.581 164.515 244.601C164.211 244.671 163.94 244.842 163.747 245.086C163.553 245.33 163.448 245.632 163.448 245.944V250.171C160.502 252.297 156.927 253.37 153.297 253.217C149.667 253.064 146.194 251.694 143.437 249.327C140.681 246.961 138.801 243.736 138.099 240.171C137.398 236.606 137.917 232.909 139.572 229.675C141.227 226.441 143.922 223.858 147.224 222.341C150.525 220.825 154.241 220.464 157.773 221.315C161.305 222.167 164.447 224.182 166.694 227.037C168.942 229.892 170.163 233.419 170.162 237.052V237.052Z" stroke="#263238" stroke-width="0.45003" stroke-linecap="round" stroke-linejoin="round"/>
<path d="M157.93 243.014C160.179 243.288 162.388 243.821 164.515 244.601C164.211 244.671 163.941 244.842 163.747 245.086C163.553 245.33 163.448 245.632 163.449 245.944V250.171C159.983 252.672 155.669 253.7 151.448 253.029C147.227 252.359 143.444 250.045 140.924 246.593C141.014 246.434 141.11 246.274 141.213 246.111C141.817 245.128 145.46 243.541 150.625 243.001C150.952 242.187 151.054 241.299 150.921 240.432C150.921 240.284 150.882 240.149 150.863 240.014C150.572 239.763 150.33 239.46 150.15 239.121C149.885 238.459 149.671 237.778 149.507 237.084C149.52 237.237 149.484 237.39 149.405 237.521C149.025 237.875 148.679 237.264 148.627 236.731C148.576 236.198 147.914 235.266 147.76 234.739C147.709 234.499 147.725 234.25 147.806 234.018C147.886 233.786 148.028 233.58 148.216 233.422C148.279 233.393 148.348 233.381 148.417 233.388C148.486 233.395 148.552 233.42 148.608 233.461C148.378 232.533 148.304 231.573 148.389 230.621C148.429 230.036 148.594 229.467 148.873 228.951C149.152 228.436 149.54 227.986 150.008 227.634C150.008 227.634 150.651 225.777 154.255 225.79C158.168 225.79 158.56 227.923 158.56 227.923C158.56 227.923 160.583 229.272 159.787 233.455C159.838 233.415 159.9 233.392 159.965 233.386C160.03 233.38 160.095 233.393 160.153 233.422C160.343 233.579 160.486 233.784 160.566 234.017C160.647 234.249 160.661 234.499 160.609 234.739C160.461 235.266 159.793 236.191 159.742 236.731C159.69 237.271 159.343 237.875 158.964 237.521C158.922 237.463 158.895 237.394 158.887 237.322C158.727 238.008 158.512 238.681 158.245 239.333C158.052 239.71 157.777 240.039 157.442 240.297C157.364 240.864 157.386 241.44 157.506 241.999C157.579 242.362 157.723 242.707 157.93 243.014V243.014Z" stroke="#263238" stroke-width="0.45003" stroke-linecap="round" stroke-linejoin="round"/>
<path d="M169.969 244.569H164.823C164.064 244.569 163.448 245.185 163.448 245.944V251.09C163.448 251.849 164.064 252.465 164.823 252.465H169.969C170.729 252.465 171.344 251.849 171.344 251.09V245.944C171.344 245.185 170.729 244.569 169.969 244.569Z" stroke="#263238" stroke-width="0.45003" stroke-linecap="round" stroke-linejoin="round"/>
<path d="M169.359 248.064H167.843V246.548H166.943V248.064H165.427V248.963H166.943V250.48H167.843V248.963H169.359V248.064Z" fill="#263238"/>
<path d="M69.2835 106.82C69.2876 110.459 68.4055 114.044 66.7137 117.266H61.317C60.9524 117.266 60.6027 117.411 60.3449 117.669C60.087 117.927 59.9422 118.277 59.9422 118.641V125.066C55.8474 128.016 50.8792 129.503 45.837 129.287C40.7947 129.072 35.9716 127.166 32.1436 123.877C28.3156 120.588 25.7054 116.107 24.7329 111.155C23.7605 106.202 24.4823 101.067 26.7822 96.5746C29.0822 92.0823 32.8265 88.4943 37.4128 86.3879C41.9991 84.2816 47.1607 83.7794 52.067 84.9621C56.9734 86.1448 61.3392 88.9437 64.462 92.9084C67.5848 96.8731 69.2831 101.773 69.2835 106.82V106.82Z" stroke="#263238" stroke-width="0.45003" stroke-linecap="round" stroke-linejoin="round"/>
<path d="M58.2377 93.507L31.1521 98.7768C30.1874 98.9645 29.5574 99.8987 29.7451 100.863L33.2236 118.742C33.4113 119.707 34.3455 120.337 35.3103 120.149L62.3959 114.879C63.3607 114.691 63.9906 113.757 63.8029 112.792L60.3245 94.9139C60.1367 93.9492 59.2025 93.3192 58.2377 93.507Z" stroke="#263238" stroke-width="0.45003" stroke-linecap="round" stroke-linejoin="round"/>
<path d="M29.8821 101.539L44.5558 109.518C45.4293 109.991 46.44 110.146 47.415 109.956C48.39 109.766 49.2688 109.244 49.901 108.477L60.4887 95.5898" stroke="#263238" stroke-width="0.45003" stroke-linecap="round" stroke-linejoin="round"/>
<path d="M35.4709 118.397L44.5296 109.518" stroke="#263238" stroke-width="0.45003" stroke-linecap="round" stroke-linejoin="round"/>
<path d="M61.4585 113.341L49.875 108.478" stroke="#263238" stroke-width="0.45003" stroke-linecap="round" stroke-linejoin="round"/>
<path d="M69.5473 117.266H61.3175C60.5582 117.266 59.9426 117.882 59.9426 118.641V126.871C59.9426 127.63 60.5582 128.246 61.3175 128.246H69.5473C70.3067 128.246 70.9222 127.63 70.9222 126.871V118.641C70.9222 117.882 70.3067 117.266 69.5473 117.266Z" stroke="#263238" stroke-width="0.45003" stroke-linecap="round" stroke-linejoin="round"/>
<path d="M68.1657 122.136H66.0585V120.029H64.8121V122.136H62.7048V123.382H64.8121V125.49H66.0585V123.382H68.1657V122.136Z" fill="#263238"/>
<path d="M246.055 196.899H225.625L226.024 196.256C227.753 193.403 228.631 190.116 228.555 186.78V186.742C228.562 185.785 228.758 184.839 229.13 183.958C229.503 183.077 230.046 182.277 230.727 181.606C231.409 180.935 232.216 180.404 233.103 180.044C233.989 179.685 234.938 179.504 235.895 179.511C236.852 179.518 237.798 179.713 238.679 180.086C239.56 180.459 240.359 181.002 241.031 181.683C241.702 182.365 242.233 183.172 242.592 184.059C242.952 184.945 243.133 185.894 243.126 186.851C242.999 190.089 243.827 193.293 245.509 196.064L246.055 196.899Z" stroke="#263238" stroke-width="0.45003" stroke-linecap="round" stroke-linejoin="round"/>
<path d="M234.189 179.315C233.863 178.988 233.64 178.571 233.55 178.117C233.46 177.664 233.506 177.194 233.683 176.766C233.86 176.339 234.16 175.974 234.545 175.717C234.929 175.46 235.381 175.323 235.844 175.323C236.306 175.323 236.758 175.46 237.143 175.717C237.527 175.974 237.827 176.339 238.004 176.766C238.181 177.194 238.227 177.664 238.137 178.117C238.047 178.571 237.825 178.988 237.498 179.315" stroke="#263238" stroke-width="0.45003" stroke-linecap="round" stroke-linejoin="round"/>
<path d="M246.582 196.905H225.105C224.626 196.905 224.238 197.293 224.238 197.773V198.132C224.238 198.611 224.626 199 225.105 199H246.582C247.061 199 247.449 198.611 247.449 198.132V197.773C247.449 197.293 247.061 196.905 246.582 196.905Z" stroke="#263238" stroke-width="0.45003" stroke-linecap="round" stroke-linejoin="round"/>
<path d="M235.84 204.306C236.827 204.306 237.626 203.507 237.626 202.52C237.626 201.534 236.827 200.734 235.84 200.734C234.854 200.734 234.054 201.534 234.054 202.52C234.054 203.507 234.854 204.306 235.84 204.306Z" stroke="#263238" stroke-width="0.45003" stroke-linecap="round" stroke-linejoin="round"/>
<path d="M255.371 191.361C255.376 194.52 254.613 197.633 253.148 200.432H248.651C248.287 200.432 247.937 200.577 247.679 200.835C247.421 201.093 247.276 201.442 247.276 201.807V207.204C243.72 209.771 239.404 211.067 235.022 210.883C230.64 210.699 226.448 209.047 223.119 206.191C219.79 203.335 217.52 199.442 216.672 195.139C215.824 190.836 216.449 186.373 218.446 182.468C220.443 178.563 223.695 175.444 227.68 173.612C231.665 171.78 236.15 171.342 240.414 172.369C244.678 173.396 248.472 175.827 251.187 179.272C253.901 182.717 255.377 186.975 255.378 191.361H255.371Z" stroke="#263238" stroke-width="0.45003" stroke-linecap="round" stroke-linejoin="round"/>
<path d="M255.423 200.432H248.645C247.885 200.432 247.27 201.048 247.27 201.807V208.585C247.27 209.344 247.885 209.96 248.645 209.96H255.423C256.182 209.96 256.797 209.344 256.797 208.585V201.807C256.797 201.048 256.182 200.432 255.423 200.432Z" stroke="#263238" stroke-width="0.45003" stroke-linecap="round" stroke-linejoin="round"/>
<path d="M254.401 204.66H252.577V202.829H251.497V204.66H249.666V205.739H251.497V207.564H252.577V205.739H254.401V204.66Z" fill="#263238"/>
<path d="M248.176 27.2004H104.118C101.652 27.2004 99.6526 29.1995 99.6526 31.6654V171.914C99.6526 174.38 101.652 176.379 104.118 176.379H248.176C250.642 176.379 252.641 174.38 252.641 171.914V31.6654C252.641 29.1995 250.642 27.2004 248.176 27.2004Z" fill="white"/>
<path d="M228.941 164.583H193.477C191.262 164.583 189.138 163.703 187.571 162.137C186.005 160.571 185.125 158.446 185.125 156.231C185.125 154.016 186.005 151.892 187.571 150.326C189.138 148.759 191.262 147.879 193.477 147.879H228.941C231.156 147.879 233.28 148.759 234.846 150.326C236.413 151.892 237.292 154.016 237.292 156.231C237.292 158.446 236.413 160.571 234.846 162.137C233.28 163.703 231.156 164.583 228.941 164.583Z" fill="#367C3C" stroke="#263238" stroke-width="0.45003" stroke-linecap="round" stroke-linejoin="round"/>
<path d="M202.143 160.33H200.788L200.557 158.775H198.905L198.674 160.33H197.46L198.828 151.786H200.794L202.143 160.33ZM199.079 157.619H200.364L199.721 153.295L199.079 157.619Z" fill="#263238"/>
<path d="M206.648 157.144V158.274C206.648 159.643 205.967 160.427 204.649 160.427C203.332 160.427 202.645 159.643 202.645 158.274V153.835C202.645 152.467 203.326 151.689 204.649 151.689C205.973 151.689 206.648 152.467 206.648 153.835V154.664H205.363V153.751C205.363 153.141 205.093 152.91 204.662 152.91C204.232 152.91 203.968 153.141 203.968 153.751V158.364C203.968 158.975 204.238 159.193 204.662 159.193C205.086 159.193 205.363 158.975 205.363 158.364V157.144H206.648Z" fill="#263238"/>
<path d="M211.363 157.144V158.274C211.363 159.643 210.676 160.427 209.359 160.427C208.042 160.427 207.361 159.643 207.361 158.274V153.835C207.361 152.467 208.042 151.689 209.359 151.689C210.676 151.689 211.363 152.467 211.363 153.835V154.664H210.078V153.751C210.078 153.141 209.808 152.91 209.384 152.91C208.96 152.91 208.69 153.141 208.69 153.751V158.364C208.69 158.975 208.954 159.193 209.384 159.193C209.815 159.193 210.078 158.975 210.078 158.364V157.144H211.363Z" fill="#263238"/>
<path d="M213.522 155.383H215.366V156.604H213.522V159.11H215.841V160.33H212.179V151.786H215.841V153.019H213.522V155.383Z" fill="#263238"/>
<path d="M220.653 153.893V155.004C220.653 156.373 220.011 157.118 218.649 157.118H218.006V160.33H216.663V151.786H218.661C219.991 151.786 220.653 152.531 220.653 153.893ZM218.019 153.019V155.91H218.661C219.092 155.91 219.304 155.717 219.304 155.107V153.822C219.304 153.18 219.073 153.019 218.661 153.019H218.019Z" fill="#263238"/>
<path d="M220.884 151.786H225.034V153.019H223.634V160.343H222.291V153.019H220.884V151.786Z" fill="#263238"/>
<path d="M158.803 164.583H123.346C121.131 164.583 119.007 163.703 117.441 162.137C115.874 160.571 114.994 158.446 114.994 156.231C114.994 154.016 115.874 151.892 117.441 150.326C119.007 148.759 121.131 147.879 123.346 147.879H158.803C161.019 147.879 163.143 148.759 164.709 150.326C166.275 151.892 167.155 154.016 167.155 156.231C167.155 158.446 166.275 160.571 164.709 162.137C163.143 163.703 161.019 164.583 158.803 164.583Z" fill="#367C3C"/>
<path opacity="0.6" d="M158.803 164.583H123.346C121.131 164.583 119.007 163.703 117.441 162.137C115.874 160.571 114.994 158.446 114.994 156.231C114.994 154.016 115.874 151.892 117.441 150.326C119.007 148.759 121.131 147.879 123.346 147.879H158.803C161.019 147.879 163.143 148.759 164.709 150.326C166.275 151.892 167.155 154.016 167.155 156.231C167.155 158.446 166.275 160.571 164.709 162.137C163.143 163.703 161.019 164.583 158.803 164.583Z" fill="white"/>
<path d="M158.803 164.583H123.346C121.131 164.583 119.007 163.703 117.441 162.137C115.874 160.571 114.994 158.446 114.994 156.231V156.231C114.994 154.016 115.874 151.892 117.441 150.326C119.007 148.759 121.131 147.879 123.346 147.879H158.803C161.019 147.879 163.143 148.759 164.709 150.326C166.275 151.892 167.155 154.016 167.155 156.231V156.231C167.155 158.446 166.275 160.571 164.709 162.137C163.143 163.703 161.019 164.583 158.803 164.583V164.583Z" stroke="#263238" stroke-width="0.45003" stroke-linecap="round" stroke-linejoin="round"/>
<path d="M126.385 151.786H128.512C129.855 151.786 130.51 152.531 130.51 153.893V158.217C130.51 159.585 129.867 160.33 128.512 160.33H126.385V151.786ZM127.728 153.006V159.11H128.486C128.91 159.11 129.167 158.885 129.167 158.274V153.835C129.167 153.225 128.91 153.006 128.486 153.006H127.728Z" fill="#263238"/>
<path d="M132.707 155.383H134.551V156.604H132.707V159.11H135.027V160.33H131.365V151.786H135.027V153.019H132.707V155.383Z" fill="#263238"/>
<path d="M139.755 157.144V158.274C139.755 159.643 139.074 160.427 137.75 160.427C136.427 160.427 135.752 159.643 135.752 158.274V153.835C135.752 152.467 136.433 151.689 137.75 151.689C139.067 151.689 139.755 152.467 139.755 153.835V154.664H138.47V153.751C138.47 153.141 138.206 152.91 137.776 152.91C137.345 152.91 137.082 153.141 137.082 153.751V158.364C137.082 158.975 137.352 159.193 137.776 159.193C138.2 159.193 138.47 158.975 138.47 158.364V157.144H139.755Z" fill="#263238"/>
<path d="M140.571 151.786H141.913V159.11H144.136V160.33H140.583L140.571 151.786Z" fill="#263238"/>
<path d="M144.714 151.786H146.064V160.33H144.714V151.786Z" fill="#263238"/>
<path d="M148.254 154.137V160.33H147.047V151.786H148.73L150.085 156.925V151.786H151.28V160.33H149.918L148.254 154.137Z" fill="#263238"/>
<path d="M153.587 155.383H155.431V156.604H153.587V159.11H155.906V160.33H152.244V151.786H155.906V153.019H153.587V155.383Z" fill="#263238"/>
<path d="M210.952 94.5555C210.952 101.444 208.909 108.177 205.082 113.905C201.255 119.632 195.816 124.096 189.452 126.732C183.088 129.368 176.085 130.058 169.329 128.714C162.574 127.37 156.368 124.053 151.497 119.182C146.626 114.312 143.309 108.106 141.966 101.35C140.622 94.5942 141.311 87.5915 143.947 81.2276C146.584 74.8637 151.047 69.4244 156.775 65.5975C162.502 61.7706 169.236 59.728 176.124 59.728C180.703 59.7101 185.239 60.5988 189.473 62.3427C193.707 64.0866 197.553 66.6513 200.791 69.8889C204.028 73.1265 206.593 76.973 208.337 81.2065C210.081 85.44 210.969 89.9769 210.952 94.5555Z" fill="#367C3C" stroke="#263238" stroke-width="0.45003" stroke-linecap="round" stroke-linejoin="round"/>
<path d="M205.073 113.926C201.954 118.582 197.758 122.416 192.841 125.104C187.923 127.792 182.43 129.254 176.827 129.365C171.224 129.476 165.677 128.233 160.657 125.742C155.636 123.251 151.292 119.585 147.991 115.056C148.197 114.709 148.402 114.362 148.633 114.022C149.918 111.895 157.782 108.529 168.903 107.321C171.412 107.045 173.934 106.895 176.458 106.871C179.192 106.846 181.924 107.004 184.637 107.347C194.299 108.555 202.336 111.754 205.073 113.926Z" fill="#757575" stroke="#263238" stroke-width="0.45003" stroke-linecap="round" stroke-linejoin="round"/>
<path d="M185.446 108.169C184.578 109.705 183.312 110.978 181.781 111.854C180.25 112.731 178.511 113.178 176.747 113.148C171.608 113.148 167.888 108.702 167.888 108.702C169.687 107.09 169.815 104.096 169.533 101.738C169.416 100.583 169.201 99.4393 168.89 98.3203H184.219C183.288 101.385 183.32 103.582 183.68 105.111C184.187 107.366 185.446 108.169 185.446 108.169Z" fill="white" stroke="#263238" stroke-width="0.45003" stroke-linecap="round" stroke-linejoin="round"/>
<path d="M183.647 105.111C172.571 108.015 170.374 101.687 170.374 101.687L169.533 101.738C169.416 100.583 169.201 99.4393 168.89 98.3203H184.219C183.255 101.385 183.288 103.582 183.647 105.111Z" fill="#263238"/>
<path d="M187.521 87.5592C187.521 87.5592 188.755 86.2164 189.365 86.6597C189.774 86.9943 190.083 87.4352 190.258 87.9339C190.432 88.4327 190.466 88.9699 190.355 89.4865C190.027 90.6301 188.594 92.6153 188.479 93.7717C188.363 94.9281 187.631 96.2388 186.815 95.4742C185.999 94.7097 187.521 87.5592 187.521 87.5592Z" fill="white" stroke="#263238" stroke-width="0.45003" stroke-linecap="round" stroke-linejoin="round"/>
<path d="M165.524 87.5592C165.524 87.5592 164.29 86.2164 163.68 86.6597C163.271 86.9943 162.962 87.4352 162.788 87.9339C162.613 88.4327 162.58 88.9699 162.691 89.4865C163.018 90.6301 164.451 92.6153 164.567 93.7717C164.682 94.9281 165.415 96.2388 166.231 95.4742C167.047 94.7097 165.524 87.5592 165.524 87.5592Z" fill="white" stroke="#263238" stroke-width="0.45003" stroke-linecap="round" stroke-linejoin="round"/>
<path d="M176.259 72.0695C191.787 72.0695 188.093 92.7438 185.254 99.3803C184.251 101.712 179.047 104.771 176.535 104.771C174.197 104.771 168.826 101.115 167.901 98.9242C164.997 92.2426 161.483 72.0695 176.259 72.0695Z" fill="white" stroke="#263238" stroke-width="0.45003" stroke-linecap="round" stroke-linejoin="round"/>
<path d="M178.893 84.8223C178.893 84.8223 182.934 83.5695 184.187 86.0687" stroke="#263238" stroke-width="0.45003" stroke-linecap="round" stroke-linejoin="round"/>
<path d="M181.887 88.2209C181.887 88.6963 181.643 89.0818 181.347 89.0818C181.052 89.0818 180.801 88.6963 180.801 88.2209C180.801 87.7455 181.045 87.36 181.347 87.36C181.649 87.36 181.887 87.7455 181.887 88.2209Z" fill="#263238"/>
<path d="M174.152 84.8223C174.152 84.8223 170.111 83.5695 168.858 86.0687" stroke="#263238" stroke-width="0.45003" stroke-linecap="round" stroke-linejoin="round"/>
<path d="M171.158 88.2209C171.158 88.6963 171.402 89.0818 171.698 89.0818C171.993 89.0818 172.244 88.6963 172.244 88.2209C172.244 87.7455 172 87.36 171.698 87.36C171.396 87.36 171.158 87.7455 171.158 88.2209Z" fill="#263238"/>
<path d="M182.684 77.3441C178.793 78.5868 174.612 78.5868 170.721 77.3441C170.721 77.3441 168.62 77.222 167.798 78.2757C166.975 79.3293 167.798 82.5801 168.016 83.9036C168.235 85.227 166.198 86.1458 166.474 89.4865L165.684 90.643C165.684 90.643 163.493 85.2592 164.046 80.6335C164.598 76.0078 167.522 74.2089 167.522 74.2089C167.522 74.2089 168.851 70.2064 176.664 70.2385C185.086 70.2707 185.934 74.8257 185.934 74.8257C185.934 74.8257 191.639 78.6354 187.418 91.0348L186.506 89.4929C186.724 87.8483 186.345 86.1801 185.44 84.7902C184.701 83.7173 185.877 80.4921 185.6 78.8346C185.324 77.1771 182.684 77.3441 182.684 77.3441Z" fill="#263238"/>
<path d="M177.448 87.36C177.448 87.36 177.493 91.1376 178.482 92.3647C178.99 93.0072 178 94.3563 176.471 94.6005" stroke="#263238" stroke-width="0.45003" stroke-linecap="round" stroke-linejoin="round"/>
<path d="M173.124 96.7913C173.231 97.1806 173.414 97.545 173.662 97.8636C173.91 98.1821 174.218 98.4487 174.57 98.648C175.63 99.1041 178.855 98.9114 179.465 98.5323C180.075 98.1533 180.377 96.9133 180.377 96.9133" fill="white"/>
<path d="M173.124 96.7913C173.231 97.1806 173.414 97.545 173.662 97.8636C173.91 98.1821 174.218 98.4487 174.57 98.648C175.63 99.1041 178.855 98.9114 179.465 98.5323C180.075 98.1533 180.377 96.9133 180.377 96.9133" stroke="#263238" stroke-width="0.45003" stroke-linecap="round" stroke-linejoin="round"/>
<path d="M172.783 96.7142C175.426 97.2805 178.159 97.2805 180.801 96.7142" stroke="#263238" stroke-width="0.45003" stroke-linecap="round" stroke-linejoin="round"/>
<path d="M184.187 77.5047C184.187 77.5047 182.452 80.0745 176.747 80.6335C177.182 80.2289 177.526 79.7361 177.756 79.188C176.893 79.8199 175.913 80.2732 174.872 80.5214C173.832 80.7697 172.753 80.8077 171.697 80.6335C170.612 80.4864 169.506 80.6268 168.492 81.0405C167.477 81.4543 166.589 82.1269 165.915 82.9913L164.952 87.36C164.952 87.36 161.54 83.5053 163.969 77.312L163.095 78.0379C163.095 78.0379 164.065 69.7567 174.017 69.4547L172.809 68.7288C172.809 68.7288 182.722 66.6151 186.602 73.1424C186.602 73.1424 190.052 73.7849 190.9 79.7533L189.93 79.1109C189.93 79.1109 191.466 84.0642 188.279 88.208C188.254 88.2209 184.187 81.6614 184.187 77.5047Z" fill="#263238"/>
<path opacity="0.5" d="M214.01 49.2752H138.29C137.779 49.2752 137.289 49.0721 136.927 48.7107C136.566 48.3492 136.363 47.859 136.363 47.3478C136.363 46.8366 136.566 46.3464 136.927 45.985C137.289 45.6235 137.779 45.4204 138.29 45.4204H214.01C214.521 45.4204 215.011 45.6235 215.373 45.985C215.734 46.3464 215.937 46.8366 215.937 47.3478C215.937 47.859 215.734 48.3492 215.373 48.7107C215.011 49.0721 214.521 49.2752 214.01 49.2752Z" fill="#263238"/>
<g opacity="0.4">
<path d="M208.607 134.812H143.687C143.586 134.812 143.487 134.792 143.395 134.754C143.303 134.715 143.219 134.659 143.148 134.588C143.078 134.516 143.022 134.432 142.984 134.339C142.947 134.247 142.928 134.147 142.928 134.047C142.928 133.846 143.008 133.653 143.151 133.511C143.293 133.369 143.486 133.289 143.687 133.289H208.607C208.707 133.288 208.806 133.307 208.899 133.345C208.992 133.383 209.076 133.438 209.147 133.509C209.218 133.579 209.274 133.663 209.313 133.756C209.352 133.848 209.371 133.947 209.371 134.047C209.371 134.25 209.291 134.445 209.147 134.588C209.004 134.731 208.81 134.812 208.607 134.812Z" fill="black"/>
<path d="M202.182 138.885H150.111C150.011 138.885 149.912 138.865 149.819 138.827C149.727 138.788 149.643 138.732 149.573 138.661C149.502 138.59 149.446 138.505 149.409 138.413C149.371 138.32 149.352 138.221 149.353 138.12C149.353 137.919 149.433 137.727 149.575 137.584C149.717 137.442 149.91 137.362 150.111 137.362H202.182C202.282 137.362 202.381 137.38 202.474 137.418C202.567 137.456 202.651 137.512 202.722 137.582C202.793 137.653 202.85 137.736 202.888 137.829C202.927 137.921 202.947 138.02 202.947 138.12C202.947 138.323 202.866 138.518 202.723 138.661C202.579 138.804 202.385 138.885 202.182 138.885Z" fill="black"/>
</g>
<path d="M210.431 110.694H199.606C197.903 110.694 196.522 112.075 196.522 113.778V124.603C196.522 126.306 197.903 127.687 199.606 127.687H210.431C212.135 127.687 213.515 126.306 213.515 124.603V113.778C213.515 112.075 212.135 110.694 210.431 110.694Z" fill="#263238" stroke="white" stroke-width="0.45003" stroke-linecap="round" stroke-linejoin="round"/>
<path d="M209.249 118.23H205.985V114.966H204.058V118.23H200.794V120.157H204.058V123.415H205.985V120.157H209.249V118.23Z" fill="white"/>
<path opacity="0.3" d="M248.349 34.3316C248.349 34.9517 248.165 35.5578 247.821 36.0734C247.476 36.589 246.987 36.9908 246.414 37.2281C245.841 37.4654 245.211 37.5275 244.602 37.4065C243.994 37.2856 243.436 36.987 242.997 36.5485C242.559 36.11 242.26 35.5514 242.139 34.9432C242.018 34.3351 242.08 33.7047 242.318 33.1318C242.555 32.5589 242.957 32.0693 243.472 31.7248C243.988 31.3803 244.594 31.1964 245.214 31.1964C246.046 31.1964 246.843 31.5267 247.431 32.1147C248.019 32.7026 248.349 33.5001 248.349 34.3316Z" fill="black"/>
<path opacity="0.3" d="M239.355 34.3316C239.355 34.9517 239.171 35.5578 238.826 36.0734C238.482 36.589 237.992 36.9908 237.419 37.2281C236.847 37.4654 236.216 37.5275 235.608 37.4065C235 37.2856 234.441 36.987 234.003 36.5485C233.564 36.11 233.266 35.5514 233.145 34.9432C233.024 34.3351 233.086 33.7047 233.323 33.1318C233.56 32.5589 233.962 32.0693 234.478 31.7248C234.993 31.3803 235.6 31.1964 236.22 31.1964C237.051 31.1964 237.849 31.5267 238.437 32.1147C239.025 32.7026 239.355 33.5001 239.355 34.3316Z" fill="black"/>
<path opacity="0.3" d="M188.761 160.729C188.761 160.729 192.783 161.596 192.924 164.525C193.233 170.822 193.22 171.014 188.8 170.455C188.8 170.455 186.127 174.124 179.651 173.07L177.435 176.398H165.98C169.16 172.601 171.717 169.46 172.835 167.969C176.94 162.502 196.124 154.445 196.124 154.445C196.124 154.445 196.047 156.533 188.761 160.729Z" fill="black" fill-opacity="0.7"/>
<path d="M248.176 27.2004H104.118C101.652 27.2004 99.6526 29.1995 99.6526 31.6654V171.914C99.6526 174.38 101.652 176.379 104.118 176.379H248.176C250.642 176.379 252.641 174.38 252.641 171.914V31.6654C252.641 29.1995 250.642 27.2004 248.176 27.2004Z" stroke="#263238" stroke-width="0.45003" stroke-linecap="round" stroke-linejoin="round"/>
<path d="M44.048 266.824C44.048 266.824 45.1787 258.594 46.0203 255.202C46.862 251.809 51.8024 238.684 52.8753 231.334L40.1933 221.229C40.1933 221.229 35.4134 245.88 35.4134 249.747L32.7986 258.17" fill="white"/>
<path d="M44.048 266.824C44.048 266.824 45.1787 258.594 46.0203 255.202C46.862 251.809 51.8024 238.684 52.8753 231.334L40.1933 221.229C40.1933 221.229 35.4134 245.88 35.4134 249.747L32.7986 258.17" stroke="#263238" stroke-width="0.45003" stroke-linecap="round" stroke-linejoin="round"/>
<path d="M56.6208 240.631C53.9696 238.609 51.3526 236.468 48.7699 234.206C45.0373 230.994 41.401 227.499 37.906 223.831C38.7516 219.731 39.8022 215.676 41.054 211.682C42.2474 207.925 44.7933 204.745 48.1982 202.758L48.3266 202.681L48.9241 202.347C49.2968 202.148 49.6565 201.968 50.0035 201.814C51.145 201.287 52.3437 200.895 53.5755 200.644L56.306 236.538L56.6208 240.631Z" fill="#367C3C"/>
<path opacity="0.3" d="M56.6208 240.631C53.9696 238.609 51.3526 236.468 48.7699 234.206C45.0373 230.994 41.401 227.499 37.906 223.831C38.7516 219.731 39.8022 215.676 41.054 211.682C42.2474 207.925 44.7933 204.745 48.1982 202.758L48.3266 202.681L48.9241 202.347C49.2968 202.148 49.6565 201.968 50.0035 201.814C51.145 201.287 52.3437 200.895 53.5755 200.644L56.306 236.538L56.6208 240.631Z" fill="black" fill-opacity="0.7"/>
<path d="M56.6208 240.631C53.9696 238.609 51.3526 236.468 48.7699 234.206C45.0373 230.994 41.401 227.499 37.906 223.831C38.7516 219.731 39.8022 215.676 41.054 211.682C42.2474 207.925 44.7933 204.745 48.1982 202.758L48.3266 202.681L48.9241 202.347C49.2968 202.148 49.6565 201.968 50.0035 201.814C51.145 201.287 52.3437 200.895 53.5755 200.644L56.306 236.538L56.6208 240.631Z" stroke="#263238" stroke-width="0.45003" stroke-linecap="round" stroke-linejoin="round"/>
<path d="M43.4055 220.682C43.4055 220.682 44.8832 230.724 51.6675 234.553" stroke="#263238" stroke-width="0.45003" stroke-linecap="round" stroke-linejoin="round"/>
<path d="M111.423 228.829C111.423 233.968 107.24 254.758 107.24 254.758L107.099 273.023C107.099 273.023 98.445 275.895 84.478 275.895C67.3629 275.895 59.7819 271.314 59.1138 270.884L59.0624 270.852L61.6322 258.189C61.6322 258.189 48.1406 226.349 47.8772 225.257C47.4596 223.638 47.0999 222 46.8108 220.368C46.0596 216.598 45.8626 212.739 46.2261 208.913C46.4262 206.752 47.0622 204.654 48.0957 202.745C48.1685 202.617 48.2456 202.488 48.3269 202.36C48.6752 201.798 49.0822 201.274 49.5412 200.798L49.6633 200.67C50.0867 200.246 50.5397 199.854 51.0188 199.494C51.1795 199.372 51.3465 199.257 51.5135 199.141L51.9311 198.858L52.201 198.685L52.5543 198.466L53.1004 198.152C63.2448 192.53 82.1266 193.397 82.1266 193.397C82.3346 193.329 82.5505 193.288 82.769 193.275H82.814C83.1911 193.253 83.5695 193.284 83.9383 193.365C88.6411 194.278 97.25 201.955 103.591 210.712C105.495 213.297 107.176 216.039 108.615 218.909C110.35 222.404 111.423 225.848 111.423 228.829Z" fill="#367C3C"/>
<path opacity="0.3" d="M111.307 227.068C107.9 226.011 104.684 224.417 101.779 222.346C97.224 223.201 92.8296 218.665 91.686 216.237L106.63 215.273C107.356 216.468 108.011 217.669 108.595 218.858C109.941 221.428 110.857 224.202 111.307 227.068Z" fill="black" fill-opacity="0.7"/>
<path opacity="0.3" d="M64.6705 261.44C64.6705 261.44 68.0306 275.818 59.1133 270.865L59.0619 270.833L61.6317 258.17C61.6317 258.17 48.1401 226.33 47.8767 225.238C47.4591 223.619 47.0994 221.98 46.8102 220.348C46.0609 216.585 45.864 212.733 46.2256 208.913C46.4257 206.752 47.0617 204.654 48.0952 202.745C48.168 202.617 48.2451 202.488 48.3264 202.36C48.6747 201.798 49.0817 201.274 49.5407 200.798L49.6627 200.67C50.0862 200.246 50.5392 199.854 51.0183 199.494C51.1789 199.372 51.346 199.257 51.513 199.141L51.9306 198.858L52.2005 198.685L52.5538 198.466L53.0999 198.152C62.4348 198.871 72.8105 203.291 74.8149 212.363C74.8149 212.363 73.9669 226.259 70.9152 231.341C69.02 234.508 68.3775 249.298 77.7509 245.019C74.8213 259.782 64.6705 261.44 64.6705 261.44Z" fill="black" fill-opacity="0.7"/>
<path d="M59.0619 270.833L61.6317 258.17C61.6317 258.17 48.1401 226.33 47.8767 225.238C47.4591 223.619 47.0994 221.98 46.8102 220.348C46.0609 216.585 45.864 212.733 46.2256 208.913C46.4257 206.752 47.0617 204.654 48.0952 202.745C48.168 202.617 48.2451 202.488 48.3264 202.36C48.6747 201.798 49.0817 201.274 49.5407 200.798L49.6627 200.67C50.0862 200.246 50.5392 199.854 51.0183 199.494V199.494C60.3725 192.427 82.1261 193.397 82.1261 193.397C82.3341 193.329 82.55 193.288 82.7685 193.275H82.8135C83.1906 193.253 83.569 193.284 83.9378 193.365C88.6406 194.278 97.2495 201.955 103.591 210.712C105.495 213.297 107.176 216.039 108.615 218.909C110.368 222.462 111.441 225.899 111.441 228.861C111.441 234.001 107.259 254.791 107.259 254.791L107.118 273.056" stroke="#263238" stroke-width="0.45003" stroke-linecap="round" stroke-linejoin="round"/>
<path d="M91.5447 164.301C90.7802 163.35 87.3688 161.088 87.3688 161.088C86.7263 156.649 86.328 150.725 81.728 146.132C75.4384 139.855 60.9253 141.84 56.1711 151.201C46.682 169.903 64.6194 187.519 86.5721 183.793C88.4417 183.478 89.7009 181.647 89.9579 172.954L90.5425 171.74C90.5425 171.74 89.9386 169.665 89.7523 168.624C90.8573 167.558 92.0972 164.994 91.5447 164.301Z" fill="white" stroke="#263238" stroke-width="0.45003" stroke-linecap="round" stroke-linejoin="round"/>
<path d="M86.1482 154.143C85.5852 155.06 85.1527 156.05 84.8633 157.086" stroke="#263238" stroke-width="0.45003" stroke-linecap="round" stroke-linejoin="round"/>
<path d="M86.4822 162.508C86.4822 162.508 88.0112 163.433 88.7051 166.363" stroke="#263238" stroke-width="0.45003" stroke-linecap="round" stroke-linejoin="round"/>
<path d="M90.3436 172.177C90.3436 172.177 89.7461 173.141 87.2598 172.858" stroke="#263238" stroke-width="0.45003" stroke-linecap="round" stroke-linejoin="round"/>
<path d="M83.8224 143.703C83.8224 143.703 89.6045 141.32 87.9342 152.627C86.2638 163.934 77.9054 177.381 70.8577 174.863L70.9797 173.854C70.9797 173.854 77.1473 176.289 82.3384 165.566C87.5294 154.844 87.099 145.008 84.1308 146.736L83.8224 143.703Z" fill="#263238"/>
<path d="M83.3022 161.23C83.3022 161.23 81.0922 167.057 79.3254 168.939C79.3254 168.939 78.6123 166.71 76.9098 166.69C75.2073 166.671 73.6975 162.142 73.6975 162.142L83.3022 161.23Z" fill="#263238"/>
<path d="M80.925 161.499C80.925 161.499 76.8647 171.4 79.8392 179.045C82.8138 186.69 91.1979 192.434 91.1979 192.434L88.4931 191.207C88.4931 191.207 81.3747 186.523 78.8884 178.415C77.4274 173.273 77.3919 167.83 78.7856 162.669L80.925 161.499Z" fill="#263238"/>
<path d="M47.4657 148.323C47.4657 148.323 40.7006 151.092 41.0668 161.12C41.433 171.149 48.3073 179.867 49.6886 192.652C50.89 203.773 38.7668 213.564 51.0442 226.561C51.0442 226.561 45.6668 218.209 47.3051 208.868C48.9434 199.526 54.5648 200.869 50.3953 185.662C46.2258 170.455 37.3791 161.461 46.5406 151.766L47.4657 148.323Z" fill="#263238"/>
<path d="M86.9127 189.864C74.539 182.964 77.9183 168.232 77.9183 168.232C87.2275 161.371 88.4674 148.522 86.7585 145.213C85.0496 141.905 81.3233 143.035 81.3233 143.035C66.489 135.968 48.2304 142.566 44.7611 152.955C40.3218 166.26 47.9092 176.482 51.6162 187.647C54.9441 197.683 47.2346 199.501 47.2603 209.491C45.8019 228.122 64.9086 235.902 64.9086 235.902C64.4056 235.599 63.9894 235.172 63.7001 234.661C63.4109 234.15 63.2584 233.573 63.2575 232.986C63.2575 230.949 68.4678 230.949 71.8985 225.212C74.7446 220.451 74.9694 208.842 75.9203 203.227C77.2052 198.145 78.8113 194.085 82.1328 193.346C90.8831 191.387 98.4319 199.88 98.4319 199.88C98.4319 199.88 99.2928 196.764 86.9127 189.864Z" fill="#263238"/>
<g opacity="0.3">
<path d="M83.3022 145.072C84.6514 147.443 74.5262 159.983 70.8578 170.821C67.1894 181.66 70.9221 188.014 70.9221 188.014" stroke="white" stroke-width="0.45003" stroke-linecap="round" stroke-linejoin="round"/>
<path d="M60.6168 148.323C60.6168 148.323 49.5987 157.812 55.8691 175.164C62.1395 192.517 59.3641 204.48 57.2761 213.834C55.1881 223.188 56.8842 226.4 59.4283 228.944" stroke="white" stroke-width="0.45003" stroke-linecap="round" stroke-linejoin="round"/>
<path d="M74.4811 176.963C74.4811 176.963 80.3917 183.619 76.3378 193.237C72.2839 202.854 70.0803 209.729 68.5513 217.213C67.0222 224.698 63.6365 226.561 63.6365 226.561" stroke="white" stroke-width="0.45003" stroke-linecap="round" stroke-linejoin="round"/>
<path d="M74.8216 143.491C74.8216 143.491 68.7247 143.209 65.8272 151.002C62.9297 158.795 65.6602 172.261 64.6451 176.963" stroke="white" stroke-width="0.45003" stroke-linecap="round" stroke-linejoin="round"/>
<path d="M59.0622 143.492C59.0622 143.492 50.1192 143.865 47.2667 156.232C44.4142 168.599 53.0039 178.994 53.9162 188.631C54.8284 198.268 49.419 207.191 49.7466 213.834C50.0743 220.477 53.9162 223.985 53.9162 223.985" stroke="white" stroke-width="0.45003" stroke-linecap="round" stroke-linejoin="round"/>
</g>
<path d="M114.982 194.367C114.982 194.367 134.551 195.826 137.346 195.826C140.14 195.826 166.063 170.128 170.638 165.071C175.212 160.015 195.051 153.661 195.051 153.661C195.051 153.661 194.8 155.762 187.174 159.27C187.174 159.27 191.1 160.491 190.984 163.42C190.734 169.723 190.702 169.916 186.346 168.958C186.346 168.958 183.358 172.383 177.004 170.757C177.004 170.757 161.759 189.722 155.02 198.383C148.28 207.043 145.492 209.947 142.948 210.891C140.404 211.836 109.399 213.853 109.399 213.853L114.982 194.367Z" fill="white" stroke="#263238" stroke-width="0.45003" stroke-linecap="round" stroke-linejoin="round"/>
<path d="M90.3434 217.425C100.494 223.779 117.519 215.903 117.519 215.903C117.519 215.903 120.571 202.077 117.519 193.23C117.519 193.23 96.1705 189.074 84.4778 193.083C83.869 193.313 83.315 193.668 82.8514 194.125C82.3879 194.582 82.0249 195.13 81.7859 195.736" fill="#367C3C"/>
<path d="M90.3434 217.425C100.494 223.779 117.519 215.903 117.519 215.903C117.519 215.903 120.571 202.077 117.519 193.23C117.519 193.23 96.1705 189.074 84.4778 193.083C83.869 193.313 83.315 193.668 82.8514 194.125C82.3879 194.582 82.0249 195.13 81.7859 195.736" stroke="#263238" stroke-width="0.45003" stroke-linecap="round" stroke-linejoin="round"/>
<path d="M114.821 192.768C116.522 199.883 116.662 207.282 115.232 214.457" stroke="#263238" stroke-width="0.45003" stroke-linecap="round" stroke-linejoin="round"/>
<path d="M111.422 201.659C111.422 201.659 104.355 213.185 95.3225 214.881" stroke="#263238" stroke-width="0.45003" stroke-linecap="round" stroke-linejoin="round"/>
<path d="M104.85 219.558C104.85 219.558 100.154 225.128 94.3909 225.128" stroke="#263238" stroke-width="0.45003" stroke-linecap="round" stroke-linejoin="round"/>
<path d="M100.327 219.905C100.768 220.995 100.768 222.214 100.327 223.304C100.327 223.304 101.124 226.651 99.6206 231.476C98.5155 235.035 98.5669 245.128 98.053 252.227C98.053 252.227 99.6848 260.791 99.6206 273.666" stroke="#263238" stroke-width="0.45003" stroke-linecap="round" stroke-linejoin="round"/>
<path d="M89.4631 191.907C89.4631 191.907 98.207 191.329 103.372 197.426" stroke="#263238" stroke-width="0.45003" stroke-linecap="round" stroke-linejoin="round"/>
<path d="M189.385 165.149C189.385 165.149 188.1 167.371 186.59 167.879C186.59 167.879 186.474 170.198 182.594 170.976" stroke="#263238" stroke-width="0.45003" stroke-linecap="round" stroke-linejoin="round"/>
<path d="M188.312 166.607C188.679 166.822 188.957 167.162 189.095 167.564" stroke="#263238" stroke-width="0.45003" stroke-linecap="round" stroke-linejoin="round"/>
<path d="M61.6062 258.17C61.6062 258.17 70.6391 269.946 79.2481 265.712" stroke="#263238" stroke-width="0.45003" stroke-linecap="round" stroke-linejoin="round"/>
<path d="M84.4777 233.782C84.4777 233.782 78.3808 252.497 64.658 251.649" stroke="#263238" stroke-width="0.45003" stroke-linecap="round" stroke-linejoin="round"/>
</svg>
