<svg width="143" height="143" viewBox="0 0 143 143" fill="none" xmlns="http://www.w3.org/2000/svg">
<circle cx="71.5" cy="71.5" r="70.07" stroke="black" stroke-width="2.86"/>
<path d="M56.8558 59.2012C56.3019 58.9029 55.6319 58.9178 55.0917 59.2404C54.5516 59.563 54.2208 60.1458 54.2208 60.775V83.4167C54.2208 84.4039 55.0211 85.2042 56.0083 85.2042C56.9956 85.2042 57.7958 84.4039 57.7958 83.4167V63.7677L70.6526 70.6905C71.1816 70.9754 71.8184 70.9754 72.3475 70.6905L85.2042 63.7677V83.4167C85.2042 84.4039 86.0045 85.2042 86.9917 85.2042C87.9789 85.2042 88.7792 84.4039 88.7792 83.4167V60.775C88.7792 60.1458 88.4484 59.563 87.9083 59.2404C87.3682 58.9178 86.6982 58.9029 86.1442 59.2012L71.5 67.0865L56.8558 59.2012Z" fill="black"/>
<path fill-rule="evenodd" clip-rule="evenodd" d="M84.1569 51.7704C75.7358 51.0174 67.2643 51.0174 58.8432 51.7704L55.2268 52.0937C51.3477 52.4406 48.2134 55.404 47.65 59.2577C46.4631 67.3761 46.4631 75.6239 47.65 83.7423C48.2134 87.5959 51.3477 90.5594 55.2268 90.9063L58.8432 91.2296C67.2643 91.9826 75.7358 91.9826 84.1569 91.2296L87.7733 90.9063C91.6524 90.5594 94.7867 87.5959 95.3501 83.7423C96.537 75.6239 96.537 67.3761 95.3501 59.2577C94.7867 55.404 91.6524 52.4406 87.7733 52.0937L84.1569 51.7704ZM59.1615 55.3312C67.3708 54.5972 75.6293 54.5972 83.8386 55.3312L87.4549 55.6545C89.686 55.854 91.4886 57.5584 91.8127 59.7749C92.9494 67.5503 92.9494 75.4497 91.8127 83.2251C91.4886 85.4415 89.686 87.146 87.4549 87.3455L83.8386 87.6688C75.6293 88.4028 67.3708 88.4028 59.1615 87.6688L55.5452 87.3455C53.3141 87.146 51.5114 85.4415 51.1874 83.2251C50.0507 75.4497 50.0507 67.5503 51.1874 59.7749C51.5114 57.5584 53.3141 55.854 55.5452 55.6545L59.1615 55.3312Z" fill="black"/>
</svg>
