<svg width="384" height="575" viewBox="0 0 384 575" fill="none" xmlns="http://www.w3.org/2000/svg">
<rect x="177.731" y="3.95239" width="353.207" height="387.386" rx="83" transform="rotate(38.5 177.731 3.95239)" fill="#6FCF97"/>
<path d="M144.229 392.801L194.018 185.412L266.661 202.852C291.825 208.894 309.749 218.319 320.433 231.128C331.139 243.842 334.259 259.505 329.79 278.116C327.351 288.277 322.585 296.624 315.493 303.156C308.424 309.594 299.803 313.5 289.631 314.874C299.628 320.086 306.696 327.458 310.836 336.988C315.07 346.541 315.785 357.158 312.981 368.838C308.194 388.779 298.207 402.35 283.02 409.55C267.834 416.751 248.443 417.619 224.848 412.156L144.229 392.801ZM208.64 312.754L195.201 368.732L231.807 377.521C241.873 379.937 250.277 379.444 257.019 376.041C263.879 372.566 268.324 366.603 270.353 358.152C274.912 339.16 267.398 327.162 247.81 322.158L208.64 312.754ZM215.89 282.558L247.511 290.149C269.157 294.944 281.998 288.938 286.033 272.131C288.29 262.73 287.155 255.327 282.628 249.921C278.218 244.444 270.126 240.291 258.351 237.465L228.44 230.283L215.89 282.558Z" fill="#09015F"/>
<path d="M144.229 392.801L142.284 392.334L141.817 394.278L143.762 394.745L144.229 392.801ZM194.018 185.412L194.485 183.468L192.54 183.001L192.073 184.945L194.018 185.412ZM320.433 231.128L318.897 232.409L318.903 232.416L320.433 231.128ZM315.493 303.156L316.84 304.635L316.848 304.627L315.493 303.156ZM289.631 314.874L289.363 312.892L283.121 313.736L288.706 316.648L289.631 314.874ZM310.836 336.988L309.001 337.785L309.004 337.792L309.007 337.799L310.836 336.988ZM224.848 412.156L224.381 414.1L224.389 414.102L224.397 414.104L224.848 412.156ZM208.64 312.754L209.107 310.81L207.162 310.343L206.695 312.288L208.64 312.754ZM195.201 368.732L193.256 368.265L192.789 370.21L194.734 370.677L195.201 368.732ZM257.019 376.041L257.92 377.827L257.923 377.825L257.019 376.041ZM247.81 322.158L248.305 320.221L248.291 320.217L248.277 320.214L247.81 322.158ZM215.89 282.558L213.945 282.091L213.478 284.036L215.423 284.503L215.89 282.558ZM247.511 290.149L247.044 292.094L247.061 292.098L247.078 292.102L247.511 290.149ZM282.628 249.921L281.07 251.175L281.082 251.191L281.095 251.205L282.628 249.921ZM228.44 230.283L228.906 228.339L226.962 227.872L226.495 229.817L228.44 230.283ZM146.173 393.268L195.963 185.879L192.073 184.945L142.284 392.334L146.173 393.268ZM193.551 187.357L266.194 204.797L267.128 200.908L194.485 183.468L193.551 187.357ZM266.194 204.797C291.156 210.79 308.603 220.068 318.897 232.409L321.968 229.847C310.894 216.57 292.494 206.998 267.128 200.908L266.194 204.797ZM318.903 232.416C329.134 244.566 332.191 259.549 327.846 277.65L331.735 278.583C336.326 259.461 333.144 243.118 321.962 229.84L318.903 232.416ZM327.846 277.65C325.491 287.458 320.914 295.444 314.138 301.685L316.848 304.627C324.257 297.803 329.211 289.096 331.735 278.583L327.846 277.65ZM314.147 301.678C307.4 307.821 299.164 311.568 289.363 312.892L289.899 316.856C300.442 315.432 309.448 311.367 316.84 304.635L314.147 301.678ZM288.706 316.648C298.334 321.667 305.06 328.711 309.001 337.785L312.67 336.191C308.332 326.204 300.922 318.505 290.556 313.101L288.706 316.648ZM309.007 337.799C313.038 346.892 313.754 357.051 311.037 368.371L314.926 369.305C317.817 357.265 317.102 346.191 312.664 336.178L309.007 337.799ZM311.037 368.371C306.356 387.867 296.683 400.859 282.164 407.743L283.877 411.358C299.731 403.841 310.032 389.691 314.926 369.305L311.037 368.371ZM282.164 407.743C267.53 414.682 248.643 415.613 225.299 410.207L224.397 414.104C248.243 419.626 268.137 418.821 283.877 411.358L282.164 407.743ZM225.315 410.211L144.695 390.856L143.762 394.745L224.381 414.1L225.315 410.211ZM206.695 312.288L193.256 368.265L197.146 369.199L210.585 313.221L206.695 312.288ZM194.734 370.677L231.34 379.465L232.274 375.576L195.668 366.787L194.734 370.677ZM231.34 379.465C241.696 381.951 250.621 381.51 257.92 377.827L256.118 374.256C249.932 377.378 242.05 377.923 232.274 375.576L231.34 379.465ZM257.923 377.825C265.378 374.049 270.152 367.557 272.298 358.619L268.408 357.685C266.496 365.649 262.38 371.083 256.115 374.257L257.923 377.825ZM272.298 358.619C274.654 348.803 273.968 340.453 269.832 333.848C265.704 327.258 258.384 322.795 248.305 320.221L247.315 324.096C256.824 326.525 263.055 330.564 266.442 335.971C269.819 341.364 270.611 348.508 268.408 357.685L272.298 358.619ZM248.277 320.214L209.107 310.81L208.173 314.699L247.343 324.103L248.277 320.214ZM215.423 284.503L247.044 292.094L247.977 288.205L216.356 280.613L215.423 284.503ZM247.078 292.102C258.104 294.545 267.234 294.322 274.224 291.053C281.317 287.735 285.853 281.45 287.978 272.598L284.089 271.664C282.179 279.619 278.277 284.741 272.529 287.429C266.677 290.166 258.564 290.549 247.943 288.197L247.078 292.102ZM287.978 272.598C290.324 262.827 289.234 254.694 284.161 248.637L281.095 251.205C285.076 255.96 286.257 262.633 284.089 271.664L287.978 272.598ZM284.186 248.667C279.361 242.673 270.743 238.383 258.818 235.52L257.884 239.409C269.509 242.2 277.076 246.214 281.07 251.175L284.186 248.667ZM258.818 235.52L228.906 228.339L227.973 232.228L257.884 239.409L258.818 235.52ZM226.495 229.817L213.945 282.091L217.834 283.025L230.384 230.75L226.495 229.817Z" fill="white"/>
<path d="M172.736 89.8025L215.467 100.061L180.998 243.638C177.829 256.837 172.081 267.81 163.754 276.557C155.545 285.232 145.462 291.047 133.505 294.001C121.547 296.955 108.874 296.825 95.4847 293.611C73.5494 288.344 57.7906 278.686 48.2083 264.635C38.6488 250.489 36.3198 233.208 41.2212 212.792L84.2372 223.119C81.7979 233.28 82.1334 241.294 85.2439 247.163C88.3543 253.032 94.515 257.072 103.726 259.283C111.892 261.244 119.069 260.004 125.257 255.564C131.445 251.125 135.782 243.729 138.267 233.379L172.736 89.8025Z" fill="#09015F"/>
<path d="M172.736 89.8025L173.203 87.8578L171.258 87.3909L170.792 89.3356L172.736 89.8025ZM215.467 100.061L217.412 100.528L217.879 98.5835L215.934 98.1166L215.467 100.061ZM163.754 276.557L162.306 275.178L162.302 275.183L163.754 276.557ZM48.2083 264.635L46.5512 265.755L46.556 265.762L48.2083 264.635ZM41.2212 212.792L41.6881 210.847L39.7434 210.38L39.2765 212.325L41.2212 212.792ZM84.2372 223.119L86.1819 223.586L86.6488 221.641L84.7041 221.175L84.2372 223.119ZM172.269 91.7473L215 102.006L215.934 98.1166L173.203 87.8578L172.269 91.7473ZM213.523 99.5945L179.053 243.171L182.942 244.105L217.412 100.528L213.523 99.5945ZM179.053 243.171C175.956 256.071 170.361 266.717 162.306 275.178L165.203 277.936C173.801 268.904 179.702 257.603 182.942 244.105L179.053 243.171ZM162.302 275.183C154.365 283.57 144.623 289.194 133.025 292.059L133.984 295.943C146.301 292.899 156.726 286.894 165.207 277.932L162.302 275.183ZM133.025 292.059C121.413 294.928 109.067 294.815 95.9516 291.666L95.0178 295.555C108.681 298.836 121.681 298.982 133.984 295.943L133.025 292.059ZM95.9516 291.666C74.3385 286.477 59.0821 277.03 49.8606 263.508L46.556 265.762C56.4991 280.342 72.7603 290.212 95.0178 295.555L95.9516 291.666ZM49.8654 263.515C40.6904 249.938 38.3631 233.264 43.166 213.259L39.2765 212.325C34.2764 233.152 36.6072 251.04 46.5512 265.755L49.8654 263.515ZM40.7543 214.737L83.7703 225.064L84.7041 221.175L41.6881 210.847L40.7543 214.737ZM82.2925 222.652C79.8014 233.028 80.0385 241.613 83.4767 248.1L87.011 246.227C84.2284 240.976 83.7943 233.531 86.1819 223.586L82.2925 222.652ZM83.4767 248.1C86.9547 254.662 93.7346 258.941 103.259 261.228L104.193 257.339C95.2954 255.203 89.754 251.402 87.011 246.227L83.4767 248.1ZM103.259 261.228C111.925 263.309 119.711 262.005 126.423 257.189L124.091 253.939C118.427 258.003 111.86 259.179 104.193 257.339L103.259 261.228ZM126.423 257.189C133.132 252.376 137.659 244.479 140.211 233.846L136.322 232.912C133.905 242.98 129.758 249.873 124.091 253.939L126.423 257.189ZM140.211 233.846L174.681 90.2694L170.792 89.3356L136.322 232.912L140.211 233.846Z" fill="white"/>
</svg>
